<?xml version="1.0" encoding="UTF-8" standalone="no"?>
<!DOCTYPE svg PUBLIC "-//W3C//DTD SVG 1.1//EN"
 "http://www.w3.org/Graphics/SVG/1.1/DTD/svg11.dtd">
<!-- Generated by graphviz version 2.43.0 (0)
 -->
<!-- Title: %3 Pages: 1 -->
<svg width="2493pt" height="704pt"
 viewBox="0.00 0.00 2492.54 703.66" xmlns="http://www.w3.org/2000/svg" xmlns:xlink="http://www.w3.org/1999/xlink">
<g id="graph0" class="graph" transform="scale(1 1) rotate(0) translate(36 667.66)">
<title>%3</title>
<polygon fill="white" stroke="transparent" points="-36,36 -36,-667.66 2456.54,-667.66 2456.54,36 -36,36"/>
<!-- postgres -->
<g id="node1" class="node">
<title>postgres</title>
<polygon fill="none" stroke="black" points="201.54,-183.39 3.54,-183.39 3.54,-179.39 -0.46,-179.39 -0.46,-175.39 3.54,-175.39 3.54,-153.39 -0.46,-153.39 -0.46,-149.39 3.54,-149.39 3.54,-145.39 201.54,-145.39 201.54,-183.39"/>
<polyline fill="none" stroke="black" points="3.54,-179.39 7.54,-179.39 7.54,-175.39 3.54,-175.39 "/>
<polyline fill="none" stroke="black" points="3.54,-153.39 7.54,-153.39 7.54,-149.39 3.54,-149.39 "/>
<text text-anchor="middle" x="102.54" y="-168.19" font-family="Times,serif" font-size="14.00">postgres</text>
<text text-anchor="middle" x="102.54" y="-153.19" font-family="Times,serif" font-size="14.00">(pgvector/pgvector:pg16)</text>
</g>
<!-- postgres_data -->
<g id="node2" class="node">
<title>postgres_data</title>
<path fill="none" stroke="black" d="M161.04,-33.73C161.04,-35.53 134.82,-37 102.54,-37 70.26,-37 44.04,-35.53 44.04,-33.73 44.04,-33.73 44.04,-4.27 44.04,-4.27 44.04,-2.47 70.26,-1 102.54,-1 134.82,-1 161.04,-2.47 161.04,-4.27 161.04,-4.27 161.04,-33.73 161.04,-33.73"/>
<path fill="none" stroke="black" d="M161.04,-33.73C161.04,-31.92 134.82,-30.45 102.54,-30.45 70.26,-30.45 44.04,-31.92 44.04,-33.73"/>
<text text-anchor="middle" x="102.54" y="-15.3" font-family="Times,serif" font-size="14.00">postgres_data</text>
</g>
<!-- postgres&#45;&gt;postgres_data -->
<g id="edge1" class="edge">
<title>postgres&#45;&gt;postgres_data</title>
<path fill="none" stroke="black" stroke-dasharray="5,2" d="M102.54,-134.86C102.54,-109.44 102.54,-72.47 102.54,-47.4"/>
<polygon fill="black" stroke="black" points="99.04,-135.23 102.54,-145.23 106.04,-135.23 99.04,-135.23"/>
<polygon fill="black" stroke="black" points="106.04,-47.12 102.54,-37.12 99.04,-47.12 106.04,-47.12"/>
<text text-anchor="middle" x="186.04" y="-59.8" font-family="Times,serif" font-size="14.00">/var/lib/postgresql/data</text>
</g>
<!-- 0.0.0.05432 -->
<g id="node3" class="node">
<title>0.0.0.05432</title>
<ellipse fill="none" stroke="black" cx="69.54" cy="-366.18" rx="69.59" ry="69.59"/>
<text text-anchor="middle" x="69.54" y="-362.48" font-family="Times,serif" font-size="14.00">0.0.0.0:5432</text>
</g>
<!-- 0.0.0.05432&#45;&gt;postgres -->
<g id="edge2" class="edge">
<title>0.0.0.05432&#45;&gt;postgres</title>
<path fill="none" stroke="black" d="M80.76,-297.26C86.61,-261.87 93.44,-220.49 97.88,-193.65"/>
<polygon fill="black" stroke="black" points="101.39,-193.88 99.56,-183.44 94.48,-192.74 101.39,-193.88"/>
<text text-anchor="middle" x="106.04" y="-261.59" font-family="Times,serif" font-size="14.00">5432</text>
</g>
<!-- backend -->
<g id="node4" class="node">
<title>backend</title>
<polygon fill="none" stroke="black" points="402.04,-385.18 157.04,-385.18 157.04,-381.18 153.04,-381.18 153.04,-377.18 157.04,-377.18 157.04,-355.18 153.04,-355.18 153.04,-351.18 157.04,-351.18 157.04,-347.18 402.04,-347.18 402.04,-385.18"/>
<polyline fill="none" stroke="black" points="157.04,-381.18 161.04,-381.18 161.04,-377.18 157.04,-377.18 "/>
<polyline fill="none" stroke="black" points="157.04,-355.18 161.04,-355.18 161.04,-351.18 157.04,-351.18 "/>
<text text-anchor="middle" x="279.54" y="-369.98" font-family="Times,serif" font-size="14.00">backend</text>
<text text-anchor="middle" x="279.54" y="-354.98" font-family="Times,serif" font-size="14.00">(build from &#39;.&#39; using &#39;Dockerfile&#39;)</text>
</g>
<!-- backend&#45;&gt;postgres -->
<g id="edge5" class="edge">
<title>backend&#45;&gt;postgres</title>
<path fill="none" stroke="black" stroke-dasharray="1,5" d="M263.52,-347.1C232.01,-311.53 161.87,-232.36 125.47,-191.27"/>
<polygon fill="black" stroke="black" points="127.91,-188.74 118.65,-183.58 122.67,-193.38 127.91,-188.74"/>
</g>
<!-- ./app -->
<g id="node5" class="node">
<title>./app</title>
<path fill="none" stroke="black" d="M306.54,-179.12C306.54,-180.93 294.44,-182.39 279.54,-182.39 264.65,-182.39 252.54,-180.93 252.54,-179.12 252.54,-179.12 252.54,-149.67 252.54,-149.67 252.54,-147.86 264.65,-146.39 279.54,-146.39 294.44,-146.39 306.54,-147.86 306.54,-149.67 306.54,-149.67 306.54,-179.12 306.54,-179.12"/>
<path fill="none" stroke="black" d="M306.54,-179.12C306.54,-177.31 294.44,-175.85 279.54,-175.85 264.65,-175.85 252.54,-177.31 252.54,-179.12"/>
<text text-anchor="middle" x="279.54" y="-160.69" font-family="Times,serif" font-size="14.00">./app</text>
</g>
<!-- backend&#45;&gt;./app -->
<g id="edge3" class="edge">
<title>backend&#45;&gt;./app</title>
<path fill="none" stroke="black" stroke-dasharray="5,2" d="M279.54,-336.97C279.54,-298.64 279.54,-230.57 279.54,-192.71"/>
<polygon fill="black" stroke="black" points="276.04,-337.1 279.54,-347.1 283.04,-337.1 276.04,-337.1"/>
<polygon fill="black" stroke="black" points="283.04,-192.44 279.54,-182.44 276.04,-192.44 283.04,-192.44"/>
<text text-anchor="middle" x="310.54" y="-261.59" font-family="Times,serif" font-size="14.00">/app/app</text>
</g>
<!-- otel&#45;collector -->
<g id="node7" class="node">
<title>otel&#45;collector</title>
<polygon fill="none" stroke="black" points="789.04,-183.39 460.04,-183.39 460.04,-179.39 456.04,-179.39 456.04,-175.39 460.04,-175.39 460.04,-153.39 456.04,-153.39 456.04,-149.39 460.04,-149.39 460.04,-145.39 789.04,-145.39 789.04,-183.39"/>
<polyline fill="none" stroke="black" points="460.04,-179.39 464.04,-179.39 464.04,-175.39 460.04,-175.39 "/>
<polyline fill="none" stroke="black" points="460.04,-153.39 464.04,-153.39 464.04,-149.39 460.04,-149.39 "/>
<text text-anchor="middle" x="624.54" y="-168.19" font-family="Times,serif" font-size="14.00">otel&#45;collector</text>
<text text-anchor="middle" x="624.54" y="-153.19" font-family="Times,serif" font-size="14.00">(otel/opentelemetry&#45;collector&#45;contrib:latest)</text>
</g>
<!-- backend&#45;&gt;otel&#45;collector -->
<g id="edge6" class="edge">
<title>backend&#45;&gt;otel&#45;collector</title>
<path fill="none" stroke="black" stroke-dasharray="1,5" d="M310.77,-347.1C373.55,-310.74 514.99,-228.83 584.48,-188.59"/>
<polygon fill="black" stroke="black" points="586.49,-191.47 593.39,-183.43 582.98,-185.42 586.49,-191.47"/>
</g>
<!-- 0.0.0.08800 -->
<g id="node6" class="node">
<title>0.0.0.08800</title>
<ellipse fill="none" stroke="black" cx="279.54" cy="-562.12" rx="69.59" ry="69.59"/>
<text text-anchor="middle" x="279.54" y="-558.42" font-family="Times,serif" font-size="14.00">0.0.0.0:8800</text>
</g>
<!-- 0.0.0.08800&#45;&gt;backend -->
<g id="edge4" class="edge">
<title>0.0.0.08800&#45;&gt;backend</title>
<path fill="none" stroke="black" d="M279.54,-492.47C279.54,-459.1 279.54,-420.82 279.54,-395.45"/>
<polygon fill="black" stroke="black" points="283.04,-395.42 279.54,-385.42 276.04,-395.42 283.04,-395.42"/>
<text text-anchor="middle" x="298.04" y="-463.37" font-family="Times,serif" font-size="14.00">8800</text>
</g>
<!-- ./otel&#45;collector&#45;config.yaml -->
<g id="node20" class="node">
<title>./otel&#45;collector&#45;config.yaml</title>
<path fill="none" stroke="black" d="M723.04,-33.73C723.04,-35.53 677.1,-37 620.54,-37 563.99,-37 518.04,-35.53 518.04,-33.73 518.04,-33.73 518.04,-4.27 518.04,-4.27 518.04,-2.47 563.99,-1 620.54,-1 677.1,-1 723.04,-2.47 723.04,-4.27 723.04,-4.27 723.04,-33.73 723.04,-33.73"/>
<path fill="none" stroke="black" d="M723.04,-33.73C723.04,-31.92 677.1,-30.45 620.54,-30.45 563.99,-30.45 518.04,-31.92 518.04,-33.73"/>
<text text-anchor="middle" x="620.54" y="-15.3" font-family="Times,serif" font-size="14.00">./otel&#45;collector&#45;config.yaml</text>
</g>
<!-- otel&#45;collector&#45;&gt;./otel&#45;collector&#45;config.yaml -->
<g id="edge18" class="edge">
<title>otel&#45;collector&#45;&gt;./otel&#45;collector&#45;config.yaml</title>
<path fill="none" stroke="black" stroke-dasharray="5,2" d="M623.75,-134.86C623.04,-109.44 622.01,-72.47 621.31,-47.4"/>
<polygon fill="black" stroke="black" points="620.26,-135.33 624.04,-145.23 627.26,-135.14 620.26,-135.33"/>
<polygon fill="black" stroke="black" points="624.8,-47.02 621.02,-37.12 617.8,-47.21 624.8,-47.02"/>
<text text-anchor="middle" x="728.04" y="-59.8" font-family="Times,serif" font-size="14.00">/etc/otel&#45;collector&#45;config.yaml</text>
</g>
<!-- jaeger -->
<g id="node24" class="node">
<title>jaeger</title>
<polygon fill="none" stroke="black" points="959.54,-38 741.54,-38 741.54,-34 737.54,-34 737.54,-30 741.54,-30 741.54,-8 737.54,-8 737.54,-4 741.54,-4 741.54,0 959.54,0 959.54,-38"/>
<polyline fill="none" stroke="black" points="741.54,-34 745.54,-34 745.54,-30 741.54,-30 "/>
<polyline fill="none" stroke="black" points="741.54,-8 745.54,-8 745.54,-4 741.54,-4 "/>
<text text-anchor="middle" x="850.54" y="-22.8" font-family="Times,serif" font-size="14.00">jaeger</text>
<text text-anchor="middle" x="850.54" y="-7.8" font-family="Times,serif" font-size="14.00">(jaegertracing/jaeger:latest)</text>
</g>
<!-- otel&#45;collector&#45;&gt;jaeger -->
<g id="edge22" class="edge">
<title>otel&#45;collector&#45;&gt;jaeger</title>
<path fill="none" stroke="black" stroke-dasharray="1,5" d="M666.78,-145.33C727.23,-119.4 831.53,-74.37 834.54,-71 840.2,-64.68 843.86,-56.37 846.22,-48.3"/>
<polygon fill="black" stroke="black" points="849.68,-48.91 848.58,-38.37 842.86,-47.29 849.68,-48.91"/>
</g>
<!-- frontend -->
<g id="node8" class="node">
<title>frontend</title>
<polygon fill="none" stroke="black" points="1817.04,-385.18 1506.04,-385.18 1506.04,-381.18 1502.04,-381.18 1502.04,-377.18 1506.04,-377.18 1506.04,-355.18 1502.04,-355.18 1502.04,-351.18 1506.04,-351.18 1506.04,-347.18 1817.04,-347.18 1817.04,-385.18"/>
<polyline fill="none" stroke="black" points="1506.04,-381.18 1510.04,-381.18 1510.04,-377.18 1506.04,-377.18 "/>
<polyline fill="none" stroke="black" points="1506.04,-355.18 1510.04,-355.18 1510.04,-351.18 1506.04,-351.18 "/>
<text text-anchor="middle" x="1661.54" y="-369.98" font-family="Times,serif" font-size="14.00">frontend</text>
<text text-anchor="middle" x="1661.54" y="-354.98" font-family="Times,serif" font-size="14.00">(build from &#39;./frontend&#39; using &#39;Dockerfile&#39;)</text>
</g>
<!-- ./frontend -->
<g id="node9" class="node">
<title>./frontend</title>
<path fill="none" stroke="black" d="M1705.04,-179.12C1705.04,-180.93 1685.55,-182.39 1661.54,-182.39 1637.54,-182.39 1618.04,-180.93 1618.04,-179.12 1618.04,-179.12 1618.04,-149.67 1618.04,-149.67 1618.04,-147.86 1637.54,-146.39 1661.54,-146.39 1685.55,-146.39 1705.04,-147.86 1705.04,-149.67 1705.04,-149.67 1705.04,-179.12 1705.04,-179.12"/>
<path fill="none" stroke="black" d="M1705.04,-179.12C1705.04,-177.31 1685.55,-175.85 1661.54,-175.85 1637.54,-175.85 1618.04,-177.31 1618.04,-179.12"/>
<text text-anchor="middle" x="1661.54" y="-160.69" font-family="Times,serif" font-size="14.00">./frontend</text>
</g>
<!-- frontend&#45;&gt;./frontend -->
<g id="edge7" class="edge">
<title>frontend&#45;&gt;./frontend</title>
<path fill="none" stroke="black" stroke-dasharray="5,2" d="M1661.54,-336.97C1661.54,-298.64 1661.54,-230.57 1661.54,-192.71"/>
<polygon fill="black" stroke="black" points="1658.04,-337.1 1661.54,-347.1 1665.04,-337.1 1658.04,-337.1"/>
<polygon fill="black" stroke="black" points="1665.04,-192.44 1661.54,-182.44 1658.04,-192.44 1665.04,-192.44"/>
<text text-anchor="middle" x="1677.04" y="-261.59" font-family="Times,serif" font-size="14.00">/app</text>
</g>
<!-- 0.0.0.03000 -->
<g id="node10" class="node">
<title>0.0.0.03000</title>
<ellipse fill="none" stroke="black" cx="1661.54" cy="-562.12" rx="69.59" ry="69.59"/>
<text text-anchor="middle" x="1661.54" y="-558.42" font-family="Times,serif" font-size="14.00">0.0.0.0:3000</text>
</g>
<!-- 0.0.0.03000&#45;&gt;frontend -->
<g id="edge8" class="edge">
<title>0.0.0.03000&#45;&gt;frontend</title>
<path fill="none" stroke="black" d="M1661.54,-492.47C1661.54,-459.1 1661.54,-420.82 1661.54,-395.45"/>
<polygon fill="black" stroke="black" points="1665.04,-395.42 1661.54,-385.42 1658.04,-395.42 1665.04,-395.42"/>
<text text-anchor="middle" x="1680.04" y="-463.37" font-family="Times,serif" font-size="14.00">3000</text>
</g>
<!-- ollama -->
<g id="node11" class="node">
<title>ollama</title>
<polygon fill="none" stroke="black" points="1148.04,-183.39 977.04,-183.39 977.04,-179.39 973.04,-179.39 973.04,-175.39 977.04,-175.39 977.04,-153.39 973.04,-153.39 973.04,-149.39 977.04,-149.39 977.04,-145.39 1148.04,-145.39 1148.04,-183.39"/>
<polyline fill="none" stroke="black" points="977.04,-179.39 981.04,-179.39 981.04,-175.39 977.04,-175.39 "/>
<polyline fill="none" stroke="black" points="977.04,-153.39 981.04,-153.39 981.04,-149.39 977.04,-149.39 "/>
<text text-anchor="middle" x="1062.54" y="-168.19" font-family="Times,serif" font-size="14.00">ollama</text>
<text text-anchor="middle" x="1062.54" y="-153.19" font-family="Times,serif" font-size="14.00">(ollama/ollama:latest)</text>
</g>
<!-- ollama_data -->
<g id="node12" class="node">
<title>ollama_data</title>
<path fill="none" stroke="black" d="M1306.54,-33.73C1306.54,-35.53 1283.68,-37 1255.54,-37 1227.4,-37 1204.54,-35.53 1204.54,-33.73 1204.54,-33.73 1204.54,-4.27 1204.54,-4.27 1204.54,-2.47 1227.4,-1 1255.54,-1 1283.68,-1 1306.54,-2.47 1306.54,-4.27 1306.54,-4.27 1306.54,-33.73 1306.54,-33.73"/>
<path fill="none" stroke="black" d="M1306.54,-33.73C1306.54,-31.92 1283.68,-30.45 1255.54,-30.45 1227.4,-30.45 1204.54,-31.92 1204.54,-33.73"/>
<text text-anchor="middle" x="1255.54" y="-15.3" font-family="Times,serif" font-size="14.00">ollama_data</text>
</g>
<!-- ollama&#45;&gt;ollama_data -->
<g id="edge9" class="edge">
<title>ollama&#45;&gt;ollama_data</title>
<path fill="none" stroke="black" stroke-dasharray="5,2" d="M1089.77,-138.5C1108.87,-122.25 1135.7,-101.77 1162.54,-89 1191.94,-75.02 1208.77,-92.12 1233.54,-71 1240.9,-64.73 1245.87,-55.55 1249.19,-46.69"/>
<polygon fill="black" stroke="black" points="1087.34,-135.97 1082.08,-145.17 1091.93,-141.26 1087.34,-135.97"/>
<polygon fill="black" stroke="black" points="1252.58,-47.61 1252.29,-37.02 1245.91,-45.48 1252.58,-47.61"/>
<text text-anchor="middle" x="1291.04" y="-59.8" font-family="Times,serif" font-size="14.00">/root/.ollama</text>
</g>
<!-- ./ollama&#45;init.sh -->
<g id="node13" class="node">
<title>./ollama&#45;init.sh</title>
<path fill="none" stroke="black" d="M1099.54,-33.73C1099.54,-35.53 1072.2,-37 1038.54,-37 1004.89,-37 977.54,-35.53 977.54,-33.73 977.54,-33.73 977.54,-4.27 977.54,-4.27 977.54,-2.47 1004.89,-1 1038.54,-1 1072.2,-1 1099.54,-2.47 1099.54,-4.27 1099.54,-4.27 1099.54,-33.73 1099.54,-33.73"/>
<path fill="none" stroke="black" d="M1099.54,-33.73C1099.54,-31.92 1072.2,-30.45 1038.54,-30.45 1004.89,-30.45 977.54,-31.92 977.54,-33.73"/>
<text text-anchor="middle" x="1038.54" y="-15.3" font-family="Times,serif" font-size="14.00">./ollama&#45;init.sh</text>
</g>
<!-- ollama&#45;&gt;./ollama&#45;init.sh -->
<g id="edge10" class="edge">
<title>ollama&#45;&gt;./ollama&#45;init.sh</title>
<path fill="none" stroke="black" stroke-dasharray="5,2" d="M1053.88,-135.56C1048.65,-117.38 1042.46,-93.02 1039.54,-71 1038.52,-63.27 1038.08,-54.83 1037.95,-47.08"/>
<polygon fill="black" stroke="black" points="1050.54,-136.62 1056.73,-145.22 1057.26,-134.64 1050.54,-136.62"/>
<polygon fill="black" stroke="black" points="1041.45,-47.06 1037.93,-37.07 1034.45,-47.08 1041.45,-47.06"/>
<text text-anchor="middle" x="1136.54" y="-59.8" font-family="Times,serif" font-size="14.00">/usr/local/bin/ollama&#45;init.sh</text>
</g>
<!-- 0.0.0.011434 -->
<g id="node14" class="node">
<title>0.0.0.011434</title>
<ellipse fill="none" stroke="black" cx="992.54" cy="-366.18" rx="75.29" ry="75.29"/>
<text text-anchor="middle" x="992.54" y="-362.48" font-family="Times,serif" font-size="14.00">0.0.0.0:11434</text>
</g>
<!-- 0.0.0.011434&#45;&gt;ollama -->
<g id="edge11" class="edge">
<title>0.0.0.011434&#45;&gt;ollama</title>
<path fill="none" stroke="black" d="M1017.22,-294.74C1029.45,-259.83 1043.53,-219.65 1052.71,-193.46"/>
<polygon fill="black" stroke="black" points="1056.09,-194.4 1056.09,-183.81 1049.48,-192.09 1056.09,-194.4"/>
<text text-anchor="middle" x="1053.54" y="-261.59" font-family="Times,serif" font-size="14.00">11434</text>
</g>
<!-- litellm -->
<g id="node15" class="node">
<title>litellm</title>
<polygon fill="none" stroke="black" points="1417.54,-385.18 1085.54,-385.18 1085.54,-381.18 1081.54,-381.18 1081.54,-377.18 1085.54,-377.18 1085.54,-355.18 1081.54,-355.18 1081.54,-351.18 1085.54,-351.18 1085.54,-347.18 1417.54,-347.18 1417.54,-385.18"/>
<polyline fill="none" stroke="black" points="1085.54,-381.18 1089.54,-381.18 1089.54,-377.18 1085.54,-377.18 "/>
<polyline fill="none" stroke="black" points="1085.54,-355.18 1089.54,-355.18 1089.54,-351.18 1085.54,-351.18 "/>
<text text-anchor="middle" x="1251.54" y="-369.98" font-family="Times,serif" font-size="14.00">litellm</text>
<text text-anchor="middle" x="1251.54" y="-354.98" font-family="Times,serif" font-size="14.00">(ghcr.io/berriai/litellm&#45;database:main&#45;latest)</text>
</g>
<!-- litellm&#45;&gt;otel&#45;collector -->
<g id="edge15" class="edge">
<title>litellm&#45;&gt;otel&#45;collector</title>
<path fill="none" stroke="black" stroke-dasharray="1,5" d="M1215.54,-347.1C1180.76,-330.3 1126.19,-305.69 1076.54,-290.79 956.23,-254.66 918.82,-276.04 798.54,-239.79 753.4,-226.18 704.19,-204.45 669.66,-187.98"/>
<polygon fill="black" stroke="black" points="670.85,-184.67 660.33,-183.49 667.82,-190.98 670.85,-184.67"/>
</g>
<!-- litellm&#45;&gt;ollama -->
<g id="edge16" class="edge">
<title>litellm&#45;&gt;ollama</title>
<path fill="none" stroke="black" stroke-dasharray="1,5" d="M1234.44,-347.1C1200.72,-311.45 1125.58,-232.03 1086.78,-191.01"/>
<polygon fill="black" stroke="black" points="1089.16,-188.44 1079.75,-183.58 1084.08,-193.25 1089.16,-188.44"/>
</g>
<!-- ./litellm_config.yaml -->
<g id="node16" class="node">
<title>./litellm_config.yaml</title>
<path fill="none" stroke="black" d="M1331.54,-179.12C1331.54,-180.93 1295.69,-182.39 1251.54,-182.39 1207.4,-182.39 1171.54,-180.93 1171.54,-179.12 1171.54,-179.12 1171.54,-149.67 1171.54,-149.67 1171.54,-147.86 1207.4,-146.39 1251.54,-146.39 1295.69,-146.39 1331.54,-147.86 1331.54,-149.67 1331.54,-149.67 1331.54,-179.12 1331.54,-179.12"/>
<path fill="none" stroke="black" d="M1331.54,-179.12C1331.54,-177.31 1295.69,-175.85 1251.54,-175.85 1207.4,-175.85 1171.54,-177.31 1171.54,-179.12"/>
<text text-anchor="middle" x="1251.54" y="-160.69" font-family="Times,serif" font-size="14.00">./litellm_config.yaml</text>
</g>
<!-- litellm&#45;&gt;./litellm_config.yaml -->
<g id="edge12" class="edge">
<title>litellm&#45;&gt;./litellm_config.yaml</title>
<path fill="none" stroke="black" stroke-dasharray="5,2" d="M1251.54,-336.97C1251.54,-298.64 1251.54,-230.57 1251.54,-192.71"/>
<polygon fill="black" stroke="black" points="1248.04,-337.1 1251.54,-347.1 1255.04,-337.1 1248.04,-337.1"/>
<polygon fill="black" stroke="black" points="1255.04,-192.44 1251.54,-182.44 1248.04,-192.44 1255.04,-192.44"/>
<text text-anchor="middle" x="1310.54" y="-261.59" font-family="Times,serif" font-size="14.00">/app/config.yaml</text>
</g>
<!-- litellm_db -->
<g id="node18" class="node">
<title>litellm_db</title>
<polygon fill="none" stroke="black" points="1464.54,-183.39 1352.54,-183.39 1352.54,-179.39 1348.54,-179.39 1348.54,-175.39 1352.54,-175.39 1352.54,-153.39 1348.54,-153.39 1348.54,-149.39 1352.54,-149.39 1352.54,-145.39 1464.54,-145.39 1464.54,-183.39"/>
<polyline fill="none" stroke="black" points="1352.54,-179.39 1356.54,-179.39 1356.54,-175.39 1352.54,-175.39 "/>
<polyline fill="none" stroke="black" points="1352.54,-153.39 1356.54,-153.39 1356.54,-149.39 1352.54,-149.39 "/>
<text text-anchor="middle" x="1408.54" y="-168.19" font-family="Times,serif" font-size="14.00">litellm_db</text>
<text text-anchor="middle" x="1408.54" y="-153.19" font-family="Times,serif" font-size="14.00">(postgres:16)</text>
</g>
<!-- litellm&#45;&gt;litellm_db -->
<g id="edge14" class="edge">
<title>litellm&#45;&gt;litellm_db</title>
<path fill="none" stroke="black" stroke-dasharray="1,5" d="M1285.63,-347.15C1313.02,-331.04 1350.58,-305.03 1373.54,-272.79 1390.43,-249.07 1399.51,-216.74 1404.15,-193.76"/>
<polygon fill="black" stroke="black" points="1407.65,-194.09 1406.03,-183.62 1400.76,-192.81 1407.65,-194.09"/>
</g>
<!-- 0.0.0.04000 -->
<g id="node17" class="node">
<title>0.0.0.04000</title>
<ellipse fill="none" stroke="black" cx="1251.54" cy="-562.12" rx="69.59" ry="69.59"/>
<text text-anchor="middle" x="1251.54" y="-558.42" font-family="Times,serif" font-size="14.00">0.0.0.0:4000</text>
</g>
<!-- 0.0.0.04000&#45;&gt;litellm -->
<g id="edge13" class="edge">
<title>0.0.0.04000&#45;&gt;litellm</title>
<path fill="none" stroke="black" d="M1251.54,-492.47C1251.54,-459.1 1251.54,-420.82 1251.54,-395.45"/>
<polygon fill="black" stroke="black" points="1255.04,-395.42 1251.54,-385.42 1248.04,-395.42 1255.04,-395.42"/>
<text text-anchor="middle" x="1270.04" y="-463.37" font-family="Times,serif" font-size="14.00">4000</text>
</g>
<!-- litellm_postgres_data -->
<g id="node19" class="node">
<title>litellm_postgres_data</title>
<path fill="none" stroke="black" d="M1494.54,-33.73C1494.54,-35.53 1456.45,-37 1409.54,-37 1362.64,-37 1324.54,-35.53 1324.54,-33.73 1324.54,-33.73 1324.54,-4.27 1324.54,-4.27 1324.54,-2.47 1362.64,-1 1409.54,-1 1456.45,-1 1494.54,-2.47 1494.54,-4.27 1494.54,-4.27 1494.54,-33.73 1494.54,-33.73"/>
<path fill="none" stroke="black" d="M1494.54,-33.73C1494.54,-31.92 1456.45,-30.45 1409.54,-30.45 1362.64,-30.45 1324.54,-31.92 1324.54,-33.73"/>
<text text-anchor="middle" x="1409.54" y="-15.3" font-family="Times,serif" font-size="14.00">litellm_postgres_data</text>
</g>
<!-- litellm_db&#45;&gt;litellm_postgres_data -->
<g id="edge17" class="edge">
<title>litellm_db&#45;&gt;litellm_postgres_data</title>
<path fill="none" stroke="black" stroke-dasharray="5,2" d="M1408.74,-134.86C1408.92,-109.44 1409.18,-72.47 1409.35,-47.4"/>
<polygon fill="black" stroke="black" points="1405.24,-135.21 1408.67,-145.23 1412.24,-135.26 1405.24,-135.21"/>
<polygon fill="black" stroke="black" points="1412.85,-47.15 1409.42,-37.12 1405.85,-47.1 1412.85,-47.15"/>
<text text-anchor="middle" x="1493.04" y="-59.8" font-family="Times,serif" font-size="14.00">/var/lib/postgresql/data</text>
</g>
<!-- 0.0.0.04317 -->
<g id="node21" class="node">
<title>0.0.0.04317</title>
<ellipse fill="none" stroke="black" cx="489.54" cy="-366.18" rx="69.59" ry="69.59"/>
<text text-anchor="middle" x="489.54" y="-362.48" font-family="Times,serif" font-size="14.00">0.0.0.0:4317</text>
</g>
<!-- 0.0.0.04317&#45;&gt;otel&#45;collector -->
<g id="edge19" class="edge">
<title>0.0.0.04317&#45;&gt;otel&#45;collector</title>
<path fill="none" stroke="black" d="M528.05,-308.2C553.76,-270.15 586.39,-221.85 606.36,-192.3"/>
<polygon fill="black" stroke="black" points="609.43,-194.01 612.13,-183.77 603.63,-190.09 609.43,-194.01"/>
<text text-anchor="middle" x="580.04" y="-261.59" font-family="Times,serif" font-size="14.00">4317</text>
</g>
<!-- 0.0.0.04318 -->
<g id="node22" class="node">
<title>0.0.0.04318</title>
<ellipse fill="none" stroke="black" cx="646.54" cy="-366.18" rx="69.59" ry="69.59"/>
<text text-anchor="middle" x="646.54" y="-362.48" font-family="Times,serif" font-size="14.00">0.0.0.0:4318</text>
</g>
<!-- 0.0.0.04318&#45;&gt;otel&#45;collector -->
<g id="edge20" class="edge">
<title>0.0.0.04318&#45;&gt;otel&#45;collector</title>
<path fill="none" stroke="black" d="M639.03,-296.98C635.16,-261.81 630.64,-220.79 627.7,-194.02"/>
<polygon fill="black" stroke="black" points="631.15,-193.38 626.57,-183.82 624.19,-194.14 631.15,-193.38"/>
<text text-anchor="middle" x="655.04" y="-261.59" font-family="Times,serif" font-size="14.00">4318</text>
</g>
<!-- 0.0.0.08889 -->
<g id="node23" class="node">
<title>0.0.0.08889</title>
<ellipse fill="none" stroke="black" cx="803.54" cy="-366.18" rx="69.59" ry="69.59"/>
<text text-anchor="middle" x="803.54" y="-362.48" font-family="Times,serif" font-size="14.00">0.0.0.0:8889</text>
</g>
<!-- 0.0.0.08889&#45;&gt;otel&#45;collector -->
<g id="edge21" class="edge">
<title>0.0.0.08889&#45;&gt;otel&#45;collector</title>
<path fill="none" stroke="black" d="M757.45,-313.73C722.26,-274.46 675.27,-222.01 647.62,-191.15"/>
<polygon fill="black" stroke="black" points="649.98,-188.54 640.7,-183.42 644.76,-193.21 649.98,-188.54"/>
<text text-anchor="middle" x="738.04" y="-261.59" font-family="Times,serif" font-size="14.00">8889</text>
</g>
<!-- 0.0.0.016686 -->
<g id="node25" class="node">
<title>0.0.0.016686</title>
<ellipse fill="none" stroke="black" cx="882.54" cy="-164.39" rx="75.29" ry="75.29"/>
<text text-anchor="middle" x="882.54" y="-160.69" font-family="Times,serif" font-size="14.00">0.0.0.0:16686</text>
</g>
<!-- 0.0.0.016686&#45;&gt;jaeger -->
<g id="edge23" class="edge">
<title>0.0.0.016686&#45;&gt;jaeger</title>
<path fill="none" stroke="black" d="M868.25,-90.17C865.81,-78.7 863.2,-67.01 860.54,-56 859.91,-53.37 859.22,-50.64 858.5,-47.92"/>
<polygon fill="black" stroke="black" points="861.88,-46.98 855.88,-38.25 855.12,-48.82 861.88,-46.98"/>
<text text-anchor="middle" x="887.54" y="-59.8" font-family="Times,serif" font-size="14.00">16686</text>
</g>
<!-- prometheus -->
<g id="node26" class="node">
<title>prometheus</title>
<polygon fill="none" stroke="black" points="2041.54,-183.39 1841.54,-183.39 1841.54,-179.39 1837.54,-179.39 1837.54,-175.39 1841.54,-175.39 1841.54,-153.39 1837.54,-153.39 1837.54,-149.39 1841.54,-149.39 1841.54,-145.39 2041.54,-145.39 2041.54,-183.39"/>
<polyline fill="none" stroke="black" points="1841.54,-179.39 1845.54,-179.39 1845.54,-175.39 1841.54,-175.39 "/>
<polyline fill="none" stroke="black" points="1841.54,-153.39 1845.54,-153.39 1845.54,-149.39 1841.54,-149.39 "/>
<text text-anchor="middle" x="1941.54" y="-168.19" font-family="Times,serif" font-size="14.00">prometheus</text>
<text text-anchor="middle" x="1941.54" y="-153.19" font-family="Times,serif" font-size="14.00">(prom/prometheus:latest)</text>
</g>
<!-- ./prometheus.yml -->
<g id="node27" class="node">
<title>./prometheus.yml</title>
<path fill="none" stroke="black" d="M1789.54,-33.73C1789.54,-35.53 1757.72,-37 1718.54,-37 1679.37,-37 1647.54,-35.53 1647.54,-33.73 1647.54,-33.73 1647.54,-4.27 1647.54,-4.27 1647.54,-2.47 1679.37,-1 1718.54,-1 1757.72,-1 1789.54,-2.47 1789.54,-4.27 1789.54,-4.27 1789.54,-33.73 1789.54,-33.73"/>
<path fill="none" stroke="black" d="M1789.54,-33.73C1789.54,-31.92 1757.72,-30.45 1718.54,-30.45 1679.37,-30.45 1647.54,-31.92 1647.54,-33.73"/>
<text text-anchor="middle" x="1718.54" y="-15.3" font-family="Times,serif" font-size="14.00">./prometheus.yml</text>
</g>
<!-- prometheus&#45;&gt;./prometheus.yml -->
<g id="edge24" class="edge">
<title>prometheus&#45;&gt;./prometheus.yml</title>
<path fill="none" stroke="black" stroke-dasharray="5,2" d="M1835.27,-142.24C1794.43,-128.69 1751.24,-106.65 1724.54,-71 1719.51,-64.28 1717.37,-55.59 1716.67,-47.3"/>
<polygon fill="black" stroke="black" points="1834.45,-145.66 1845.04,-145.34 1836.57,-138.98 1834.45,-145.66"/>
<polygon fill="black" stroke="black" points="1720.17,-47.12 1716.45,-37.19 1713.17,-47.27 1720.17,-47.12"/>
<text text-anchor="middle" x="1843.54" y="-59.8" font-family="Times,serif" font-size="14.00">/etc/prometheus/prometheus.yml</text>
</g>
<!-- ./prometheus&#45;rules.yml -->
<g id="node28" class="node">
<title>./prometheus&#45;rules.yml</title>
<path fill="none" stroke="black" d="M2070.54,-33.73C2070.54,-35.53 2029.76,-37 1979.54,-37 1929.33,-37 1888.54,-35.53 1888.54,-33.73 1888.54,-33.73 1888.54,-4.27 1888.54,-4.27 1888.54,-2.47 1929.33,-1 1979.54,-1 2029.76,-1 2070.54,-2.47 2070.54,-4.27 2070.54,-4.27 2070.54,-33.73 2070.54,-33.73"/>
<path fill="none" stroke="black" d="M2070.54,-33.73C2070.54,-31.92 2029.76,-30.45 1979.54,-30.45 1929.33,-30.45 1888.54,-31.92 1888.54,-33.73"/>
<text text-anchor="middle" x="1979.54" y="-15.3" font-family="Times,serif" font-size="14.00">./prometheus&#45;rules.yml</text>
</g>
<!-- prometheus&#45;&gt;./prometheus&#45;rules.yml -->
<g id="edge25" class="edge">
<title>prometheus&#45;&gt;./prometheus&#45;rules.yml</title>
<path fill="none" stroke="black" stroke-dasharray="5,2" d="M1949,-135.25C1955.77,-109.71 1965.68,-72.31 1972.36,-47.11"/>
<polygon fill="black" stroke="black" points="1945.54,-134.67 1946.36,-145.23 1952.3,-136.46 1945.54,-134.67"/>
<polygon fill="black" stroke="black" points="1975.83,-47.68 1975.01,-37.12 1969.06,-45.89 1975.83,-47.68"/>
<text text-anchor="middle" x="2108.54" y="-59.8" font-family="Times,serif" font-size="14.00">/etc/prometheus/prometheus&#45;rules.yml</text>
</g>
<!-- 0.0.0.09090 -->
<g id="node29" class="node">
<title>0.0.0.09090</title>
<ellipse fill="none" stroke="black" cx="1939.54" cy="-366.18" rx="69.59" ry="69.59"/>
<text text-anchor="middle" x="1939.54" y="-362.48" font-family="Times,serif" font-size="14.00">0.0.0.0:9090</text>
</g>
<!-- 0.0.0.09090&#45;&gt;prometheus -->
<g id="edge26" class="edge">
<title>0.0.0.09090&#45;&gt;prometheus</title>
<path fill="none" stroke="black" d="M1940.23,-296.42C1940.58,-261.31 1940.99,-220.48 1941.26,-193.86"/>
<polygon fill="black" stroke="black" points="1944.76,-193.75 1941.36,-183.71 1937.76,-193.68 1944.76,-193.75"/>
<text text-anchor="middle" x="1960.04" y="-261.59" font-family="Times,serif" font-size="14.00">9090</text>
</g>
<!-- grafana -->
<g id="node30" class="node">
<title>grafana</title>
<polygon fill="none" stroke="black" points="2213.54,-385.18 2027.54,-385.18 2027.54,-381.18 2023.54,-381.18 2023.54,-377.18 2027.54,-377.18 2027.54,-355.18 2023.54,-355.18 2023.54,-351.18 2027.54,-351.18 2027.54,-347.18 2213.54,-347.18 2213.54,-385.18"/>
<polyline fill="none" stroke="black" points="2027.54,-381.18 2031.54,-381.18 2031.54,-377.18 2027.54,-377.18 "/>
<polyline fill="none" stroke="black" points="2027.54,-355.18 2031.54,-355.18 2031.54,-351.18 2027.54,-351.18 "/>
<text text-anchor="middle" x="2120.54" y="-369.98" font-family="Times,serif" font-size="14.00">grafana</text>
<text text-anchor="middle" x="2120.54" y="-354.98" font-family="Times,serif" font-size="14.00">(grafana/grafana:latest)</text>
</g>
<!-- grafana&#45;&gt;prometheus -->
<g id="edge30" class="edge">
<title>grafana&#45;&gt;prometheus</title>
<path fill="none" stroke="black" stroke-dasharray="1,5" d="M2104.34,-347.1C2072.47,-311.53 2001.54,-232.36 1964.72,-191.27"/>
<polygon fill="black" stroke="black" points="1967.12,-188.69 1957.84,-183.58 1961.9,-193.36 1967.12,-188.69"/>
</g>
<!-- grafana_data -->
<g id="node31" class="node">
<title>grafana_data</title>
<path fill="none" stroke="black" d="M2173.54,-179.12C2173.54,-180.93 2148.89,-182.39 2118.54,-182.39 2088.2,-182.39 2063.54,-180.93 2063.54,-179.12 2063.54,-179.12 2063.54,-149.67 2063.54,-149.67 2063.54,-147.86 2088.2,-146.39 2118.54,-146.39 2148.89,-146.39 2173.54,-147.86 2173.54,-149.67 2173.54,-149.67 2173.54,-179.12 2173.54,-179.12"/>
<path fill="none" stroke="black" d="M2173.54,-179.12C2173.54,-177.31 2148.89,-175.85 2118.54,-175.85 2088.2,-175.85 2063.54,-177.31 2063.54,-179.12"/>
<text text-anchor="middle" x="2118.54" y="-160.69" font-family="Times,serif" font-size="14.00">grafana_data</text>
</g>
<!-- grafana&#45;&gt;grafana_data -->
<g id="edge27" class="edge">
<title>grafana&#45;&gt;grafana_data</title>
<path fill="none" stroke="black" stroke-dasharray="5,2" d="M2120.26,-336.97C2119.88,-298.64 2119.2,-230.57 2118.82,-192.71"/>
<polygon fill="black" stroke="black" points="2116.76,-337.13 2120.36,-347.1 2123.76,-337.06 2116.76,-337.13"/>
<polygon fill="black" stroke="black" points="2122.31,-192.4 2118.71,-182.44 2115.31,-192.47 2122.31,-192.4"/>
<text text-anchor="middle" x="2174.54" y="-261.59" font-family="Times,serif" font-size="14.00">/var/lib/grafana</text>
</g>
<!-- ./grafana/provisioning -->
<g id="node32" class="node">
<title>./grafana/provisioning</title>
<path fill="none" stroke="black" d="M2365.04,-179.12C2365.04,-180.93 2326.27,-182.39 2278.54,-182.39 2230.81,-182.39 2192.04,-180.93 2192.04,-179.12 2192.04,-179.12 2192.04,-149.67 2192.04,-149.67 2192.04,-147.86 2230.81,-146.39 2278.54,-146.39 2326.27,-146.39 2365.04,-147.86 2365.04,-149.67 2365.04,-149.67 2365.04,-179.12 2365.04,-179.12"/>
<path fill="none" stroke="black" d="M2365.04,-179.12C2365.04,-177.31 2326.27,-175.85 2278.54,-175.85 2230.81,-175.85 2192.04,-177.31 2192.04,-179.12"/>
<text text-anchor="middle" x="2278.54" y="-160.69" font-family="Times,serif" font-size="14.00">./grafana/provisioning</text>
</g>
<!-- grafana&#45;&gt;./grafana/provisioning -->
<g id="edge28" class="edge">
<title>grafana&#45;&gt;./grafana/provisioning</title>
<path fill="none" stroke="black" stroke-dasharray="5,2" d="M2158.5,-341.28C2182.61,-324.53 2213.03,-300.28 2233.54,-272.79 2251.79,-248.34 2264.16,-215.4 2271.24,-192.48"/>
<polygon fill="black" stroke="black" points="2156.24,-338.59 2149.93,-347.11 2160.17,-344.38 2156.24,-338.59"/>
<polygon fill="black" stroke="black" points="2274.65,-193.3 2274.13,-182.71 2267.94,-191.31 2274.65,-193.3"/>
<text text-anchor="middle" x="2331.04" y="-261.59" font-family="Times,serif" font-size="14.00">/etc/grafana/provisioning</text>
</g>
<!-- 0.0.0.03001 -->
<g id="node33" class="node">
<title>0.0.0.03001</title>
<ellipse fill="none" stroke="black" cx="2120.54" cy="-562.12" rx="69.59" ry="69.59"/>
<text text-anchor="middle" x="2120.54" y="-558.42" font-family="Times,serif" font-size="14.00">0.0.0.0:3001</text>
</g>
<!-- 0.0.0.03001&#45;&gt;grafana -->
<g id="edge29" class="edge">
<title>0.0.0.03001&#45;&gt;grafana</title>
<path fill="none" stroke="black" d="M2120.54,-492.47C2120.54,-459.1 2120.54,-420.82 2120.54,-395.45"/>
<polygon fill="black" stroke="black" points="2124.04,-395.42 2120.54,-385.42 2117.04,-395.42 2124.04,-395.42"/>
<text text-anchor="middle" x="2139.04" y="-463.37" font-family="Times,serif" font-size="14.00">3000</text>
</g>
</g>
</svg>
