<?xml version="1.0" encoding="UTF-8" standalone="no"?>
<!DOCTYPE svg PUBLIC "-//W3C//DTD SVG 1.1//EN"
 "http://www.w3.org/Graphics/SVG/1.1/DTD/svg11.dtd">
<!-- Generated by graphviz version 2.43.0 (0)
 -->
<!-- Title: %3 Pages: 1 -->
<svg width="3148pt" height="791pt"
 viewBox="0.00 0.00 3148.00 790.66" xmlns="http://www.w3.org/2000/svg" xmlns:xlink="http://www.w3.org/1999/xlink">
<g id="graph0" class="graph" transform="scale(1 1) rotate(0) translate(36 754.66)">
<title>%3</title>
<polygon fill="white" stroke="transparent" points="-36,36 -36,-754.66 3112,-754.66 3112,36 -36,36"/>
<!-- postgres -->
<g id="node1" class="node">
<title>postgres</title>
<polygon fill="none" stroke="black" points="1408,-270.39 1210,-270.39 1210,-266.39 1206,-266.39 1206,-262.39 1210,-262.39 1210,-240.39 1206,-240.39 1206,-236.39 1210,-236.39 1210,-232.39 1408,-232.39 1408,-270.39"/>
<polyline fill="none" stroke="black" points="1210,-266.39 1214,-266.39 1214,-262.39 1210,-262.39 "/>
<polyline fill="none" stroke="black" points="1210,-240.39 1214,-240.39 1214,-236.39 1210,-236.39 "/>
<text text-anchor="middle" x="1309" y="-255.19" font-family="Times,serif" font-size="14.00">postgres</text>
<text text-anchor="middle" x="1309" y="-240.19" font-family="Times,serif" font-size="14.00">(pgvector/pgvector:pg16)</text>
</g>
<!-- amazeeai -->
<g id="node2" class="node">
<title>amazeeai</title>
<polygon fill="none" stroke="black" points="1354.35,-23.56 1265,-36 1175.65,-23.56 1209.78,-3.44 1320.22,-3.44 1354.35,-23.56"/>
<text text-anchor="middle" x="1265" y="-14.3" font-family="Times,serif" font-size="14.00">net:amazeeai</text>
</g>
<!-- postgres&#45;&gt;amazeeai -->
<g id="edge1" class="edge">
<title>postgres&#45;&gt;amazeeai</title>
<path fill="none" stroke="black" d="M1305.55,-232.24C1297.83,-191.63 1279.13,-93.3 1270.08,-45.7"/>
<polygon fill="black" stroke="black" points="1273.5,-44.99 1268.2,-35.82 1266.63,-46.29 1273.5,-44.99"/>
</g>
<!-- postgres_data -->
<g id="node3" class="node">
<title>postgres_data</title>
<path fill="none" stroke="black" d="M1429.5,-120.73C1429.5,-122.53 1403.28,-124 1371,-124 1338.72,-124 1312.5,-122.53 1312.5,-120.73 1312.5,-120.73 1312.5,-91.27 1312.5,-91.27 1312.5,-89.47 1338.72,-88 1371,-88 1403.28,-88 1429.5,-89.47 1429.5,-91.27 1429.5,-91.27 1429.5,-120.73 1429.5,-120.73"/>
<path fill="none" stroke="black" d="M1429.5,-120.73C1429.5,-118.92 1403.28,-117.45 1371,-117.45 1338.72,-117.45 1312.5,-118.92 1312.5,-120.73"/>
<text text-anchor="middle" x="1371" y="-102.3" font-family="Times,serif" font-size="14.00">postgres_data</text>
</g>
<!-- postgres&#45;&gt;postgres_data -->
<g id="edge2" class="edge">
<title>postgres&#45;&gt;postgres_data</title>
<path fill="none" stroke="black" stroke-dasharray="5,2" d="M1302.42,-222.16C1298.68,-199.26 1297.13,-166.97 1311,-143 1313.85,-138.07 1317.67,-133.74 1322.01,-129.95"/>
<polygon fill="black" stroke="black" points="1299.04,-223.08 1304.32,-232.26 1305.92,-221.79 1299.04,-223.08"/>
<polygon fill="black" stroke="black" points="1324.4,-132.53 1330.27,-123.71 1320.18,-126.94 1324.4,-132.53"/>
<text text-anchor="middle" x="1394.5" y="-146.8" font-family="Times,serif" font-size="14.00">/var/lib/postgresql/data</text>
</g>
<!-- 0.0.0.05432 -->
<g id="node4" class="node">
<title>0.0.0.05432</title>
<ellipse fill="none" stroke="black" cx="1309" cy="-453.18" rx="69.59" ry="69.59"/>
<text text-anchor="middle" x="1309" y="-449.48" font-family="Times,serif" font-size="14.00">0.0.0.0:5432</text>
</g>
<!-- 0.0.0.05432&#45;&gt;postgres -->
<g id="edge3" class="edge">
<title>0.0.0.05432&#45;&gt;postgres</title>
<path fill="none" stroke="black" d="M1309,-383.42C1309,-348.31 1309,-307.48 1309,-280.86"/>
<polygon fill="black" stroke="black" points="1312.5,-280.71 1309,-270.71 1305.5,-280.71 1312.5,-280.71"/>
<text text-anchor="middle" x="1327.5" y="-348.59" font-family="Times,serif" font-size="14.00">5432</text>
</g>
<!-- backend -->
<g id="node5" class="node">
<title>backend</title>
<polygon fill="none" stroke="black" points="743.5,-472.18 498.5,-472.18 498.5,-468.18 494.5,-468.18 494.5,-464.18 498.5,-464.18 498.5,-442.18 494.5,-442.18 494.5,-438.18 498.5,-438.18 498.5,-434.18 743.5,-434.18 743.5,-472.18"/>
<polyline fill="none" stroke="black" points="498.5,-468.18 502.5,-468.18 502.5,-464.18 498.5,-464.18 "/>
<polyline fill="none" stroke="black" points="498.5,-442.18 502.5,-442.18 502.5,-438.18 498.5,-438.18 "/>
<text text-anchor="middle" x="621" y="-456.98" font-family="Times,serif" font-size="14.00">backend</text>
<text text-anchor="middle" x="621" y="-441.98" font-family="Times,serif" font-size="14.00">(build from &#39;.&#39; using &#39;Dockerfile&#39;)</text>
</g>
<!-- backend&#45;&gt;postgres -->
<g id="edge7" class="edge">
<title>backend&#45;&gt;postgres</title>
<path fill="none" stroke="black" stroke-dasharray="1,5" d="M648.54,-434.07C675.25,-417.26 717.44,-392.64 757,-377.79 820.5,-353.94 838.87,-354.49 906,-344.79 1020.64,-328.22 1054.5,-358.17 1166,-326.79 1205.13,-315.77 1245.9,-293.3 1273.85,-275.92"/>
<polygon fill="black" stroke="black" points="1275.87,-278.78 1282.46,-270.48 1272.13,-272.87 1275.87,-278.78"/>
</g>
<!-- backend&#45;&gt;amazeeai -->
<g id="edge4" class="edge">
<title>backend&#45;&gt;amazeeai</title>
<path fill="none" stroke="black" d="M614.74,-433.94C595.72,-374.77 545.34,-186.3 638,-87 656.08,-67.62 1005.65,-38.65 1174.8,-25.68"/>
<polygon fill="black" stroke="black" points="1175.24,-29.16 1184.94,-24.91 1174.7,-22.18 1175.24,-29.16"/>
</g>
<!-- ./app -->
<g id="node6" class="node">
<title>./app</title>
<path fill="none" stroke="black" d="M390,-266.12C390,-267.93 377.9,-269.39 363,-269.39 348.1,-269.39 336,-267.93 336,-266.12 336,-266.12 336,-236.67 336,-236.67 336,-234.86 348.1,-233.39 363,-233.39 377.9,-233.39 390,-234.86 390,-236.67 390,-236.67 390,-266.12 390,-266.12"/>
<path fill="none" stroke="black" d="M390,-266.12C390,-264.31 377.9,-262.85 363,-262.85 348.1,-262.85 336,-264.31 336,-266.12"/>
<text text-anchor="middle" x="363" y="-247.69" font-family="Times,serif" font-size="14.00">./app</text>
</g>
<!-- backend&#45;&gt;./app -->
<g id="edge5" class="edge">
<title>backend&#45;&gt;./app</title>
<path fill="none" stroke="black" stroke-dasharray="5,2" d="M561.25,-430.2C512.42,-409.71 444.29,-375.05 399,-326.79 386.27,-313.23 377.21,-294.33 371.35,-278.97"/>
<polygon fill="black" stroke="black" points="560.16,-433.54 570.74,-434.11 562.83,-427.06 560.16,-433.54"/>
<polygon fill="black" stroke="black" points="374.63,-277.73 367.97,-269.48 368.03,-280.08 374.63,-277.73"/>
<text text-anchor="middle" x="466" y="-348.59" font-family="Times,serif" font-size="14.00">/app/app</text>
</g>
<!-- otel&#45;collector -->
<g id="node8" class="node">
<title>otel&#45;collector</title>
<polygon fill="none" stroke="black" points="1157.5,-270.39 828.5,-270.39 828.5,-266.39 824.5,-266.39 824.5,-262.39 828.5,-262.39 828.5,-240.39 824.5,-240.39 824.5,-236.39 828.5,-236.39 828.5,-232.39 1157.5,-232.39 1157.5,-270.39"/>
<polyline fill="none" stroke="black" points="828.5,-266.39 832.5,-266.39 832.5,-262.39 828.5,-262.39 "/>
<polyline fill="none" stroke="black" points="828.5,-240.39 832.5,-240.39 832.5,-236.39 828.5,-236.39 "/>
<text text-anchor="middle" x="993" y="-255.19" font-family="Times,serif" font-size="14.00">otel&#45;collector</text>
<text text-anchor="middle" x="993" y="-240.19" font-family="Times,serif" font-size="14.00">(otel/opentelemetry&#45;collector&#45;contrib:latest)</text>
</g>
<!-- backend&#45;&gt;otel&#45;collector -->
<g id="edge8" class="edge">
<title>backend&#45;&gt;otel&#45;collector</title>
<path fill="none" stroke="black" stroke-dasharray="1,5" d="M638.95,-434.15C663.3,-410.61 709.05,-369.49 755,-344.79 778.03,-332.41 786.44,-335.74 811,-326.79 855.75,-310.48 905.79,-289.85 942.05,-274.45"/>
<polygon fill="black" stroke="black" points="943.6,-277.59 951.43,-270.45 940.86,-271.15 943.6,-277.59"/>
</g>
<!-- 0.0.0.08800 -->
<g id="node7" class="node">
<title>0.0.0.08800</title>
<ellipse fill="none" stroke="black" cx="621" cy="-649.12" rx="69.59" ry="69.59"/>
<text text-anchor="middle" x="621" y="-645.42" font-family="Times,serif" font-size="14.00">0.0.0.0:8800</text>
</g>
<!-- 0.0.0.08800&#45;&gt;backend -->
<g id="edge6" class="edge">
<title>0.0.0.08800&#45;&gt;backend</title>
<path fill="none" stroke="black" d="M621,-579.47C621,-546.1 621,-507.82 621,-482.45"/>
<polygon fill="black" stroke="black" points="624.5,-482.42 621,-472.42 617.5,-482.42 624.5,-482.42"/>
<text text-anchor="middle" x="639.5" y="-550.37" font-family="Times,serif" font-size="14.00">8800</text>
</g>
<!-- otel&#45;collector&#45;&gt;amazeeai -->
<g id="edge18" class="edge">
<title>otel&#45;collector&#45;&gt;amazeeai</title>
<path fill="none" stroke="black" d="M1052.26,-232.32C1104.9,-213.44 1180.5,-178.93 1227,-125 1246.48,-102.4 1256.24,-69.07 1260.95,-45.84"/>
<polygon fill="black" stroke="black" points="1264.4,-46.42 1262.77,-35.95 1257.51,-45.15 1264.4,-46.42"/>
</g>
<!-- ./otel&#45;collector&#45;config.yaml -->
<g id="node18" class="node">
<title>./otel&#45;collector&#45;config.yaml</title>
<path fill="none" stroke="black" d="M852.5,-120.73C852.5,-122.53 806.56,-124 750,-124 693.44,-124 647.5,-122.53 647.5,-120.73 647.5,-120.73 647.5,-91.27 647.5,-91.27 647.5,-89.47 693.44,-88 750,-88 806.56,-88 852.5,-89.47 852.5,-91.27 852.5,-91.27 852.5,-120.73 852.5,-120.73"/>
<path fill="none" stroke="black" d="M852.5,-120.73C852.5,-118.92 806.56,-117.45 750,-117.45 693.44,-117.45 647.5,-118.92 647.5,-120.73"/>
<text text-anchor="middle" x="750" y="-102.3" font-family="Times,serif" font-size="14.00">./otel&#45;collector&#45;config.yaml</text>
</g>
<!-- otel&#45;collector&#45;&gt;./otel&#45;collector&#45;config.yaml -->
<g id="edge19" class="edge">
<title>otel&#45;collector&#45;&gt;./otel&#45;collector&#45;config.yaml</title>
<path fill="none" stroke="black" stroke-dasharray="5,2" d="M953.5,-227.08C907.75,-200.09 832.93,-155.93 787.88,-129.35"/>
<polygon fill="black" stroke="black" points="951.83,-230.16 962.22,-232.23 955.39,-224.14 951.83,-230.16"/>
<polygon fill="black" stroke="black" points="789.4,-126.19 779.01,-124.12 785.85,-132.22 789.4,-126.19"/>
<text text-anchor="middle" x="941.5" y="-146.8" font-family="Times,serif" font-size="14.00">/etc/otel&#45;collector&#45;config.yaml</text>
</g>
<!-- jaeger -->
<g id="node22" class="node">
<title>jaeger</title>
<polygon fill="none" stroke="black" points="1218,-125 1000,-125 1000,-121 996,-121 996,-117 1000,-117 1000,-95 996,-95 996,-91 1000,-91 1000,-87 1218,-87 1218,-125"/>
<polyline fill="none" stroke="black" points="1000,-121 1004,-121 1004,-117 1000,-117 "/>
<polyline fill="none" stroke="black" points="1000,-95 1004,-95 1004,-91 1000,-91 "/>
<text text-anchor="middle" x="1109" y="-109.8" font-family="Times,serif" font-size="14.00">jaeger</text>
<text text-anchor="middle" x="1109" y="-94.8" font-family="Times,serif" font-size="14.00">(jaegertracing/jaeger:latest)</text>
</g>
<!-- otel&#45;collector&#45;&gt;jaeger -->
<g id="edge23" class="edge">
<title>otel&#45;collector&#45;&gt;jaeger</title>
<path fill="none" stroke="black" stroke-dasharray="1,5" d="M1007.69,-232.23C1028,-207.13 1064.77,-161.68 1087.98,-132.99"/>
<polygon fill="black" stroke="black" points="1090.86,-134.99 1094.43,-125.01 1085.42,-130.59 1090.86,-134.99"/>
</g>
<!-- frontend -->
<g id="node9" class="node">
<title>frontend</title>
<polygon fill="none" stroke="black" points="590.5,-125 279.5,-125 279.5,-121 275.5,-121 275.5,-117 279.5,-117 279.5,-95 275.5,-95 275.5,-91 279.5,-91 279.5,-87 590.5,-87 590.5,-125"/>
<polyline fill="none" stroke="black" points="279.5,-121 283.5,-121 283.5,-117 279.5,-117 "/>
<polyline fill="none" stroke="black" points="279.5,-95 283.5,-95 283.5,-91 279.5,-91 "/>
<text text-anchor="middle" x="435" y="-109.8" font-family="Times,serif" font-size="14.00">frontend</text>
<text text-anchor="middle" x="435" y="-94.8" font-family="Times,serif" font-size="14.00">(build from &#39;./frontend&#39; using &#39;Dockerfile&#39;)</text>
</g>
<!-- frontend&#45;&gt;amazeeai -->
<g id="edge9" class="edge">
<title>frontend&#45;&gt;amazeeai</title>
<path fill="none" stroke="black" d="M483.33,-87C516.95,-75.35 563.07,-61.09 605,-54 787.04,-23.24 835.67,-46.39 1020,-36 1071.66,-33.09 1129.39,-29.12 1175.83,-25.75"/>
<polygon fill="black" stroke="black" points="1176.15,-29.23 1185.87,-25.01 1175.64,-22.25 1176.15,-29.23"/>
</g>
<!-- ./frontend -->
<g id="node10" class="node">
<title>./frontend</title>
<path fill="none" stroke="black" d="M478.5,-32.73C478.5,-34.53 459,-36 435,-36 411,-36 391.5,-34.53 391.5,-32.73 391.5,-32.73 391.5,-3.27 391.5,-3.27 391.5,-1.47 411,0 435,0 459,0 478.5,-1.47 478.5,-3.27 478.5,-3.27 478.5,-32.73 478.5,-32.73"/>
<path fill="none" stroke="black" d="M478.5,-32.73C478.5,-30.92 459,-29.45 435,-29.45 411,-29.45 391.5,-30.92 391.5,-32.73"/>
<text text-anchor="middle" x="435" y="-14.3" font-family="Times,serif" font-size="14.00">./frontend</text>
</g>
<!-- frontend&#45;&gt;./frontend -->
<g id="edge10" class="edge">
<title>frontend&#45;&gt;./frontend</title>
<path fill="none" stroke="black" stroke-dasharray="5,2" d="M435,-76.58C435,-66.83 435,-55.95 435,-46.3"/>
<polygon fill="black" stroke="black" points="431.5,-76.76 435,-86.76 438.5,-76.76 431.5,-76.76"/>
<polygon fill="black" stroke="black" points="438.5,-46.04 435,-36.04 431.5,-46.04 438.5,-46.04"/>
<text text-anchor="middle" x="450.5" y="-57.8" font-family="Times,serif" font-size="14.00">/app</text>
</g>
<!-- 0.0.0.03000 -->
<g id="node11" class="node">
<title>0.0.0.03000</title>
<ellipse fill="none" stroke="black" cx="478" cy="-251.39" rx="69.59" ry="69.59"/>
<text text-anchor="middle" x="478" y="-247.69" font-family="Times,serif" font-size="14.00">0.0.0.0:3000</text>
</g>
<!-- 0.0.0.03000&#45;&gt;frontend -->
<g id="edge11" class="edge">
<title>0.0.0.03000&#45;&gt;frontend</title>
<path fill="none" stroke="black" d="M458.26,-184.57C453,-167.04 447.6,-149.03 443.33,-134.78"/>
<polygon fill="black" stroke="black" points="446.66,-133.71 440.44,-125.13 439.96,-135.72 446.66,-133.71"/>
<text text-anchor="middle" x="469.5" y="-146.8" font-family="Times,serif" font-size="14.00">3000</text>
</g>
<!-- ollama -->
<g id="node12" class="node">
<title>ollama</title>
<polygon fill="none" stroke="black" points="261.5,-125 90.5,-125 90.5,-121 86.5,-121 86.5,-117 90.5,-117 90.5,-95 86.5,-95 86.5,-91 90.5,-91 90.5,-87 261.5,-87 261.5,-125"/>
<polyline fill="none" stroke="black" points="90.5,-121 94.5,-121 94.5,-117 90.5,-117 "/>
<polyline fill="none" stroke="black" points="90.5,-95 94.5,-95 94.5,-91 90.5,-91 "/>
<text text-anchor="middle" x="176" y="-109.8" font-family="Times,serif" font-size="14.00">ollama</text>
<text text-anchor="middle" x="176" y="-94.8" font-family="Times,serif" font-size="14.00">(ollama/ollama:latest)</text>
</g>
<!-- ollama&#45;&gt;amazeeai -->
<g id="edge12" class="edge">
<title>ollama&#45;&gt;amazeeai</title>
<path fill="none" stroke="black" d="M261.54,-88.53C264.39,-88.01 267.22,-87.5 270,-87 317.46,-78.46 329.93,-79.47 377,-69 401.31,-63.59 406.37,-57.74 431,-54 560.46,-34.33 889.21,-42.53 1020,-36 1072.07,-33.4 1130.29,-29.4 1176.91,-25.94"/>
<polygon fill="black" stroke="black" points="1177.27,-29.42 1186.98,-25.19 1176.75,-22.44 1177.27,-29.42"/>
</g>
<!-- ollama_data -->
<g id="node13" class="node">
<title>ollama_data</title>
<path fill="none" stroke="black" d="M102,-32.73C102,-34.53 79.14,-36 51,-36 22.86,-36 0,-34.53 0,-32.73 0,-32.73 0,-3.27 0,-3.27 0,-1.47 22.86,0 51,0 79.14,0 102,-1.47 102,-3.27 102,-3.27 102,-32.73 102,-32.73"/>
<path fill="none" stroke="black" d="M102,-32.73C102,-30.92 79.14,-29.45 51,-29.45 22.86,-29.45 0,-30.92 0,-32.73"/>
<text text-anchor="middle" x="51" y="-14.3" font-family="Times,serif" font-size="14.00">ollama_data</text>
</g>
<!-- ollama&#45;&gt;ollama_data -->
<g id="edge13" class="edge">
<title>ollama&#45;&gt;ollama_data</title>
<path fill="none" stroke="black" stroke-dasharray="5,2" d="M104.75,-82.36C97.37,-78.51 90.28,-74.08 84,-69 76.04,-62.56 69.33,-53.69 64.07,-45.2"/>
<polygon fill="black" stroke="black" points="103.69,-85.73 114.22,-86.93 106.73,-79.43 103.69,-85.73"/>
<polygon fill="black" stroke="black" points="66.97,-43.21 58.96,-36.27 60.89,-46.69 66.97,-43.21"/>
<text text-anchor="middle" x="129.5" y="-57.8" font-family="Times,serif" font-size="14.00">/root/.ollama</text>
</g>
<!-- ./ollama&#45;init.sh -->
<g id="node14" class="node">
<title>./ollama&#45;init.sh</title>
<path fill="none" stroke="black" d="M242,-32.73C242,-34.53 214.66,-36 181,-36 147.34,-36 120,-34.53 120,-32.73 120,-32.73 120,-3.27 120,-3.27 120,-1.47 147.34,0 181,0 214.66,0 242,-1.47 242,-3.27 242,-3.27 242,-32.73 242,-32.73"/>
<path fill="none" stroke="black" d="M242,-32.73C242,-30.92 214.66,-29.45 181,-29.45 147.34,-29.45 120,-30.92 120,-32.73"/>
<text text-anchor="middle" x="181" y="-14.3" font-family="Times,serif" font-size="14.00">./ollama&#45;init.sh</text>
</g>
<!-- ollama&#45;&gt;./ollama&#45;init.sh -->
<g id="edge14" class="edge">
<title>ollama&#45;&gt;./ollama&#45;init.sh</title>
<path fill="none" stroke="black" stroke-dasharray="5,2" d="M177.65,-76.58C178.22,-66.83 178.85,-55.95 179.41,-46.3"/>
<polygon fill="black" stroke="black" points="174.15,-76.58 177.06,-86.76 181.13,-76.98 174.15,-76.58"/>
<polygon fill="black" stroke="black" points="182.92,-46.23 180.01,-36.04 175.93,-45.82 182.92,-46.23"/>
<text text-anchor="middle" x="276" y="-57.8" font-family="Times,serif" font-size="14.00">/usr/local/bin/ollama&#45;init.sh</text>
</g>
<!-- 0.0.0.011434 -->
<g id="node15" class="node">
<title>0.0.0.011434</title>
<ellipse fill="none" stroke="black" cx="176" cy="-251.39" rx="75.29" ry="75.29"/>
<text text-anchor="middle" x="176" y="-247.69" font-family="Times,serif" font-size="14.00">0.0.0.0:11434</text>
</g>
<!-- 0.0.0.011434&#45;&gt;ollama -->
<g id="edge15" class="edge">
<title>0.0.0.011434&#45;&gt;ollama</title>
<path fill="none" stroke="black" d="M176,-175.76C176,-161.27 176,-146.95 176,-135.15"/>
<polygon fill="black" stroke="black" points="179.5,-135.1 176,-125.1 172.5,-135.1 179.5,-135.1"/>
<text text-anchor="middle" x="199" y="-146.8" font-family="Times,serif" font-size="14.00">11434</text>
</g>
<!-- litellm_db -->
<g id="node16" class="node">
<title>litellm_db</title>
<polygon fill="none" stroke="black" points="982,-125 870,-125 870,-121 866,-121 866,-117 870,-117 870,-95 866,-95 866,-91 870,-91 870,-87 982,-87 982,-125"/>
<polyline fill="none" stroke="black" points="870,-121 874,-121 874,-117 870,-117 "/>
<polyline fill="none" stroke="black" points="870,-95 874,-95 874,-91 870,-91 "/>
<text text-anchor="middle" x="926" y="-109.8" font-family="Times,serif" font-size="14.00">litellm_db</text>
<text text-anchor="middle" x="926" y="-94.8" font-family="Times,serif" font-size="14.00">(postgres:16)</text>
</g>
<!-- litellm_db&#45;&gt;amazeeai -->
<g id="edge16" class="edge">
<title>litellm_db&#45;&gt;amazeeai</title>
<path fill="none" stroke="black" d="M982.28,-89.04C985.22,-88.32 988.14,-87.64 991,-87 1037.64,-76.61 1050.46,-79.84 1097,-69 1138.95,-59.23 1185.86,-44.98 1219.43,-34.19"/>
<polygon fill="black" stroke="black" points="1220.53,-37.52 1228.96,-31.11 1218.37,-30.86 1220.53,-37.52"/>
</g>
<!-- litellm_postgres_data -->
<g id="node17" class="node">
<title>litellm_postgres_data</title>
<path fill="none" stroke="black" d="M1011,-32.73C1011,-34.53 972.9,-36 926,-36 879.1,-36 841,-34.53 841,-32.73 841,-32.73 841,-3.27 841,-3.27 841,-1.47 879.1,0 926,0 972.9,0 1011,-1.47 1011,-3.27 1011,-3.27 1011,-32.73 1011,-32.73"/>
<path fill="none" stroke="black" d="M1011,-32.73C1011,-30.92 972.9,-29.45 926,-29.45 879.1,-29.45 841,-30.92 841,-32.73"/>
<text text-anchor="middle" x="926" y="-14.3" font-family="Times,serif" font-size="14.00">litellm_postgres_data</text>
</g>
<!-- litellm_db&#45;&gt;litellm_postgres_data -->
<g id="edge17" class="edge">
<title>litellm_db&#45;&gt;litellm_postgres_data</title>
<path fill="none" stroke="black" stroke-dasharray="5,2" d="M926,-76.58C926,-66.83 926,-55.95 926,-46.3"/>
<polygon fill="black" stroke="black" points="922.5,-76.76 926,-86.76 929.5,-76.76 922.5,-76.76"/>
<polygon fill="black" stroke="black" points="929.5,-46.04 926,-36.04 922.5,-46.04 929.5,-46.04"/>
<text text-anchor="middle" x="1009.5" y="-57.8" font-family="Times,serif" font-size="14.00">/var/lib/postgresql/data</text>
</g>
<!-- 0.0.0.04317 -->
<g id="node19" class="node">
<title>0.0.0.04317</title>
<ellipse fill="none" stroke="black" cx="836" cy="-453.18" rx="69.59" ry="69.59"/>
<text text-anchor="middle" x="836" y="-449.48" font-family="Times,serif" font-size="14.00">0.0.0.0:4317</text>
</g>
<!-- 0.0.0.04317&#45;&gt;otel&#45;collector -->
<g id="edge20" class="edge">
<title>0.0.0.04317&#45;&gt;otel&#45;collector</title>
<path fill="none" stroke="black" d="M878.49,-398.11C909.03,-359.24 948.87,-308.55 972.6,-278.35"/>
<polygon fill="black" stroke="black" points="975.42,-280.42 978.85,-270.4 969.92,-276.1 975.42,-280.42"/>
<text text-anchor="middle" x="938.5" y="-348.59" font-family="Times,serif" font-size="14.00">4317</text>
</g>
<!-- 0.0.0.04318 -->
<g id="node20" class="node">
<title>0.0.0.04318</title>
<ellipse fill="none" stroke="black" cx="993" cy="-453.18" rx="69.59" ry="69.59"/>
<text text-anchor="middle" x="993" y="-449.48" font-family="Times,serif" font-size="14.00">0.0.0.0:4318</text>
</g>
<!-- 0.0.0.04318&#45;&gt;otel&#45;collector -->
<g id="edge21" class="edge">
<title>0.0.0.04318&#45;&gt;otel&#45;collector</title>
<path fill="none" stroke="black" d="M993,-383.42C993,-348.31 993,-307.48 993,-280.86"/>
<polygon fill="black" stroke="black" points="996.5,-280.71 993,-270.71 989.5,-280.71 996.5,-280.71"/>
<text text-anchor="middle" x="1011.5" y="-348.59" font-family="Times,serif" font-size="14.00">4318</text>
</g>
<!-- 0.0.0.08889 -->
<g id="node21" class="node">
<title>0.0.0.08889</title>
<ellipse fill="none" stroke="black" cx="1150" cy="-453.18" rx="69.59" ry="69.59"/>
<text text-anchor="middle" x="1150" y="-449.48" font-family="Times,serif" font-size="14.00">0.0.0.0:8889</text>
</g>
<!-- 0.0.0.08889&#45;&gt;otel&#45;collector -->
<g id="edge22" class="edge">
<title>0.0.0.08889&#45;&gt;otel&#45;collector</title>
<path fill="none" stroke="black" d="M1107.51,-398.11C1076.97,-359.24 1037.13,-308.55 1013.4,-278.35"/>
<polygon fill="black" stroke="black" points="1016.08,-276.1 1007.15,-270.4 1010.58,-280.42 1016.08,-276.1"/>
<text text-anchor="middle" x="1095.5" y="-348.59" font-family="Times,serif" font-size="14.00">8889</text>
</g>
<!-- jaeger&#45;&gt;amazeeai -->
<g id="edge24" class="edge">
<title>jaeger&#45;&gt;amazeeai</title>
<path fill="none" stroke="black" d="M1141.7,-86.97C1167.92,-72.52 1204.58,-52.31 1231.1,-37.69"/>
<polygon fill="black" stroke="black" points="1232.96,-40.66 1240.03,-32.77 1229.58,-34.53 1232.96,-40.66"/>
</g>
<!-- 0.0.0.016686 -->
<g id="node23" class="node">
<title>0.0.0.016686</title>
<ellipse fill="none" stroke="black" cx="727" cy="-251.39" rx="75.29" ry="75.29"/>
<text text-anchor="middle" x="727" y="-247.69" font-family="Times,serif" font-size="14.00">0.0.0.0:16686</text>
</g>
<!-- 0.0.0.016686&#45;&gt;jaeger -->
<g id="edge25" class="edge">
<title>0.0.0.016686&#45;&gt;jaeger</title>
<path fill="none" stroke="black" d="M740.88,-177.12C746.59,-163.94 754.64,-151.66 766,-143 784.43,-128.96 939.57,-127.97 989.64,-124.79"/>
<polygon fill="black" stroke="black" points="990.07,-128.26 999.75,-123.95 989.49,-121.29 990.07,-128.26"/>
<text text-anchor="middle" x="789" y="-146.8" font-family="Times,serif" font-size="14.00">16686</text>
</g>
<!-- grafana -->
<g id="node24" class="node">
<title>grafana</title>
<polygon fill="none" stroke="black" points="2923,-125 2737,-125 2737,-121 2733,-121 2733,-117 2737,-117 2737,-95 2733,-95 2733,-91 2737,-91 2737,-87 2923,-87 2923,-125"/>
<polyline fill="none" stroke="black" points="2737,-121 2741,-121 2741,-117 2737,-117 "/>
<polyline fill="none" stroke="black" points="2737,-95 2741,-95 2741,-91 2737,-91 "/>
<text text-anchor="middle" x="2830" y="-109.8" font-family="Times,serif" font-size="14.00">grafana</text>
<text text-anchor="middle" x="2830" y="-94.8" font-family="Times,serif" font-size="14.00">(grafana/grafana:latest)</text>
</g>
<!-- grafana&#45;&gt;amazeeai -->
<g id="edge26" class="edge">
<title>grafana&#45;&gt;amazeeai</title>
<path fill="none" stroke="black" d="M2736.71,-89.88C2728.37,-88.8 2720.04,-87.81 2712,-87 2202.57,-35.43 1588.2,-22.88 1358.03,-19.9"/>
<polygon fill="black" stroke="black" points="1358.07,-16.4 1348.02,-19.77 1357.98,-23.4 1358.07,-16.4"/>
</g>
<!-- grafana_data -->
<g id="node25" class="node">
<title>grafana_data</title>
<path fill="none" stroke="black" d="M2805,-32.73C2805,-34.53 2780.35,-36 2750,-36 2719.65,-36 2695,-34.53 2695,-32.73 2695,-32.73 2695,-3.27 2695,-3.27 2695,-1.47 2719.65,0 2750,0 2780.35,0 2805,-1.47 2805,-3.27 2805,-3.27 2805,-32.73 2805,-32.73"/>
<path fill="none" stroke="black" d="M2805,-32.73C2805,-30.92 2780.35,-29.45 2750,-29.45 2719.65,-29.45 2695,-30.92 2695,-32.73"/>
<text text-anchor="middle" x="2750" y="-14.3" font-family="Times,serif" font-size="14.00">grafana_data</text>
</g>
<!-- grafana&#45;&gt;grafana_data -->
<g id="edge27" class="edge">
<title>grafana&#45;&gt;grafana_data</title>
<path fill="none" stroke="black" stroke-dasharray="5,2" d="M2790.68,-80.74C2786.14,-77.1 2781.79,-73.16 2778,-69 2771.75,-62.12 2766.33,-53.6 2761.97,-45.56"/>
<polygon fill="black" stroke="black" points="2788.88,-83.76 2798.98,-86.95 2793.07,-78.16 2788.88,-83.76"/>
<polygon fill="black" stroke="black" points="2765,-43.79 2757.35,-36.46 2758.75,-46.96 2765,-43.79"/>
<text text-anchor="middle" x="2833" y="-57.8" font-family="Times,serif" font-size="14.00">/var/lib/grafana</text>
</g>
<!-- ./grafana/provisioning -->
<g id="node26" class="node">
<title>./grafana/provisioning</title>
<path fill="none" stroke="black" d="M2996.5,-32.73C2996.5,-34.53 2957.73,-36 2910,-36 2862.27,-36 2823.5,-34.53 2823.5,-32.73 2823.5,-32.73 2823.5,-3.27 2823.5,-3.27 2823.5,-1.47 2862.27,0 2910,0 2957.73,0 2996.5,-1.47 2996.5,-3.27 2996.5,-3.27 2996.5,-32.73 2996.5,-32.73"/>
<path fill="none" stroke="black" d="M2996.5,-32.73C2996.5,-30.92 2957.73,-29.45 2910,-29.45 2862.27,-29.45 2823.5,-30.92 2823.5,-32.73"/>
<text text-anchor="middle" x="2910" y="-14.3" font-family="Times,serif" font-size="14.00">./grafana/provisioning</text>
</g>
<!-- grafana&#45;&gt;./grafana/provisioning -->
<g id="edge28" class="edge">
<title>grafana&#45;&gt;./grafana/provisioning</title>
<path fill="none" stroke="black" stroke-dasharray="5,2" d="M2874.88,-81.13C2879.66,-77.46 2884.17,-73.41 2888,-69 2893.83,-62.28 2898.35,-53.77 2901.72,-45.68"/>
<polygon fill="black" stroke="black" points="2872.81,-78.3 2866.64,-86.92 2876.83,-84.03 2872.81,-78.3"/>
<polygon fill="black" stroke="black" points="2905.05,-46.77 2905.29,-36.17 2898.5,-44.31 2905.05,-46.77"/>
<text text-anchor="middle" x="2986.5" y="-57.8" font-family="Times,serif" font-size="14.00">/etc/grafana/provisioning</text>
</g>
<!-- 0.0.0.03001 -->
<g id="node27" class="node">
<title>0.0.0.03001</title>
<ellipse fill="none" stroke="black" cx="2846" cy="-251.39" rx="69.59" ry="69.59"/>
<text text-anchor="middle" x="2846" y="-247.69" font-family="Times,serif" font-size="14.00">0.0.0.0:3001</text>
</g>
<!-- 0.0.0.03001&#45;&gt;grafana -->
<g id="edge29" class="edge">
<title>0.0.0.03001&#45;&gt;grafana</title>
<path fill="none" stroke="black" d="M2838.37,-182.06C2836.53,-165.55 2834.66,-148.81 2833.16,-135.33"/>
<polygon fill="black" stroke="black" points="2836.63,-134.85 2832.04,-125.3 2829.67,-135.62 2836.63,-134.85"/>
<text text-anchor="middle" x="2853.5" y="-146.8" font-family="Times,serif" font-size="14.00">3000</text>
</g>
<!-- openmeter -->
<g id="node28" class="node">
<title>openmeter</title>
<polygon fill="none" stroke="black" points="1743,-472.18 1447,-472.18 1447,-468.18 1443,-468.18 1443,-464.18 1447,-464.18 1447,-442.18 1443,-442.18 1443,-438.18 1447,-438.18 1447,-434.18 1743,-434.18 1743,-472.18"/>
<polyline fill="none" stroke="black" points="1447,-468.18 1451,-468.18 1451,-464.18 1447,-464.18 "/>
<polyline fill="none" stroke="black" points="1447,-442.18 1451,-442.18 1451,-438.18 1447,-438.18 "/>
<text text-anchor="middle" x="1595" y="-456.98" font-family="Times,serif" font-size="14.00">openmeter</text>
<text text-anchor="middle" x="1595" y="-441.98" font-family="Times,serif" font-size="14.00">(ghcr.io/openmeterio/openmeter:latest)</text>
</g>
<!-- openmeter&#45;&gt;postgres -->
<g id="edge34" class="edge">
<title>openmeter&#45;&gt;postgres</title>
<path fill="none" stroke="black" stroke-dasharray="1,5" d="M1569.11,-434.1C1517.45,-398.01 1401.54,-317.04 1343.5,-276.49"/>
<polygon fill="black" stroke="black" points="1345.23,-273.44 1335.03,-270.58 1341.23,-279.17 1345.23,-273.44"/>
</g>
<!-- openmeter&#45;&gt;amazeeai -->
<g id="edge30" class="edge">
<title>openmeter&#45;&gt;amazeeai</title>
<path fill="none" stroke="black" d="M1579.26,-434.04C1560,-410.81 1527.88,-368.57 1511,-326.79 1469.32,-223.62 1526.39,-155.88 1439,-87 1404.77,-60.02 1358.54,-42.63 1322.33,-32.2"/>
<polygon fill="black" stroke="black" points="1322.98,-28.74 1312.41,-29.43 1321.1,-35.49 1322.98,-28.74"/>
</g>
<!-- ./openmeter&#45;config.yml -->
<g id="node29" class="node">
<title>./openmeter&#45;config.yml</title>
<path fill="none" stroke="black" d="M1858.5,-266.12C1858.5,-267.93 1817.94,-269.39 1768,-269.39 1718.06,-269.39 1677.5,-267.93 1677.5,-266.12 1677.5,-266.12 1677.5,-236.67 1677.5,-236.67 1677.5,-234.86 1718.06,-233.39 1768,-233.39 1817.94,-233.39 1858.5,-234.86 1858.5,-236.67 1858.5,-236.67 1858.5,-266.12 1858.5,-266.12"/>
<path fill="none" stroke="black" d="M1858.5,-266.12C1858.5,-264.31 1817.94,-262.85 1768,-262.85 1718.06,-262.85 1677.5,-264.31 1677.5,-266.12"/>
<text text-anchor="middle" x="1768" y="-247.69" font-family="Times,serif" font-size="14.00">./openmeter&#45;config.yml</text>
</g>
<!-- openmeter&#45;&gt;./openmeter&#45;config.yml -->
<g id="edge31" class="edge">
<title>openmeter&#45;&gt;./openmeter&#45;config.yml</title>
<path fill="none" stroke="black" stroke-dasharray="5,2" d="M1617.37,-426.34C1650.77,-387.77 1713.27,-315.6 1746.28,-277.48"/>
<polygon fill="black" stroke="black" points="1614.56,-424.25 1610.66,-434.1 1619.85,-428.83 1614.56,-424.25"/>
<polygon fill="black" stroke="black" points="1749.34,-279.29 1753.24,-269.44 1744.05,-274.71 1749.34,-279.29"/>
<text text-anchor="middle" x="1745" y="-348.59" font-family="Times,serif" font-size="14.00">/app/config.yaml</text>
</g>
<!-- clickhouse -->
<g id="node32" class="node">
<title>clickhouse</title>
<polygon fill="none" stroke="black" points="2422.5,-270.39 2147.5,-270.39 2147.5,-266.39 2143.5,-266.39 2143.5,-262.39 2147.5,-262.39 2147.5,-240.39 2143.5,-240.39 2143.5,-236.39 2147.5,-236.39 2147.5,-232.39 2422.5,-232.39 2422.5,-270.39"/>
<polyline fill="none" stroke="black" points="2147.5,-266.39 2151.5,-266.39 2151.5,-262.39 2147.5,-262.39 "/>
<polyline fill="none" stroke="black" points="2147.5,-240.39 2151.5,-240.39 2151.5,-236.39 2147.5,-236.39 "/>
<text text-anchor="middle" x="2285" y="-255.19" font-family="Times,serif" font-size="14.00">clickhouse</text>
<text text-anchor="middle" x="2285" y="-240.19" font-family="Times,serif" font-size="14.00">(clickhouse/clickhouse&#45;server:latest)</text>
</g>
<!-- openmeter&#45;&gt;clickhouse -->
<g id="edge35" class="edge">
<title>openmeter&#45;&gt;clickhouse</title>
<path fill="none" stroke="black" stroke-dasharray="1,5" d="M1627.48,-434.15C1658.62,-417.51 1707.36,-393.12 1752,-377.79 1753.99,-377.1 1897.92,-345.11 1900,-344.79 1992.15,-330.61 2018.5,-349.21 2109,-326.79 2156.29,-315.07 2207.25,-292.31 2242.1,-275.03"/>
<polygon fill="black" stroke="black" points="2243.68,-278.16 2251.05,-270.55 2240.54,-271.9 2243.68,-278.16"/>
</g>
<!-- kafka -->
<g id="node33" class="node">
<title>kafka</title>
<polygon fill="none" stroke="black" points="2099.5,-270.39 1876.5,-270.39 1876.5,-266.39 1872.5,-266.39 1872.5,-262.39 1876.5,-262.39 1876.5,-240.39 1872.5,-240.39 1872.5,-236.39 1876.5,-236.39 1876.5,-232.39 2099.5,-232.39 2099.5,-270.39"/>
<polyline fill="none" stroke="black" points="1876.5,-266.39 1880.5,-266.39 1880.5,-262.39 1876.5,-262.39 "/>
<polyline fill="none" stroke="black" points="1876.5,-240.39 1880.5,-240.39 1880.5,-236.39 1876.5,-236.39 "/>
<text text-anchor="middle" x="1988" y="-255.19" font-family="Times,serif" font-size="14.00">kafka</text>
<text text-anchor="middle" x="1988" y="-240.19" font-family="Times,serif" font-size="14.00">(confluentinc/cp&#45;kafka:latest)</text>
</g>
<!-- openmeter&#45;&gt;kafka -->
<g id="edge36" class="edge">
<title>openmeter&#45;&gt;kafka</title>
<path fill="none" stroke="black" stroke-dasharray="1,5" d="M1629.98,-434.04C1661.43,-418.11 1709.13,-394.88 1752,-377.79 1775.89,-368.26 1783.37,-369.95 1807,-359.79 1808.77,-359.03 1866.33,-327.75 1868,-326.79 1896.21,-310.43 1927.49,-290.99 1951.05,-276.08"/>
<polygon fill="black" stroke="black" points="1953.11,-278.92 1959.68,-270.61 1949.36,-273.01 1953.11,-278.92"/>
</g>
<!-- 0.0.0.08888 -->
<g id="node30" class="node">
<title>0.0.0.08888</title>
<ellipse fill="none" stroke="black" cx="1673" cy="-649.12" rx="69.59" ry="69.59"/>
<text text-anchor="middle" x="1673" y="-645.42" font-family="Times,serif" font-size="14.00">0.0.0.0:8888</text>
</g>
<!-- 0.0.0.08888&#45;&gt;openmeter -->
<g id="edge32" class="edge">
<title>0.0.0.08888&#45;&gt;openmeter</title>
<path fill="none" stroke="black" d="M1647.35,-584.35C1633.41,-549.69 1616.89,-508.6 1606.19,-482"/>
<polygon fill="black" stroke="black" points="1609.37,-480.52 1602.39,-472.55 1602.87,-483.14 1609.37,-480.52"/>
<text text-anchor="middle" x="1654.5" y="-550.37" font-family="Times,serif" font-size="14.00">8888</text>
</g>
<!-- 0.0.0.08890 -->
<g id="node31" class="node">
<title>0.0.0.08890</title>
<ellipse fill="none" stroke="black" cx="1516" cy="-649.12" rx="69.59" ry="69.59"/>
<text text-anchor="middle" x="1516" y="-645.42" font-family="Times,serif" font-size="14.00">0.0.0.0:8890</text>
</g>
<!-- 0.0.0.08890&#45;&gt;openmeter -->
<g id="edge33" class="edge">
<title>0.0.0.08890&#45;&gt;openmeter</title>
<path fill="none" stroke="black" d="M1541.98,-584.35C1556.09,-549.69 1572.83,-508.6 1583.67,-482"/>
<polygon fill="black" stroke="black" points="1586.99,-483.13 1587.52,-472.55 1580.5,-480.49 1586.99,-483.13"/>
<text text-anchor="middle" x="1573.5" y="-550.37" font-family="Times,serif" font-size="14.00">8889</text>
</g>
<!-- clickhouse&#45;&gt;amazeeai -->
<g id="edge37" class="edge">
<title>clickhouse&#45;&gt;amazeeai</title>
<path fill="none" stroke="black" d="M2252.05,-232.28C2177.94,-191.67 2002.33,-96.17 1973,-87 1861.9,-52.28 1530.47,-31.82 1363.48,-23.45"/>
<polygon fill="black" stroke="black" points="1363.61,-19.95 1353.45,-22.95 1363.27,-26.94 1363.61,-19.95"/>
</g>
<!-- clickhouse_data -->
<g id="node34" class="node">
<title>clickhouse_data</title>
<path fill="none" stroke="black" d="M1963.5,-120.73C1963.5,-122.53 1934.59,-124 1899,-124 1863.41,-124 1834.5,-122.53 1834.5,-120.73 1834.5,-120.73 1834.5,-91.27 1834.5,-91.27 1834.5,-89.47 1863.41,-88 1899,-88 1934.59,-88 1963.5,-89.47 1963.5,-91.27 1963.5,-91.27 1963.5,-120.73 1963.5,-120.73"/>
<path fill="none" stroke="black" d="M1963.5,-120.73C1963.5,-118.92 1934.59,-117.45 1899,-117.45 1863.41,-117.45 1834.5,-118.92 1834.5,-120.73"/>
<text text-anchor="middle" x="1899" y="-102.3" font-family="Times,serif" font-size="14.00">clickhouse_data</text>
</g>
<!-- clickhouse&#45;&gt;clickhouse_data -->
<g id="edge38" class="edge">
<title>clickhouse&#45;&gt;clickhouse_data</title>
<path fill="none" stroke="black" stroke-dasharray="5,2" d="M2242.1,-227.75C2207.25,-210.48 2156.29,-187.72 2109,-176 2063.75,-164.79 1931.85,-192.04 1900,-158 1894.15,-151.75 1892.58,-142.94 1892.88,-134.41"/>
<polygon fill="black" stroke="black" points="2240.54,-230.88 2251.05,-232.24 2243.68,-224.63 2240.54,-230.88"/>
<polygon fill="black" stroke="black" points="1896.38,-134.65 1894.03,-124.32 1889.42,-133.86 1896.38,-134.65"/>
<text text-anchor="middle" x="1965" y="-146.8" font-family="Times,serif" font-size="14.00">/var/lib/clickhouse</text>
</g>
<!-- ./clickhouse/config.xml -->
<g id="node35" class="node">
<title>./clickhouse/config.xml</title>
<path fill="none" stroke="black" d="M2250,-120.73C2250,-122.53 2210.11,-124 2161,-124 2111.89,-124 2072,-122.53 2072,-120.73 2072,-120.73 2072,-91.27 2072,-91.27 2072,-89.47 2111.89,-88 2161,-88 2210.11,-88 2250,-89.47 2250,-91.27 2250,-91.27 2250,-120.73 2250,-120.73"/>
<path fill="none" stroke="black" d="M2250,-120.73C2250,-118.92 2210.11,-117.45 2161,-117.45 2111.89,-117.45 2072,-118.92 2072,-120.73"/>
<text text-anchor="middle" x="2161" y="-102.3" font-family="Times,serif" font-size="14.00">./clickhouse/config.xml</text>
</g>
<!-- clickhouse&#45;&gt;./clickhouse/config.xml -->
<g id="edge39" class="edge">
<title>clickhouse&#45;&gt;./clickhouse/config.xml</title>
<path fill="none" stroke="black" stroke-dasharray="5,2" d="M2224.82,-232.39C2189.27,-218.3 2147.18,-194.8 2126,-158 2120.89,-149.11 2124.46,-139.76 2130.94,-131.53"/>
<polygon fill="black" stroke="black" points="2133.66,-133.75 2137.87,-124.03 2128.51,-129 2133.66,-133.75"/>
<text text-anchor="middle" x="2243" y="-146.8" font-family="Times,serif" font-size="14.00">/etc/clickhouse&#45;server/config.xml</text>
</g>
<!-- ./clickhouse/users.xml -->
<g id="node36" class="node">
<title>./clickhouse/users.xml</title>
<path fill="none" stroke="black" d="M2473,-120.73C2473,-122.53 2434.01,-124 2386,-124 2337.99,-124 2299,-122.53 2299,-120.73 2299,-120.73 2299,-91.27 2299,-91.27 2299,-89.47 2337.99,-88 2386,-88 2434.01,-88 2473,-89.47 2473,-91.27 2473,-91.27 2473,-120.73 2473,-120.73"/>
<path fill="none" stroke="black" d="M2473,-120.73C2473,-118.92 2434.01,-117.45 2386,-117.45 2337.99,-117.45 2299,-118.92 2299,-120.73"/>
<text text-anchor="middle" x="2386" y="-102.3" font-family="Times,serif" font-size="14.00">./clickhouse/users.xml</text>
</g>
<!-- clickhouse&#45;&gt;./clickhouse/users.xml -->
<g id="edge40" class="edge">
<title>clickhouse&#45;&gt;./clickhouse/users.xml</title>
<path fill="none" stroke="black" stroke-dasharray="5,2" d="M2303.44,-232.24C2320.73,-214.5 2346.47,-186.12 2364,-158 2368.71,-150.44 2372.89,-141.69 2376.31,-133.59"/>
<polygon fill="black" stroke="black" points="2379.61,-134.76 2380.08,-124.17 2373.11,-132.15 2379.61,-134.76"/>
<text text-anchor="middle" x="2486" y="-146.8" font-family="Times,serif" font-size="14.00">/etc/clickhouse&#45;server/users.xml</text>
</g>
<!-- clickhouse_logs -->
<g id="node37" class="node">
<title>clickhouse_logs</title>
<path fill="none" stroke="black" d="M2702.5,-120.73C2702.5,-122.53 2674.04,-124 2639,-124 2603.96,-124 2575.5,-122.53 2575.5,-120.73 2575.5,-120.73 2575.5,-91.27 2575.5,-91.27 2575.5,-89.47 2603.96,-88 2639,-88 2674.04,-88 2702.5,-89.47 2702.5,-91.27 2702.5,-91.27 2702.5,-120.73 2702.5,-120.73"/>
<path fill="none" stroke="black" d="M2702.5,-120.73C2702.5,-118.92 2674.04,-117.45 2639,-117.45 2603.96,-117.45 2575.5,-118.92 2575.5,-120.73"/>
<text text-anchor="middle" x="2639" y="-102.3" font-family="Times,serif" font-size="14.00">clickhouse_logs</text>
</g>
<!-- clickhouse&#45;&gt;clickhouse_logs -->
<g id="edge41" class="edge">
<title>clickhouse&#45;&gt;clickhouse_logs</title>
<path fill="none" stroke="black" stroke-dasharray="5,2" d="M2432.81,-230.18C2490.63,-216.81 2554.94,-194.65 2605,-158 2613.76,-151.59 2620.93,-142.19 2626.4,-133.2"/>
<polygon fill="black" stroke="black" points="2431.84,-226.81 2422.85,-232.42 2433.37,-233.65 2431.84,-226.81"/>
<polygon fill="black" stroke="black" points="2629.45,-134.91 2631.29,-124.48 2623.35,-131.49 2629.45,-134.91"/>
<text text-anchor="middle" x="2711" y="-146.8" font-family="Times,serif" font-size="14.00">/var/log/clickhouse&#45;server</text>
</g>
<!-- kafka&#45;&gt;amazeeai -->
<g id="edge46" class="edge">
<title>kafka&#45;&gt;amazeeai</title>
<path fill="none" stroke="black" d="M1962.88,-232.33C1930.43,-208.69 1872.57,-165.48 1826,-125 1807.74,-109.12 1808.76,-97.6 1787,-87 1714.51,-51.68 1493.91,-32.74 1363.85,-24.38"/>
<polygon fill="black" stroke="black" points="1363.68,-20.87 1353.48,-23.73 1363.24,-27.85 1363.68,-20.87"/>
</g>
<!-- zookeeper -->
<g id="node40" class="node">
<title>zookeeper</title>
<polygon fill="none" stroke="black" points="1777.5,-125 1520.5,-125 1520.5,-121 1516.5,-121 1516.5,-117 1520.5,-117 1520.5,-95 1516.5,-95 1516.5,-91 1520.5,-91 1520.5,-87 1777.5,-87 1777.5,-125"/>
<polyline fill="none" stroke="black" points="1520.5,-121 1524.5,-121 1524.5,-117 1520.5,-117 "/>
<polyline fill="none" stroke="black" points="1520.5,-95 1524.5,-95 1524.5,-91 1520.5,-91 "/>
<text text-anchor="middle" x="1649" y="-109.8" font-family="Times,serif" font-size="14.00">zookeeper</text>
<text text-anchor="middle" x="1649" y="-94.8" font-family="Times,serif" font-size="14.00">(confluentinc/cp&#45;zookeeper:latest)</text>
</g>
<!-- kafka&#45;&gt;zookeeper -->
<g id="edge50" class="edge">
<title>kafka&#45;&gt;zookeeper</title>
<path fill="none" stroke="black" stroke-dasharray="1,5" d="M1963.99,-232.25C1940.62,-215.4 1903.54,-190.76 1868,-176 1835.94,-162.68 1825.29,-167.85 1792,-158 1762.96,-149.41 1731.18,-138.26 1704.98,-128.58"/>
<polygon fill="black" stroke="black" points="1706.18,-125.29 1695.59,-125.08 1703.74,-131.85 1706.18,-125.29"/>
</g>
<!-- 0.0.0.08123 -->
<g id="node38" class="node">
<title>0.0.0.08123</title>
<ellipse fill="none" stroke="black" cx="2314" cy="-453.18" rx="69.59" ry="69.59"/>
<text text-anchor="middle" x="2314" y="-449.48" font-family="Times,serif" font-size="14.00">0.0.0.0:8123</text>
</g>
<!-- 0.0.0.08123&#45;&gt;clickhouse -->
<g id="edge42" class="edge">
<title>0.0.0.08123&#45;&gt;clickhouse</title>
<path fill="none" stroke="black" d="M2304.14,-384.26C2299,-348.87 2293,-307.49 2289.1,-280.65"/>
<polygon fill="black" stroke="black" points="2292.52,-279.84 2287.62,-270.44 2285.59,-280.84 2292.52,-279.84"/>
<text text-anchor="middle" x="2318.5" y="-348.59" font-family="Times,serif" font-size="14.00">8123</text>
</g>
<!-- 0.0.0.09000 -->
<g id="node39" class="node">
<title>0.0.0.09000</title>
<ellipse fill="none" stroke="black" cx="2471" cy="-453.18" rx="69.59" ry="69.59"/>
<text text-anchor="middle" x="2471" y="-449.48" font-family="Times,serif" font-size="14.00">0.0.0.0:9000</text>
</g>
<!-- 0.0.0.09000&#45;&gt;clickhouse -->
<g id="edge43" class="edge">
<title>0.0.0.09000&#45;&gt;clickhouse</title>
<path fill="none" stroke="black" d="M2424.06,-401.77C2387.36,-362.34 2337.84,-309.15 2308.87,-278.03"/>
<polygon fill="black" stroke="black" points="2311.34,-275.55 2301.97,-270.62 2306.22,-280.32 2311.34,-275.55"/>
<text text-anchor="middle" x="2401.5" y="-348.59" font-family="Times,serif" font-size="14.00">9000</text>
</g>
<!-- zookeeper&#45;&gt;amazeeai -->
<g id="edge44" class="edge">
<title>zookeeper&#45;&gt;amazeeai</title>
<path fill="none" stroke="black" d="M1605.56,-86.97C1577.57,-75.99 1540.15,-62.48 1506,-54 1454.3,-41.16 1395.1,-32.48 1348.32,-26.98"/>
<polygon fill="black" stroke="black" points="1348.57,-23.48 1338.23,-25.82 1347.77,-30.44 1348.57,-23.48"/>
</g>
<!-- 0.0.0.02181 -->
<g id="node41" class="node">
<title>0.0.0.02181</title>
<ellipse fill="none" stroke="black" cx="1590" cy="-251.39" rx="69.59" ry="69.59"/>
<text text-anchor="middle" x="1590" y="-247.69" font-family="Times,serif" font-size="14.00">0.0.0.0:2181</text>
</g>
<!-- 0.0.0.02181&#45;&gt;zookeeper -->
<g id="edge45" class="edge">
<title>0.0.0.02181&#45;&gt;zookeeper</title>
<path fill="none" stroke="black" d="M1616.22,-186.66C1623.72,-168.43 1631.51,-149.5 1637.61,-134.67"/>
<polygon fill="black" stroke="black" points="1640.98,-135.7 1641.54,-125.12 1634.5,-133.04 1640.98,-135.7"/>
<text text-anchor="middle" x="1651.5" y="-146.8" font-family="Times,serif" font-size="14.00">2181</text>
</g>
<!-- 0.0.0.09092 -->
<g id="node42" class="node">
<title>0.0.0.09092</title>
<ellipse fill="none" stroke="black" cx="1988" cy="-453.18" rx="69.59" ry="69.59"/>
<text text-anchor="middle" x="1988" y="-449.48" font-family="Times,serif" font-size="14.00">0.0.0.0:9092</text>
</g>
<!-- 0.0.0.09092&#45;&gt;kafka -->
<g id="edge47" class="edge">
<title>0.0.0.09092&#45;&gt;kafka</title>
<path fill="none" stroke="black" d="M1988,-383.42C1988,-348.31 1988,-307.48 1988,-280.86"/>
<polygon fill="black" stroke="black" points="1991.5,-280.71 1988,-270.71 1984.5,-280.71 1991.5,-280.71"/>
<text text-anchor="middle" x="2006.5" y="-348.59" font-family="Times,serif" font-size="14.00">9092</text>
</g>
<!-- 0.0.0.029093 -->
<g id="node43" class="node">
<title>0.0.0.029093</title>
<ellipse fill="none" stroke="black" cx="2151" cy="-453.18" rx="75.29" ry="75.29"/>
<text text-anchor="middle" x="2151" y="-449.48" font-family="Times,serif" font-size="14.00">0.0.0.0:29093</text>
</g>
<!-- 0.0.0.029093&#45;&gt;kafka -->
<g id="edge48" class="edge">
<title>0.0.0.029093&#45;&gt;kafka</title>
<path fill="none" stroke="black" d="M2103.63,-394.12C2072.49,-355.96 2033.24,-307.84 2009.41,-278.63"/>
<polygon fill="black" stroke="black" points="2011.86,-276.1 2002.82,-270.56 2006.43,-280.52 2011.86,-276.1"/>
<text text-anchor="middle" x="2097" y="-348.59" font-family="Times,serif" font-size="14.00">29093</text>
</g>
<!-- 0.0.0.09093 -->
<g id="node44" class="node">
<title>0.0.0.09093</title>
<ellipse fill="none" stroke="black" cx="1831" cy="-453.18" rx="69.59" ry="69.59"/>
<text text-anchor="middle" x="1831" y="-449.48" font-family="Times,serif" font-size="14.00">0.0.0.0:9093</text>
</g>
<!-- 0.0.0.09093&#45;&gt;kafka -->
<g id="edge49" class="edge">
<title>0.0.0.09093&#45;&gt;kafka</title>
<path fill="none" stroke="black" d="M1873.49,-398.11C1904.03,-359.24 1943.87,-308.55 1967.6,-278.35"/>
<polygon fill="black" stroke="black" points="1970.42,-280.42 1973.85,-270.4 1964.92,-276.1 1970.42,-280.42"/>
<text text-anchor="middle" x="1932.5" y="-348.59" font-family="Times,serif" font-size="14.00">9093</text>
</g>
</g>
</svg>
