<?xml version="1.0" encoding="UTF-8" standalone="no"?>
<!DOCTYPE svg PUBLIC "-//W3C//DTD SVG 1.1//EN"
 "http://www.w3.org/Graphics/SVG/1.1/DTD/svg11.dtd">
<!-- Generated by graphviz version 2.43.0 (0)
 -->
<!-- Title: %3 Pages: 1 -->
<svg width="2473pt" height="589pt"
 viewBox="0.00 0.00 2472.54 588.87" xmlns="http://www.w3.org/2000/svg" xmlns:xlink="http://www.w3.org/1999/xlink">
<g id="graph0" class="graph" transform="scale(1 1) rotate(0) translate(36 552.87)">
<title>%3</title>
<polygon fill="white" stroke="transparent" points="-36,36 -36,-552.87 2436.54,-552.87 2436.54,36 -36,36"/>
<!-- postgres -->
<g id="node1" class="node">
<title>postgres</title>
<polygon fill="none" stroke="black" points="201.54,-125 3.54,-125 3.54,-121 -0.46,-121 -0.46,-117 3.54,-117 3.54,-95 -0.46,-95 -0.46,-91 3.54,-91 3.54,-87 201.54,-87 201.54,-125"/>
<polyline fill="none" stroke="black" points="3.54,-121 7.54,-121 7.54,-117 3.54,-117 "/>
<polyline fill="none" stroke="black" points="3.54,-95 7.54,-95 7.54,-91 3.54,-91 "/>
<text text-anchor="middle" x="102.54" y="-109.8" font-family="Times,serif" font-size="14.00">postgres</text>
<text text-anchor="middle" x="102.54" y="-94.8" font-family="Times,serif" font-size="14.00">(pgvector/pgvector:pg16)</text>
</g>
<!-- postgres_data -->
<g id="node2" class="node">
<title>postgres_data</title>
<path fill="none" stroke="black" d="M161.04,-32.73C161.04,-34.53 134.82,-36 102.54,-36 70.26,-36 44.04,-34.53 44.04,-32.73 44.04,-32.73 44.04,-3.27 44.04,-3.27 44.04,-1.47 70.26,0 102.54,0 134.82,0 161.04,-1.47 161.04,-3.27 161.04,-3.27 161.04,-32.73 161.04,-32.73"/>
<path fill="none" stroke="black" d="M161.04,-32.73C161.04,-30.92 134.82,-29.45 102.54,-29.45 70.26,-29.45 44.04,-30.92 44.04,-32.73"/>
<text text-anchor="middle" x="102.54" y="-14.3" font-family="Times,serif" font-size="14.00">postgres_data</text>
</g>
<!-- postgres&#45;&gt;postgres_data -->
<g id="edge1" class="edge">
<title>postgres&#45;&gt;postgres_data</title>
<path fill="none" stroke="black" stroke-dasharray="5,2" d="M102.54,-76.58C102.54,-66.83 102.54,-55.95 102.54,-46.3"/>
<polygon fill="black" stroke="black" points="99.04,-76.76 102.54,-86.76 106.04,-76.76 99.04,-76.76"/>
<polygon fill="black" stroke="black" points="106.04,-46.04 102.54,-36.04 99.04,-46.04 106.04,-46.04"/>
<text text-anchor="middle" x="186.04" y="-57.8" font-family="Times,serif" font-size="14.00">/var/lib/postgresql/data</text>
</g>
<!-- 0.0.0.05432 -->
<g id="node3" class="node">
<title>0.0.0.05432</title>
<ellipse fill="none" stroke="black" cx="69.54" cy="-251.39" rx="69.59" ry="69.59"/>
<text text-anchor="middle" x="69.54" y="-247.69" font-family="Times,serif" font-size="14.00">0.0.0.0:5432</text>
</g>
<!-- 0.0.0.05432&#45;&gt;postgres -->
<g id="edge2" class="edge">
<title>0.0.0.05432&#45;&gt;postgres</title>
<path fill="none" stroke="black" d="M84.98,-183.31C88.91,-166.24 92.92,-148.81 96.12,-134.93"/>
<polygon fill="black" stroke="black" points="99.55,-135.6 98.39,-125.07 92.73,-134.03 99.55,-135.6"/>
<text text-anchor="middle" x="113.04" y="-146.8" font-family="Times,serif" font-size="14.00">5432</text>
</g>
<!-- backend -->
<g id="node4" class="node">
<title>backend</title>
<polygon fill="none" stroke="black" points="402.04,-270.39 157.04,-270.39 157.04,-266.39 153.04,-266.39 153.04,-262.39 157.04,-262.39 157.04,-240.39 153.04,-240.39 153.04,-236.39 157.04,-236.39 157.04,-232.39 402.04,-232.39 402.04,-270.39"/>
<polyline fill="none" stroke="black" points="157.04,-266.39 161.04,-266.39 161.04,-262.39 157.04,-262.39 "/>
<polyline fill="none" stroke="black" points="157.04,-240.39 161.04,-240.39 161.04,-236.39 157.04,-236.39 "/>
<text text-anchor="middle" x="279.54" y="-255.19" font-family="Times,serif" font-size="14.00">backend</text>
<text text-anchor="middle" x="279.54" y="-240.19" font-family="Times,serif" font-size="14.00">(build from &#39;.&#39; using &#39;Dockerfile&#39;)</text>
</g>
<!-- backend&#45;&gt;postgres -->
<g id="edge5" class="edge">
<title>backend&#45;&gt;postgres</title>
<path fill="none" stroke="black" stroke-dasharray="1,5" d="M257.13,-232.23C225.61,-206.7 168.1,-160.11 132.81,-131.52"/>
<polygon fill="black" stroke="black" points="134.75,-128.59 124.78,-125.01 130.35,-134.03 134.75,-128.59"/>
</g>
<!-- ./app -->
<g id="node5" class="node">
<title>./app</title>
<path fill="none" stroke="black" d="M306.54,-120.73C306.54,-122.53 294.44,-124 279.54,-124 264.65,-124 252.54,-122.53 252.54,-120.73 252.54,-120.73 252.54,-91.27 252.54,-91.27 252.54,-89.47 264.65,-88 279.54,-88 294.44,-88 306.54,-89.47 306.54,-91.27 306.54,-91.27 306.54,-120.73 306.54,-120.73"/>
<path fill="none" stroke="black" d="M306.54,-120.73C306.54,-118.92 294.44,-117.45 279.54,-117.45 264.65,-117.45 252.54,-118.92 252.54,-120.73"/>
<text text-anchor="middle" x="279.54" y="-102.3" font-family="Times,serif" font-size="14.00">./app</text>
</g>
<!-- backend&#45;&gt;./app -->
<g id="edge3" class="edge">
<title>backend&#45;&gt;./app</title>
<path fill="none" stroke="black" stroke-dasharray="5,2" d="M279.54,-221.86C279.54,-196.44 279.54,-159.47 279.54,-134.4"/>
<polygon fill="black" stroke="black" points="276.04,-222.23 279.54,-232.23 283.04,-222.23 276.04,-222.23"/>
<polygon fill="black" stroke="black" points="283.04,-134.12 279.54,-124.12 276.04,-134.12 283.04,-134.12"/>
<text text-anchor="middle" x="310.54" y="-146.8" font-family="Times,serif" font-size="14.00">/app/app</text>
</g>
<!-- otel&#45;collector -->
<g id="node7" class="node">
<title>otel&#45;collector</title>
<polygon fill="none" stroke="black" points="811.04,-125 482.04,-125 482.04,-121 478.04,-121 478.04,-117 482.04,-117 482.04,-95 478.04,-95 478.04,-91 482.04,-91 482.04,-87 811.04,-87 811.04,-125"/>
<polyline fill="none" stroke="black" points="482.04,-121 486.04,-121 486.04,-117 482.04,-117 "/>
<polyline fill="none" stroke="black" points="482.04,-95 486.04,-95 486.04,-91 482.04,-91 "/>
<text text-anchor="middle" x="646.54" y="-109.8" font-family="Times,serif" font-size="14.00">otel&#45;collector</text>
<text text-anchor="middle" x="646.54" y="-94.8" font-family="Times,serif" font-size="14.00">(otel/opentelemetry&#45;collector&#45;contrib:latest)</text>
</g>
<!-- backend&#45;&gt;otel&#45;collector -->
<g id="edge6" class="edge">
<title>backend&#45;&gt;otel&#45;collector</title>
<path fill="none" stroke="black" stroke-dasharray="1,5" d="M306.94,-232.33C332.8,-215.9 373.09,-191.85 410.54,-176 458.06,-155.88 513.32,-139.38 558.42,-127.56"/>
<polygon fill="black" stroke="black" points="559.37,-130.93 568.18,-125.04 557.62,-124.16 559.37,-130.93"/>
</g>
<!-- 0.0.0.08800 -->
<g id="node6" class="node">
<title>0.0.0.08800</title>
<ellipse fill="none" stroke="black" cx="279.54" cy="-447.33" rx="69.59" ry="69.59"/>
<text text-anchor="middle" x="279.54" y="-443.63" font-family="Times,serif" font-size="14.00">0.0.0.0:8800</text>
</g>
<!-- 0.0.0.08800&#45;&gt;backend -->
<g id="edge4" class="edge">
<title>0.0.0.08800&#45;&gt;backend</title>
<path fill="none" stroke="black" d="M279.54,-377.68C279.54,-344.31 279.54,-306.04 279.54,-280.66"/>
<polygon fill="black" stroke="black" points="283.04,-280.63 279.54,-270.63 276.04,-280.63 283.04,-280.63"/>
<text text-anchor="middle" x="298.04" y="-348.59" font-family="Times,serif" font-size="14.00">8800</text>
</g>
<!-- ./otel&#45;collector&#45;config.yaml -->
<g id="node20" class="node">
<title>./otel&#45;collector&#45;config.yaml</title>
<path fill="none" stroke="black" d="M749.04,-32.73C749.04,-34.53 703.1,-36 646.54,-36 589.99,-36 544.04,-34.53 544.04,-32.73 544.04,-32.73 544.04,-3.27 544.04,-3.27 544.04,-1.47 589.99,0 646.54,0 703.1,0 749.04,-1.47 749.04,-3.27 749.04,-3.27 749.04,-32.73 749.04,-32.73"/>
<path fill="none" stroke="black" d="M749.04,-32.73C749.04,-30.92 703.1,-29.45 646.54,-29.45 589.99,-29.45 544.04,-30.92 544.04,-32.73"/>
<text text-anchor="middle" x="646.54" y="-14.3" font-family="Times,serif" font-size="14.00">./otel&#45;collector&#45;config.yaml</text>
</g>
<!-- otel&#45;collector&#45;&gt;./otel&#45;collector&#45;config.yaml -->
<g id="edge18" class="edge">
<title>otel&#45;collector&#45;&gt;./otel&#45;collector&#45;config.yaml</title>
<path fill="none" stroke="black" stroke-dasharray="5,2" d="M646.54,-76.58C646.54,-66.83 646.54,-55.95 646.54,-46.3"/>
<polygon fill="black" stroke="black" points="643.04,-76.76 646.54,-86.76 650.04,-76.76 643.04,-76.76"/>
<polygon fill="black" stroke="black" points="650.04,-46.04 646.54,-36.04 643.04,-46.04 650.04,-46.04"/>
<text text-anchor="middle" x="752.04" y="-57.8" font-family="Times,serif" font-size="14.00">/etc/otel&#45;collector&#45;config.yaml</text>
</g>
<!-- frontend -->
<g id="node8" class="node">
<title>frontend</title>
<polygon fill="none" stroke="black" points="1791.04,-270.39 1480.04,-270.39 1480.04,-266.39 1476.04,-266.39 1476.04,-262.39 1480.04,-262.39 1480.04,-240.39 1476.04,-240.39 1476.04,-236.39 1480.04,-236.39 1480.04,-232.39 1791.04,-232.39 1791.04,-270.39"/>
<polyline fill="none" stroke="black" points="1480.04,-266.39 1484.04,-266.39 1484.04,-262.39 1480.04,-262.39 "/>
<polyline fill="none" stroke="black" points="1480.04,-240.39 1484.04,-240.39 1484.04,-236.39 1480.04,-236.39 "/>
<text text-anchor="middle" x="1635.54" y="-255.19" font-family="Times,serif" font-size="14.00">frontend</text>
<text text-anchor="middle" x="1635.54" y="-240.19" font-family="Times,serif" font-size="14.00">(build from &#39;./frontend&#39; using &#39;Dockerfile&#39;)</text>
</g>
<!-- ./frontend -->
<g id="node9" class="node">
<title>./frontend</title>
<path fill="none" stroke="black" d="M1679.04,-120.73C1679.04,-122.53 1659.55,-124 1635.54,-124 1611.54,-124 1592.04,-122.53 1592.04,-120.73 1592.04,-120.73 1592.04,-91.27 1592.04,-91.27 1592.04,-89.47 1611.54,-88 1635.54,-88 1659.55,-88 1679.04,-89.47 1679.04,-91.27 1679.04,-91.27 1679.04,-120.73 1679.04,-120.73"/>
<path fill="none" stroke="black" d="M1679.04,-120.73C1679.04,-118.92 1659.55,-117.45 1635.54,-117.45 1611.54,-117.45 1592.04,-118.92 1592.04,-120.73"/>
<text text-anchor="middle" x="1635.54" y="-102.3" font-family="Times,serif" font-size="14.00">./frontend</text>
</g>
<!-- frontend&#45;&gt;./frontend -->
<g id="edge7" class="edge">
<title>frontend&#45;&gt;./frontend</title>
<path fill="none" stroke="black" stroke-dasharray="5,2" d="M1635.54,-221.86C1635.54,-196.44 1635.54,-159.47 1635.54,-134.4"/>
<polygon fill="black" stroke="black" points="1632.04,-222.23 1635.54,-232.23 1639.04,-222.23 1632.04,-222.23"/>
<polygon fill="black" stroke="black" points="1639.04,-134.12 1635.54,-124.12 1632.04,-134.12 1639.04,-134.12"/>
<text text-anchor="middle" x="1651.04" y="-146.8" font-family="Times,serif" font-size="14.00">/app</text>
</g>
<!-- 0.0.0.03000 -->
<g id="node10" class="node">
<title>0.0.0.03000</title>
<ellipse fill="none" stroke="black" cx="1635.54" cy="-447.33" rx="69.59" ry="69.59"/>
<text text-anchor="middle" x="1635.54" y="-443.63" font-family="Times,serif" font-size="14.00">0.0.0.0:3000</text>
</g>
<!-- 0.0.0.03000&#45;&gt;frontend -->
<g id="edge8" class="edge">
<title>0.0.0.03000&#45;&gt;frontend</title>
<path fill="none" stroke="black" d="M1635.54,-377.68C1635.54,-344.31 1635.54,-306.04 1635.54,-280.66"/>
<polygon fill="black" stroke="black" points="1639.04,-280.63 1635.54,-270.63 1632.04,-280.63 1639.04,-280.63"/>
<text text-anchor="middle" x="1654.04" y="-348.59" font-family="Times,serif" font-size="14.00">3000</text>
</g>
<!-- ollama -->
<g id="node11" class="node">
<title>ollama</title>
<polygon fill="none" stroke="black" points="1081.04,-125 910.04,-125 910.04,-121 906.04,-121 906.04,-117 910.04,-117 910.04,-95 906.04,-95 906.04,-91 910.04,-91 910.04,-87 1081.04,-87 1081.04,-125"/>
<polyline fill="none" stroke="black" points="910.04,-121 914.04,-121 914.04,-117 910.04,-117 "/>
<polyline fill="none" stroke="black" points="910.04,-95 914.04,-95 914.04,-91 910.04,-91 "/>
<text text-anchor="middle" x="995.54" y="-109.8" font-family="Times,serif" font-size="14.00">ollama</text>
<text text-anchor="middle" x="995.54" y="-94.8" font-family="Times,serif" font-size="14.00">(ollama/ollama:latest)</text>
</g>
<!-- ollama_data -->
<g id="node12" class="node">
<title>ollama_data</title>
<path fill="none" stroke="black" d="M1212.54,-32.73C1212.54,-34.53 1189.68,-36 1161.54,-36 1133.4,-36 1110.54,-34.53 1110.54,-32.73 1110.54,-32.73 1110.54,-3.27 1110.54,-3.27 1110.54,-1.47 1133.4,0 1161.54,0 1189.68,0 1212.54,-1.47 1212.54,-3.27 1212.54,-3.27 1212.54,-32.73 1212.54,-32.73"/>
<path fill="none" stroke="black" d="M1212.54,-32.73C1212.54,-30.92 1189.68,-29.45 1161.54,-29.45 1133.4,-29.45 1110.54,-30.92 1110.54,-32.73"/>
<text text-anchor="middle" x="1161.54" y="-14.3" font-family="Times,serif" font-size="14.00">ollama_data</text>
</g>
<!-- ollama&#45;&gt;ollama_data -->
<g id="edge9" class="edge">
<title>ollama&#45;&gt;ollama_data</title>
<path fill="none" stroke="black" stroke-dasharray="5,2" d="M1090.96,-94.13C1108.52,-88.69 1125.67,-80.7 1139.54,-69 1146.63,-63.02 1151.51,-54.32 1154.84,-45.85"/>
<polygon fill="black" stroke="black" points="1089.85,-90.8 1081.17,-96.89 1091.75,-97.54 1089.85,-90.8"/>
<polygon fill="black" stroke="black" points="1158.22,-46.77 1158.07,-36.18 1151.58,-44.55 1158.22,-46.77"/>
<text text-anchor="middle" x="1196.04" y="-57.8" font-family="Times,serif" font-size="14.00">/root/.ollama</text>
</g>
<!-- ./ollama&#45;init.sh -->
<g id="node13" class="node">
<title>./ollama&#45;init.sh</title>
<path fill="none" stroke="black" d="M1005.54,-32.73C1005.54,-34.53 978.2,-36 944.54,-36 910.89,-36 883.54,-34.53 883.54,-32.73 883.54,-32.73 883.54,-3.27 883.54,-3.27 883.54,-1.47 910.89,0 944.54,0 978.2,0 1005.54,-1.47 1005.54,-3.27 1005.54,-3.27 1005.54,-32.73 1005.54,-32.73"/>
<path fill="none" stroke="black" d="M1005.54,-32.73C1005.54,-30.92 978.2,-29.45 944.54,-29.45 910.89,-29.45 883.54,-30.92 883.54,-32.73"/>
<text text-anchor="middle" x="944.54" y="-14.3" font-family="Times,serif" font-size="14.00">./ollama&#45;init.sh</text>
</g>
<!-- ollama&#45;&gt;./ollama&#45;init.sh -->
<g id="edge10" class="edge">
<title>ollama&#45;&gt;./ollama&#45;init.sh</title>
<path fill="none" stroke="black" stroke-dasharray="5,2" d="M953.69,-80.11C950.48,-76.75 947.67,-73.05 945.54,-69 941.94,-62.13 940.73,-53.96 940.68,-46.24"/>
<polygon fill="black" stroke="black" points="951.47,-82.82 961.24,-86.91 956.15,-77.62 951.47,-82.82"/>
<polygon fill="black" stroke="black" points="944.18,-46.32 941.22,-36.15 937.19,-45.95 944.18,-46.32"/>
<text text-anchor="middle" x="1042.54" y="-57.8" font-family="Times,serif" font-size="14.00">/usr/local/bin/ollama&#45;init.sh</text>
</g>
<!-- 0.0.0.011434 -->
<g id="node14" class="node">
<title>0.0.0.011434</title>
<ellipse fill="none" stroke="black" cx="966.54" cy="-251.39" rx="75.29" ry="75.29"/>
<text text-anchor="middle" x="966.54" y="-247.69" font-family="Times,serif" font-size="14.00">0.0.0.0:11434</text>
</g>
<!-- 0.0.0.011434&#45;&gt;ollama -->
<g id="edge11" class="edge">
<title>0.0.0.011434&#45;&gt;ollama</title>
<path fill="none" stroke="black" d="M981.3,-177.44C984.35,-162.35 987.39,-147.33 989.87,-135.06"/>
<polygon fill="black" stroke="black" points="993.34,-135.56 991.89,-125.06 986.48,-134.17 993.34,-135.56"/>
<text text-anchor="middle" x="1011.54" y="-146.8" font-family="Times,serif" font-size="14.00">11434</text>
</g>
<!-- litellm -->
<g id="node15" class="node">
<title>litellm</title>
<polygon fill="none" stroke="black" points="1391.54,-270.39 1059.54,-270.39 1059.54,-266.39 1055.54,-266.39 1055.54,-262.39 1059.54,-262.39 1059.54,-240.39 1055.54,-240.39 1055.54,-236.39 1059.54,-236.39 1059.54,-232.39 1391.54,-232.39 1391.54,-270.39"/>
<polyline fill="none" stroke="black" points="1059.54,-266.39 1063.54,-266.39 1063.54,-262.39 1059.54,-262.39 "/>
<polyline fill="none" stroke="black" points="1059.54,-240.39 1063.54,-240.39 1063.54,-236.39 1059.54,-236.39 "/>
<text text-anchor="middle" x="1225.54" y="-255.19" font-family="Times,serif" font-size="14.00">litellm</text>
<text text-anchor="middle" x="1225.54" y="-240.19" font-family="Times,serif" font-size="14.00">(ghcr.io/berriai/litellm&#45;database:main&#45;latest)</text>
</g>
<!-- litellm&#45;&gt;otel&#45;collector -->
<g id="edge15" class="edge">
<title>litellm&#45;&gt;otel&#45;collector</title>
<path fill="none" stroke="black" stroke-dasharray="1,5" d="M1197.64,-232.38C1154.07,-204.6 1071.47,-153.42 1038.54,-143 1017.27,-136.27 915.64,-127.03 821.2,-119.6"/>
<polygon fill="black" stroke="black" points="821.45,-116.11 811.2,-118.82 820.9,-123.09 821.45,-116.11"/>
</g>
<!-- litellm&#45;&gt;ollama -->
<g id="edge16" class="edge">
<title>litellm&#45;&gt;ollama</title>
<path fill="none" stroke="black" stroke-dasharray="1,5" d="M1202.54,-232.32C1173.31,-209.83 1120.85,-170.96 1072.54,-143 1064.48,-138.33 1055.7,-133.78 1047.07,-129.56"/>
<polygon fill="black" stroke="black" points="1048.31,-126.28 1037.78,-125.13 1045.3,-132.6 1048.31,-126.28"/>
</g>
<!-- ./litellm_config.yaml -->
<g id="node16" class="node">
<title>./litellm_config.yaml</title>
<path fill="none" stroke="black" d="M1287.54,-120.73C1287.54,-122.53 1251.69,-124 1207.54,-124 1163.4,-124 1127.54,-122.53 1127.54,-120.73 1127.54,-120.73 1127.54,-91.27 1127.54,-91.27 1127.54,-89.47 1163.4,-88 1207.54,-88 1251.69,-88 1287.54,-89.47 1287.54,-91.27 1287.54,-91.27 1287.54,-120.73 1287.54,-120.73"/>
<path fill="none" stroke="black" d="M1287.54,-120.73C1287.54,-118.92 1251.69,-117.45 1207.54,-117.45 1163.4,-117.45 1127.54,-118.92 1127.54,-120.73"/>
<text text-anchor="middle" x="1207.54" y="-102.3" font-family="Times,serif" font-size="14.00">./litellm_config.yaml</text>
</g>
<!-- litellm&#45;&gt;./litellm_config.yaml -->
<g id="edge12" class="edge">
<title>litellm&#45;&gt;./litellm_config.yaml</title>
<path fill="none" stroke="black" stroke-dasharray="5,2" d="M1222.01,-222.25C1218.81,-196.71 1214.11,-159.31 1210.95,-134.11"/>
<polygon fill="black" stroke="black" points="1218.55,-222.75 1223.26,-232.23 1225.49,-221.87 1218.55,-222.75"/>
<polygon fill="black" stroke="black" points="1214.41,-133.61 1209.69,-124.12 1207.47,-134.48 1214.41,-133.61"/>
<text text-anchor="middle" x="1273.54" y="-146.8" font-family="Times,serif" font-size="14.00">/app/config.yaml</text>
</g>
<!-- litellm_db -->
<g id="node18" class="node">
<title>litellm_db</title>
<polygon fill="none" stroke="black" points="1417.54,-125 1305.54,-125 1305.54,-121 1301.54,-121 1301.54,-117 1305.54,-117 1305.54,-95 1301.54,-95 1301.54,-91 1305.54,-91 1305.54,-87 1417.54,-87 1417.54,-125"/>
<polyline fill="none" stroke="black" points="1305.54,-121 1309.54,-121 1309.54,-117 1305.54,-117 "/>
<polyline fill="none" stroke="black" points="1305.54,-95 1309.54,-95 1309.54,-91 1305.54,-91 "/>
<text text-anchor="middle" x="1361.54" y="-109.8" font-family="Times,serif" font-size="14.00">litellm_db</text>
<text text-anchor="middle" x="1361.54" y="-94.8" font-family="Times,serif" font-size="14.00">(postgres:16)</text>
</g>
<!-- litellm&#45;&gt;litellm_db -->
<g id="edge14" class="edge">
<title>litellm&#45;&gt;litellm_db</title>
<path fill="none" stroke="black" stroke-dasharray="1,5" d="M1253.48,-232.21C1277.82,-215.27 1312.84,-188.16 1336.54,-158 1342.15,-150.87 1346.96,-142.28 1350.81,-134.19"/>
<polygon fill="black" stroke="black" points="1354.01,-135.62 1354.89,-125.06 1347.62,-132.76 1354.01,-135.62"/>
</g>
<!-- 0.0.0.04000 -->
<g id="node17" class="node">
<title>0.0.0.04000</title>
<ellipse fill="none" stroke="black" cx="1225.54" cy="-447.33" rx="69.59" ry="69.59"/>
<text text-anchor="middle" x="1225.54" y="-443.63" font-family="Times,serif" font-size="14.00">0.0.0.0:4000</text>
</g>
<!-- 0.0.0.04000&#45;&gt;litellm -->
<g id="edge13" class="edge">
<title>0.0.0.04000&#45;&gt;litellm</title>
<path fill="none" stroke="black" d="M1225.54,-377.68C1225.54,-344.31 1225.54,-306.04 1225.54,-280.66"/>
<polygon fill="black" stroke="black" points="1229.04,-280.63 1225.54,-270.63 1222.04,-280.63 1229.04,-280.63"/>
<text text-anchor="middle" x="1244.04" y="-348.59" font-family="Times,serif" font-size="14.00">4000</text>
</g>
<!-- litellm_postgres_data -->
<g id="node19" class="node">
<title>litellm_postgres_data</title>
<path fill="none" stroke="black" d="M1446.54,-32.73C1446.54,-34.53 1408.45,-36 1361.54,-36 1314.64,-36 1276.54,-34.53 1276.54,-32.73 1276.54,-32.73 1276.54,-3.27 1276.54,-3.27 1276.54,-1.47 1314.64,0 1361.54,0 1408.45,0 1446.54,-1.47 1446.54,-3.27 1446.54,-3.27 1446.54,-32.73 1446.54,-32.73"/>
<path fill="none" stroke="black" d="M1446.54,-32.73C1446.54,-30.92 1408.45,-29.45 1361.54,-29.45 1314.64,-29.45 1276.54,-30.92 1276.54,-32.73"/>
<text text-anchor="middle" x="1361.54" y="-14.3" font-family="Times,serif" font-size="14.00">litellm_postgres_data</text>
</g>
<!-- litellm_db&#45;&gt;litellm_postgres_data -->
<g id="edge17" class="edge">
<title>litellm_db&#45;&gt;litellm_postgres_data</title>
<path fill="none" stroke="black" stroke-dasharray="5,2" d="M1361.54,-76.58C1361.54,-66.83 1361.54,-55.95 1361.54,-46.3"/>
<polygon fill="black" stroke="black" points="1358.04,-76.76 1361.54,-86.76 1365.04,-76.76 1358.04,-76.76"/>
<polygon fill="black" stroke="black" points="1365.04,-46.04 1361.54,-36.04 1358.04,-46.04 1365.04,-46.04"/>
<text text-anchor="middle" x="1445.04" y="-57.8" font-family="Times,serif" font-size="14.00">/var/lib/postgresql/data</text>
</g>
<!-- 0.0.0.04317 -->
<g id="node21" class="node">
<title>0.0.0.04317</title>
<ellipse fill="none" stroke="black" cx="489.54" cy="-251.39" rx="69.59" ry="69.59"/>
<text text-anchor="middle" x="489.54" y="-247.69" font-family="Times,serif" font-size="14.00">0.0.0.0:4317</text>
</g>
<!-- 0.0.0.04317&#45;&gt;otel&#45;collector -->
<g id="edge19" class="edge">
<title>0.0.0.04317&#45;&gt;otel&#45;collector</title>
<path fill="none" stroke="black" d="M539.17,-202.44C548.53,-193.58 558.28,-184.45 567.54,-176 583.77,-161.19 602.25,-145.01 617.26,-132.05"/>
<polygon fill="black" stroke="black" points="619.91,-134.38 625.2,-125.2 615.34,-129.08 619.91,-134.38"/>
<text text-anchor="middle" x="623.04" y="-146.8" font-family="Times,serif" font-size="14.00">4317</text>
</g>
<!-- 0.0.0.04318 -->
<g id="node22" class="node">
<title>0.0.0.04318</title>
<ellipse fill="none" stroke="black" cx="646.54" cy="-251.39" rx="69.59" ry="69.59"/>
<text text-anchor="middle" x="646.54" y="-247.69" font-family="Times,serif" font-size="14.00">0.0.0.0:4318</text>
</g>
<!-- 0.0.0.04318&#45;&gt;otel&#45;collector -->
<g id="edge20" class="edge">
<title>0.0.0.04318&#45;&gt;otel&#45;collector</title>
<path fill="none" stroke="black" d="M646.54,-181.64C646.54,-165.35 646.54,-148.86 646.54,-135.54"/>
<polygon fill="black" stroke="black" points="650.04,-135.17 646.54,-125.17 643.04,-135.17 650.04,-135.17"/>
<text text-anchor="middle" x="665.04" y="-146.8" font-family="Times,serif" font-size="14.00">4318</text>
</g>
<!-- 0.0.0.08889 -->
<g id="node23" class="node">
<title>0.0.0.08889</title>
<ellipse fill="none" stroke="black" cx="803.54" cy="-251.39" rx="69.59" ry="69.59"/>
<text text-anchor="middle" x="803.54" y="-247.69" font-family="Times,serif" font-size="14.00">0.0.0.0:8889</text>
</g>
<!-- 0.0.0.08889&#45;&gt;otel&#45;collector -->
<g id="edge21" class="edge">
<title>0.0.0.08889&#45;&gt;otel&#45;collector</title>
<path fill="none" stroke="black" d="M753.92,-202.44C744.56,-193.58 734.8,-184.45 725.54,-176 709.32,-161.19 690.84,-145.01 675.83,-132.05"/>
<polygon fill="black" stroke="black" points="677.75,-129.08 667.89,-125.2 673.18,-134.38 677.75,-129.08"/>
<text text-anchor="middle" x="723.04" y="-146.8" font-family="Times,serif" font-size="14.00">8889</text>
</g>
<!-- prometheus -->
<g id="node24" class="node">
<title>prometheus</title>
<polygon fill="none" stroke="black" points="2015.54,-125 1815.54,-125 1815.54,-121 1811.54,-121 1811.54,-117 1815.54,-117 1815.54,-95 1811.54,-95 1811.54,-91 1815.54,-91 1815.54,-87 2015.54,-87 2015.54,-125"/>
<polyline fill="none" stroke="black" points="1815.54,-121 1819.54,-121 1819.54,-117 1815.54,-117 "/>
<polyline fill="none" stroke="black" points="1815.54,-95 1819.54,-95 1819.54,-91 1815.54,-91 "/>
<text text-anchor="middle" x="1915.54" y="-109.8" font-family="Times,serif" font-size="14.00">prometheus</text>
<text text-anchor="middle" x="1915.54" y="-94.8" font-family="Times,serif" font-size="14.00">(prom/prometheus:latest)</text>
</g>
<!-- ./prometheus.yml -->
<g id="node25" class="node">
<title>./prometheus.yml</title>
<path fill="none" stroke="black" d="M1741.54,-32.73C1741.54,-34.53 1709.72,-36 1670.54,-36 1631.37,-36 1599.54,-34.53 1599.54,-32.73 1599.54,-32.73 1599.54,-3.27 1599.54,-3.27 1599.54,-1.47 1631.37,0 1670.54,0 1709.72,0 1741.54,-1.47 1741.54,-3.27 1741.54,-3.27 1741.54,-32.73 1741.54,-32.73"/>
<path fill="none" stroke="black" d="M1741.54,-32.73C1741.54,-30.92 1709.72,-29.45 1670.54,-29.45 1631.37,-29.45 1599.54,-30.92 1599.54,-32.73"/>
<text text-anchor="middle" x="1670.54" y="-14.3" font-family="Times,serif" font-size="14.00">./prometheus.yml</text>
</g>
<!-- prometheus&#45;&gt;./prometheus.yml -->
<g id="edge22" class="edge">
<title>prometheus&#45;&gt;./prometheus.yml</title>
<path fill="none" stroke="black" stroke-dasharray="5,2" d="M1805.2,-99.82C1753.72,-95.12 1699.81,-86.14 1681.54,-69 1675.28,-63.12 1672.17,-54.55 1670.74,-46.16"/>
<polygon fill="black" stroke="black" points="1805.18,-103.33 1815.45,-100.71 1805.79,-96.36 1805.18,-103.33"/>
<polygon fill="black" stroke="black" points="1674.22,-45.8 1669.72,-36.21 1667.26,-46.51 1674.22,-45.8"/>
<text text-anchor="middle" x="1800.54" y="-57.8" font-family="Times,serif" font-size="14.00">/etc/prometheus/prometheus.yml</text>
</g>
<!-- ./prometheus&#45;rules.yml -->
<g id="node26" class="node">
<title>./prometheus&#45;rules.yml</title>
<path fill="none" stroke="black" d="M2022.54,-32.73C2022.54,-34.53 1981.76,-36 1931.54,-36 1881.33,-36 1840.54,-34.53 1840.54,-32.73 1840.54,-32.73 1840.54,-3.27 1840.54,-3.27 1840.54,-1.47 1881.33,0 1931.54,0 1981.76,0 2022.54,-1.47 2022.54,-3.27 2022.54,-3.27 2022.54,-32.73 2022.54,-32.73"/>
<path fill="none" stroke="black" d="M2022.54,-32.73C2022.54,-30.92 1981.76,-29.45 1931.54,-29.45 1881.33,-29.45 1840.54,-30.92 1840.54,-32.73"/>
<text text-anchor="middle" x="1931.54" y="-14.3" font-family="Times,serif" font-size="14.00">./prometheus&#45;rules.yml</text>
</g>
<!-- prometheus&#45;&gt;./prometheus&#45;rules.yml -->
<g id="edge23" class="edge">
<title>prometheus&#45;&gt;./prometheus&#45;rules.yml</title>
<path fill="none" stroke="black" stroke-dasharray="5,2" d="M1920.83,-76.58C1922.66,-66.73 1924.71,-55.72 1926.52,-45.99"/>
<polygon fill="black" stroke="black" points="1917.33,-76.29 1918.94,-86.76 1924.21,-77.57 1917.33,-76.29"/>
<polygon fill="black" stroke="black" points="1929.98,-46.51 1928.37,-36.04 1923.1,-45.23 1929.98,-46.51"/>
<text text-anchor="middle" x="2064.54" y="-57.8" font-family="Times,serif" font-size="14.00">/etc/prometheus/prometheus&#45;rules.yml</text>
</g>
<!-- 0.0.0.09090 -->
<g id="node27" class="node">
<title>0.0.0.09090</title>
<ellipse fill="none" stroke="black" cx="1913.54" cy="-251.39" rx="69.59" ry="69.59"/>
<text text-anchor="middle" x="1913.54" y="-247.69" font-family="Times,serif" font-size="14.00">0.0.0.0:9090</text>
</g>
<!-- 0.0.0.09090&#45;&gt;prometheus -->
<g id="edge24" class="edge">
<title>0.0.0.09090&#45;&gt;prometheus</title>
<path fill="none" stroke="black" d="M1914.5,-181.64C1914.73,-165.35 1914.96,-148.86 1915.15,-135.54"/>
<polygon fill="black" stroke="black" points="1918.65,-135.22 1915.29,-125.17 1911.65,-135.12 1918.65,-135.22"/>
<text text-anchor="middle" x="1934.04" y="-146.8" font-family="Times,serif" font-size="14.00">9090</text>
</g>
<!-- grafana -->
<g id="node28" class="node">
<title>grafana</title>
<polygon fill="none" stroke="black" points="2187.54,-270.39 2001.54,-270.39 2001.54,-266.39 1997.54,-266.39 1997.54,-262.39 2001.54,-262.39 2001.54,-240.39 1997.54,-240.39 1997.54,-236.39 2001.54,-236.39 2001.54,-232.39 2187.54,-232.39 2187.54,-270.39"/>
<polyline fill="none" stroke="black" points="2001.54,-266.39 2005.54,-266.39 2005.54,-262.39 2001.54,-262.39 "/>
<polyline fill="none" stroke="black" points="2001.54,-240.39 2005.54,-240.39 2005.54,-236.39 2001.54,-236.39 "/>
<text text-anchor="middle" x="2094.54" y="-255.19" font-family="Times,serif" font-size="14.00">grafana</text>
<text text-anchor="middle" x="2094.54" y="-240.19" font-family="Times,serif" font-size="14.00">(grafana/grafana:latest)</text>
</g>
<!-- grafana&#45;&gt;prometheus -->
<g id="edge28" class="edge">
<title>grafana&#45;&gt;prometheus</title>
<path fill="none" stroke="black" stroke-dasharray="1,5" d="M2071.87,-232.23C2040,-206.7 1981.84,-160.11 1946.16,-131.52"/>
<polygon fill="black" stroke="black" points="1948.02,-128.53 1938.03,-125.01 1943.65,-134 1948.02,-128.53"/>
</g>
<!-- grafana_data -->
<g id="node29" class="node">
<title>grafana_data</title>
<path fill="none" stroke="black" d="M2147.54,-120.73C2147.54,-122.53 2122.89,-124 2092.54,-124 2062.2,-124 2037.54,-122.53 2037.54,-120.73 2037.54,-120.73 2037.54,-91.27 2037.54,-91.27 2037.54,-89.47 2062.2,-88 2092.54,-88 2122.89,-88 2147.54,-89.47 2147.54,-91.27 2147.54,-91.27 2147.54,-120.73 2147.54,-120.73"/>
<path fill="none" stroke="black" d="M2147.54,-120.73C2147.54,-118.92 2122.89,-117.45 2092.54,-117.45 2062.2,-117.45 2037.54,-118.92 2037.54,-120.73"/>
<text text-anchor="middle" x="2092.54" y="-102.3" font-family="Times,serif" font-size="14.00">grafana_data</text>
</g>
<!-- grafana&#45;&gt;grafana_data -->
<g id="edge25" class="edge">
<title>grafana&#45;&gt;grafana_data</title>
<path fill="none" stroke="black" stroke-dasharray="5,2" d="M2094.15,-221.86C2093.79,-196.44 2093.28,-159.47 2092.93,-134.4"/>
<polygon fill="black" stroke="black" points="2090.65,-222.28 2094.29,-232.23 2097.65,-222.18 2090.65,-222.28"/>
<polygon fill="black" stroke="black" points="2096.42,-134.07 2092.78,-124.12 2089.42,-134.17 2096.42,-134.07"/>
<text text-anchor="middle" x="2148.54" y="-146.8" font-family="Times,serif" font-size="14.00">/var/lib/grafana</text>
</g>
<!-- ./grafana/provisioning -->
<g id="node30" class="node">
<title>./grafana/provisioning</title>
<path fill="none" stroke="black" d="M2339.04,-120.73C2339.04,-122.53 2300.27,-124 2252.54,-124 2204.81,-124 2166.04,-122.53 2166.04,-120.73 2166.04,-120.73 2166.04,-91.27 2166.04,-91.27 2166.04,-89.47 2204.81,-88 2252.54,-88 2300.27,-88 2339.04,-89.47 2339.04,-91.27 2339.04,-91.27 2339.04,-120.73 2339.04,-120.73"/>
<path fill="none" stroke="black" d="M2339.04,-120.73C2339.04,-118.92 2300.27,-117.45 2252.54,-117.45 2204.81,-117.45 2166.04,-118.92 2166.04,-120.73"/>
<text text-anchor="middle" x="2252.54" y="-102.3" font-family="Times,serif" font-size="14.00">./grafana/provisioning</text>
</g>
<!-- grafana&#45;&gt;./grafana/provisioning -->
<g id="edge26" class="edge">
<title>grafana&#45;&gt;./grafana/provisioning</title>
<path fill="none" stroke="black" stroke-dasharray="5,2" d="M2127.03,-226.11C2150.27,-208.2 2181.86,-182.74 2207.54,-158 2215.92,-149.93 2224.52,-140.52 2231.92,-131.99"/>
<polygon fill="black" stroke="black" points="2124.68,-223.49 2118.87,-232.35 2128.93,-229.05 2124.68,-223.49"/>
<polygon fill="black" stroke="black" points="2234.77,-134.04 2238.61,-124.16 2229.45,-129.49 2234.77,-134.04"/>
<text text-anchor="middle" x="2311.04" y="-146.8" font-family="Times,serif" font-size="14.00">/etc/grafana/provisioning</text>
</g>
<!-- 0.0.0.03001 -->
<g id="node31" class="node">
<title>0.0.0.03001</title>
<ellipse fill="none" stroke="black" cx="2094.54" cy="-447.33" rx="69.59" ry="69.59"/>
<text text-anchor="middle" x="2094.54" y="-443.63" font-family="Times,serif" font-size="14.00">0.0.0.0:3001</text>
</g>
<!-- 0.0.0.03001&#45;&gt;grafana -->
<g id="edge27" class="edge">
<title>0.0.0.03001&#45;&gt;grafana</title>
<path fill="none" stroke="black" d="M2094.54,-377.68C2094.54,-344.31 2094.54,-306.04 2094.54,-280.66"/>
<polygon fill="black" stroke="black" points="2098.04,-280.63 2094.54,-270.63 2091.04,-280.63 2098.04,-280.63"/>
<text text-anchor="middle" x="2113.04" y="-348.59" font-family="Times,serif" font-size="14.00">3000</text>
</g>
</g>
</svg>
