<?xml version="1.0" encoding="UTF-8" standalone="no"?>
<!DOCTYPE svg PUBLIC "-//W3C//DTD SVG 1.1//EN"
 "http://www.w3.org/Graphics/SVG/1.1/DTD/svg11.dtd">
<!-- Generated by graphviz version 2.43.0 (0)
 -->
<!-- Title: %3 Pages: 1 -->
<svg width="3436pt" height="894pt"
 viewBox="0.00 0.00 3435.54 893.75" xmlns="http://www.w3.org/2000/svg" xmlns:xlink="http://www.w3.org/1999/xlink">
<g id="graph0" class="graph" transform="scale(1 1) rotate(0) translate(36 857.75)">
<title>%3</title>
<polygon fill="white" stroke="transparent" points="-36,36 -36,-857.75 3399.54,-857.75 3399.54,36 -36,36"/>
<!-- postgres -->
<g id="node1" class="node">
<title>postgres</title>
<polygon fill="none" stroke="black" points="201.54,-373.48 3.54,-373.48 3.54,-369.48 -0.46,-369.48 -0.46,-365.48 3.54,-365.48 3.54,-343.48 -0.46,-343.48 -0.46,-339.48 3.54,-339.48 3.54,-335.48 201.54,-335.48 201.54,-373.48"/>
<polyline fill="none" stroke="black" points="3.54,-369.48 7.54,-369.48 7.54,-365.48 3.54,-365.48 "/>
<polyline fill="none" stroke="black" points="3.54,-343.48 7.54,-343.48 7.54,-339.48 3.54,-339.48 "/>
<text text-anchor="middle" x="102.54" y="-358.28" font-family="Times,serif" font-size="14.00">postgres</text>
<text text-anchor="middle" x="102.54" y="-343.28" font-family="Times,serif" font-size="14.00">(pgvector/pgvector:pg16)</text>
</g>
<!-- postgres_data -->
<g id="node2" class="node">
<title>postgres_data</title>
<path fill="none" stroke="black" d="M161.04,-173.27C161.04,-175.08 134.82,-176.54 102.54,-176.54 70.26,-176.54 44.04,-175.08 44.04,-173.27 44.04,-173.27 44.04,-143.82 44.04,-143.82 44.04,-142.01 70.26,-140.54 102.54,-140.54 134.82,-140.54 161.04,-142.01 161.04,-143.82 161.04,-143.82 161.04,-173.27 161.04,-173.27"/>
<path fill="none" stroke="black" d="M161.04,-173.27C161.04,-171.47 134.82,-170 102.54,-170 70.26,-170 44.04,-171.47 44.04,-173.27"/>
<text text-anchor="middle" x="102.54" y="-154.84" font-family="Times,serif" font-size="14.00">postgres_data</text>
</g>
<!-- postgres&#45;&gt;postgres_data -->
<g id="edge1" class="edge">
<title>postgres&#45;&gt;postgres_data</title>
<path fill="none" stroke="black" stroke-dasharray="5,2" d="M102.54,-325.14C102.54,-288.15 102.54,-223.83 102.54,-187.18"/>
<polygon fill="black" stroke="black" points="99.04,-325.24 102.54,-335.24 106.04,-325.24 99.04,-325.24"/>
<polygon fill="black" stroke="black" points="106.04,-186.76 102.54,-176.76 99.04,-186.76 106.04,-186.76"/>
<text text-anchor="middle" x="186.04" y="-249.89" font-family="Times,serif" font-size="14.00">/var/lib/postgresql/data</text>
</g>
<!-- 0.0.0.05432 -->
<g id="node3" class="node">
<title>0.0.0.05432</title>
<ellipse fill="none" stroke="black" cx="69.54" cy="-556.27" rx="69.59" ry="69.59"/>
<text text-anchor="middle" x="69.54" y="-552.57" font-family="Times,serif" font-size="14.00">0.0.0.0:5432</text>
</g>
<!-- 0.0.0.05432&#45;&gt;postgres -->
<g id="edge2" class="edge">
<title>0.0.0.05432&#45;&gt;postgres</title>
<path fill="none" stroke="black" d="M80.76,-487.35C86.61,-451.96 93.44,-410.57 97.88,-383.74"/>
<polygon fill="black" stroke="black" points="101.39,-383.97 99.56,-373.53 94.48,-382.83 101.39,-383.97"/>
<text text-anchor="middle" x="106.04" y="-451.67" font-family="Times,serif" font-size="14.00">5432</text>
</g>
<!-- backend -->
<g id="node4" class="node">
<title>backend</title>
<polygon fill="none" stroke="black" points="402.04,-575.27 157.04,-575.27 157.04,-571.27 153.04,-571.27 153.04,-567.27 157.04,-567.27 157.04,-545.27 153.04,-545.27 153.04,-541.27 157.04,-541.27 157.04,-537.27 402.04,-537.27 402.04,-575.27"/>
<polyline fill="none" stroke="black" points="157.04,-571.27 161.04,-571.27 161.04,-567.27 157.04,-567.27 "/>
<polyline fill="none" stroke="black" points="157.04,-545.27 161.04,-545.27 161.04,-541.27 157.04,-541.27 "/>
<text text-anchor="middle" x="279.54" y="-560.07" font-family="Times,serif" font-size="14.00">backend</text>
<text text-anchor="middle" x="279.54" y="-545.07" font-family="Times,serif" font-size="14.00">(build from &#39;.&#39; using &#39;Dockerfile&#39;)</text>
</g>
<!-- backend&#45;&gt;postgres -->
<g id="edge5" class="edge">
<title>backend&#45;&gt;postgres</title>
<path fill="none" stroke="black" stroke-dasharray="1,5" d="M263.52,-537.19C232.01,-501.62 161.87,-422.45 125.47,-381.35"/>
<polygon fill="black" stroke="black" points="127.91,-378.83 118.65,-373.67 122.67,-383.47 127.91,-378.83"/>
</g>
<!-- ./app -->
<g id="node5" class="node">
<title>./app</title>
<path fill="none" stroke="black" d="M306.54,-369.21C306.54,-371.01 294.44,-372.48 279.54,-372.48 264.65,-372.48 252.54,-371.01 252.54,-369.21 252.54,-369.21 252.54,-339.75 252.54,-339.75 252.54,-337.95 264.65,-336.48 279.54,-336.48 294.44,-336.48 306.54,-337.95 306.54,-339.75 306.54,-339.75 306.54,-369.21 306.54,-369.21"/>
<path fill="none" stroke="black" d="M306.54,-369.21C306.54,-367.4 294.44,-365.94 279.54,-365.94 264.65,-365.94 252.54,-367.4 252.54,-369.21"/>
<text text-anchor="middle" x="279.54" y="-350.78" font-family="Times,serif" font-size="14.00">./app</text>
</g>
<!-- backend&#45;&gt;./app -->
<g id="edge3" class="edge">
<title>backend&#45;&gt;./app</title>
<path fill="none" stroke="black" stroke-dasharray="5,2" d="M279.54,-527.06C279.54,-488.73 279.54,-420.65 279.54,-382.8"/>
<polygon fill="black" stroke="black" points="276.04,-527.19 279.54,-537.19 283.04,-527.19 276.04,-527.19"/>
<polygon fill="black" stroke="black" points="283.04,-382.53 279.54,-372.53 276.04,-382.53 283.04,-382.53"/>
<text text-anchor="middle" x="310.54" y="-451.67" font-family="Times,serif" font-size="14.00">/app/app</text>
</g>
<!-- otel&#45;collector -->
<g id="node7" class="node">
<title>otel&#45;collector</title>
<polygon fill="none" stroke="black" points="781.04,-373.48 452.04,-373.48 452.04,-369.48 448.04,-369.48 448.04,-365.48 452.04,-365.48 452.04,-343.48 448.04,-343.48 448.04,-339.48 452.04,-339.48 452.04,-335.48 781.04,-335.48 781.04,-373.48"/>
<polyline fill="none" stroke="black" points="452.04,-369.48 456.04,-369.48 456.04,-365.48 452.04,-365.48 "/>
<polyline fill="none" stroke="black" points="452.04,-343.48 456.04,-343.48 456.04,-339.48 452.04,-339.48 "/>
<text text-anchor="middle" x="616.54" y="-358.28" font-family="Times,serif" font-size="14.00">otel&#45;collector</text>
<text text-anchor="middle" x="616.54" y="-343.28" font-family="Times,serif" font-size="14.00">(otel/opentelemetry&#45;collector&#45;contrib:latest)</text>
</g>
<!-- backend&#45;&gt;otel&#45;collector -->
<g id="edge6" class="edge">
<title>backend&#45;&gt;otel&#45;collector</title>
<path fill="none" stroke="black" stroke-dasharray="1,5" d="M310.04,-537.19C371.29,-500.87 509.18,-419.13 577.15,-378.83"/>
<polygon fill="black" stroke="black" points="579.05,-381.78 585.87,-373.67 575.48,-375.76 579.05,-381.78"/>
</g>
<!-- 0.0.0.08800 -->
<g id="node6" class="node">
<title>0.0.0.08800</title>
<ellipse fill="none" stroke="black" cx="279.54" cy="-752.2" rx="69.59" ry="69.59"/>
<text text-anchor="middle" x="279.54" y="-748.5" font-family="Times,serif" font-size="14.00">0.0.0.0:8800</text>
</g>
<!-- 0.0.0.08800&#45;&gt;backend -->
<g id="edge4" class="edge">
<title>0.0.0.08800&#45;&gt;backend</title>
<path fill="none" stroke="black" d="M279.54,-682.56C279.54,-649.19 279.54,-610.91 279.54,-585.54"/>
<polygon fill="black" stroke="black" points="283.04,-585.51 279.54,-575.51 276.04,-585.51 283.04,-585.51"/>
<text text-anchor="middle" x="298.04" y="-653.46" font-family="Times,serif" font-size="14.00">8800</text>
</g>
<!-- ./otel&#45;collector&#45;config.yaml -->
<g id="node21" class="node">
<title>./otel&#45;collector&#45;config.yaml</title>
<path fill="none" stroke="black" d="M718.04,-173.27C718.04,-175.08 672.1,-176.54 615.54,-176.54 558.99,-176.54 513.04,-175.08 513.04,-173.27 513.04,-173.27 513.04,-143.82 513.04,-143.82 513.04,-142.01 558.99,-140.54 615.54,-140.54 672.1,-140.54 718.04,-142.01 718.04,-143.82 718.04,-143.82 718.04,-173.27 718.04,-173.27"/>
<path fill="none" stroke="black" d="M718.04,-173.27C718.04,-171.47 672.1,-170 615.54,-170 558.99,-170 513.04,-171.47 513.04,-173.27"/>
<text text-anchor="middle" x="615.54" y="-154.84" font-family="Times,serif" font-size="14.00">./otel&#45;collector&#45;config.yaml</text>
</g>
<!-- otel&#45;collector&#45;&gt;./otel&#45;collector&#45;config.yaml -->
<g id="edge19" class="edge">
<title>otel&#45;collector&#45;&gt;./otel&#45;collector&#45;config.yaml</title>
<path fill="none" stroke="black" stroke-dasharray="5,2" d="M616.4,-325.14C616.21,-288.15 615.88,-223.83 615.69,-187.18"/>
<polygon fill="black" stroke="black" points="612.9,-325.25 616.45,-335.24 619.9,-325.22 612.9,-325.25"/>
<polygon fill="black" stroke="black" points="619.18,-186.74 615.63,-176.76 612.18,-186.78 619.18,-186.74"/>
<text text-anchor="middle" x="722.04" y="-249.89" font-family="Times,serif" font-size="14.00">/etc/otel&#45;collector&#45;config.yaml</text>
</g>
<!-- jaeger -->
<g id="node25" class="node">
<title>jaeger</title>
<polygon fill="none" stroke="black" points="957.54,-177.54 739.54,-177.54 739.54,-173.54 735.54,-173.54 735.54,-169.54 739.54,-169.54 739.54,-147.54 735.54,-147.54 735.54,-143.54 739.54,-143.54 739.54,-139.54 957.54,-139.54 957.54,-177.54"/>
<polyline fill="none" stroke="black" points="739.54,-173.54 743.54,-173.54 743.54,-169.54 739.54,-169.54 "/>
<polyline fill="none" stroke="black" points="739.54,-147.54 743.54,-147.54 743.54,-143.54 739.54,-143.54 "/>
<text text-anchor="middle" x="848.54" y="-162.34" font-family="Times,serif" font-size="14.00">jaeger</text>
<text text-anchor="middle" x="848.54" y="-147.34" font-family="Times,serif" font-size="14.00">(jaegertracing/jaeger:latest)</text>
</g>
<!-- otel&#45;collector&#45;&gt;jaeger -->
<g id="edge23" class="edge">
<title>otel&#45;collector&#45;&gt;jaeger</title>
<path fill="none" stroke="black" stroke-dasharray="1,5" d="M659.03,-335.46C719.82,-309.58 824.69,-264.61 827.54,-261.09 844.2,-240.53 848.65,-210.12 849.42,-187.93"/>
<polygon fill="black" stroke="black" points="852.93,-187.82 849.55,-177.78 845.93,-187.74 852.93,-187.82"/>
</g>
<!-- frontend -->
<g id="node8" class="node">
<title>frontend</title>
<polygon fill="none" stroke="black" points="2795.04,-575.27 2484.04,-575.27 2484.04,-571.27 2480.04,-571.27 2480.04,-567.27 2484.04,-567.27 2484.04,-545.27 2480.04,-545.27 2480.04,-541.27 2484.04,-541.27 2484.04,-537.27 2795.04,-537.27 2795.04,-575.27"/>
<polyline fill="none" stroke="black" points="2484.04,-571.27 2488.04,-571.27 2488.04,-567.27 2484.04,-567.27 "/>
<polyline fill="none" stroke="black" points="2484.04,-545.27 2488.04,-545.27 2488.04,-541.27 2484.04,-541.27 "/>
<text text-anchor="middle" x="2639.54" y="-560.07" font-family="Times,serif" font-size="14.00">frontend</text>
<text text-anchor="middle" x="2639.54" y="-545.07" font-family="Times,serif" font-size="14.00">(build from &#39;./frontend&#39; using &#39;Dockerfile&#39;)</text>
</g>
<!-- ./frontend -->
<g id="node9" class="node">
<title>./frontend</title>
<path fill="none" stroke="black" d="M2683.04,-369.21C2683.04,-371.01 2663.55,-372.48 2639.54,-372.48 2615.54,-372.48 2596.04,-371.01 2596.04,-369.21 2596.04,-369.21 2596.04,-339.75 2596.04,-339.75 2596.04,-337.95 2615.54,-336.48 2639.54,-336.48 2663.55,-336.48 2683.04,-337.95 2683.04,-339.75 2683.04,-339.75 2683.04,-369.21 2683.04,-369.21"/>
<path fill="none" stroke="black" d="M2683.04,-369.21C2683.04,-367.4 2663.55,-365.94 2639.54,-365.94 2615.54,-365.94 2596.04,-367.4 2596.04,-369.21"/>
<text text-anchor="middle" x="2639.54" y="-350.78" font-family="Times,serif" font-size="14.00">./frontend</text>
</g>
<!-- frontend&#45;&gt;./frontend -->
<g id="edge7" class="edge">
<title>frontend&#45;&gt;./frontend</title>
<path fill="none" stroke="black" stroke-dasharray="5,2" d="M2639.54,-527.06C2639.54,-488.73 2639.54,-420.65 2639.54,-382.8"/>
<polygon fill="black" stroke="black" points="2636.04,-527.19 2639.54,-537.19 2643.04,-527.19 2636.04,-527.19"/>
<polygon fill="black" stroke="black" points="2643.04,-382.53 2639.54,-372.53 2636.04,-382.53 2643.04,-382.53"/>
<text text-anchor="middle" x="2655.04" y="-451.67" font-family="Times,serif" font-size="14.00">/app</text>
</g>
<!-- 0.0.0.03000 -->
<g id="node10" class="node">
<title>0.0.0.03000</title>
<ellipse fill="none" stroke="black" cx="2639.54" cy="-752.2" rx="69.59" ry="69.59"/>
<text text-anchor="middle" x="2639.54" y="-748.5" font-family="Times,serif" font-size="14.00">0.0.0.0:3000</text>
</g>
<!-- 0.0.0.03000&#45;&gt;frontend -->
<g id="edge8" class="edge">
<title>0.0.0.03000&#45;&gt;frontend</title>
<path fill="none" stroke="black" d="M2639.54,-682.56C2639.54,-649.19 2639.54,-610.91 2639.54,-585.54"/>
<polygon fill="black" stroke="black" points="2643.04,-585.51 2639.54,-575.51 2636.04,-585.51 2643.04,-585.51"/>
<text text-anchor="middle" x="2658.04" y="-653.46" font-family="Times,serif" font-size="14.00">3000</text>
</g>
<!-- ollama -->
<g id="node11" class="node">
<title>ollama</title>
<polygon fill="none" stroke="black" points="1139.04,-373.48 968.04,-373.48 968.04,-369.48 964.04,-369.48 964.04,-365.48 968.04,-365.48 968.04,-343.48 964.04,-343.48 964.04,-339.48 968.04,-339.48 968.04,-335.48 1139.04,-335.48 1139.04,-373.48"/>
<polyline fill="none" stroke="black" points="968.04,-369.48 972.04,-369.48 972.04,-365.48 968.04,-365.48 "/>
<polyline fill="none" stroke="black" points="968.04,-343.48 972.04,-343.48 972.04,-339.48 968.04,-339.48 "/>
<text text-anchor="middle" x="1053.54" y="-358.28" font-family="Times,serif" font-size="14.00">ollama</text>
<text text-anchor="middle" x="1053.54" y="-343.28" font-family="Times,serif" font-size="14.00">(ollama/ollama:latest)</text>
</g>
<!-- ollama_data -->
<g id="node12" class="node">
<title>ollama_data</title>
<path fill="none" stroke="black" d="M1082.54,-173.27C1082.54,-175.08 1059.68,-176.54 1031.54,-176.54 1003.4,-176.54 980.54,-175.08 980.54,-173.27 980.54,-173.27 980.54,-143.82 980.54,-143.82 980.54,-142.01 1003.4,-140.54 1031.54,-140.54 1059.68,-140.54 1082.54,-142.01 1082.54,-143.82 1082.54,-143.82 1082.54,-173.27 1082.54,-173.27"/>
<path fill="none" stroke="black" d="M1082.54,-173.27C1082.54,-171.47 1059.68,-170 1031.54,-170 1003.4,-170 980.54,-171.47 980.54,-173.27"/>
<text text-anchor="middle" x="1031.54" y="-154.84" font-family="Times,serif" font-size="14.00">ollama_data</text>
</g>
<!-- ollama&#45;&gt;ollama_data -->
<g id="edge9" class="edge">
<title>ollama&#45;&gt;ollama_data</title>
<path fill="none" stroke="black" stroke-dasharray="5,2" d="M1050.33,-325.14C1046.12,-287.99 1038.77,-223.27 1034.63,-186.71"/>
<polygon fill="black" stroke="black" points="1046.87,-325.69 1051.47,-335.24 1053.82,-324.91 1046.87,-325.69"/>
<polygon fill="black" stroke="black" points="1038.1,-186.3 1033.5,-176.76 1031.15,-187.09 1038.1,-186.3"/>
<text text-anchor="middle" x="1088.04" y="-249.89" font-family="Times,serif" font-size="14.00">/root/.ollama</text>
</g>
<!-- ./ollama&#45;init.sh -->
<g id="node13" class="node">
<title>./ollama&#45;init.sh</title>
<path fill="none" stroke="black" d="M1222.54,-173.27C1222.54,-175.08 1195.2,-176.54 1161.54,-176.54 1127.89,-176.54 1100.54,-175.08 1100.54,-173.27 1100.54,-173.27 1100.54,-143.82 1100.54,-143.82 1100.54,-142.01 1127.89,-140.54 1161.54,-140.54 1195.2,-140.54 1222.54,-142.01 1222.54,-143.82 1222.54,-143.82 1222.54,-173.27 1222.54,-173.27"/>
<path fill="none" stroke="black" d="M1222.54,-173.27C1222.54,-171.47 1195.2,-170 1161.54,-170 1127.89,-170 1100.54,-171.47 1100.54,-173.27"/>
<text text-anchor="middle" x="1161.54" y="-154.84" font-family="Times,serif" font-size="14.00">./ollama&#45;init.sh</text>
</g>
<!-- ollama&#45;&gt;./ollama&#45;init.sh -->
<g id="edge10" class="edge">
<title>ollama&#45;&gt;./ollama&#45;init.sh</title>
<path fill="none" stroke="black" stroke-dasharray="5,2" d="M1083.06,-328.33C1101.37,-311.17 1123.93,-286.93 1137.54,-261.09 1149.9,-237.64 1155.97,-207.84 1158.9,-186.59"/>
<polygon fill="black" stroke="black" points="1080.53,-325.9 1075.51,-335.23 1085.25,-331.07 1080.53,-325.9"/>
<polygon fill="black" stroke="black" points="1162.38,-186.98 1160.14,-176.63 1155.44,-186.12 1162.38,-186.98"/>
<text text-anchor="middle" x="1240.54" y="-249.89" font-family="Times,serif" font-size="14.00">/usr/local/bin/ollama&#45;init.sh</text>
</g>
<!-- 0.0.0.011434 -->
<g id="node14" class="node">
<title>0.0.0.011434</title>
<ellipse fill="none" stroke="black" cx="1024.54" cy="-556.27" rx="75.29" ry="75.29"/>
<text text-anchor="middle" x="1024.54" y="-552.57" font-family="Times,serif" font-size="14.00">0.0.0.0:11434</text>
</g>
<!-- 0.0.0.011434&#45;&gt;ollama -->
<g id="edge11" class="edge">
<title>0.0.0.011434&#45;&gt;ollama</title>
<path fill="none" stroke="black" d="M1035.26,-481.44C1040.2,-447.4 1045.77,-409.02 1049.45,-383.66"/>
<polygon fill="black" stroke="black" points="1052.93,-384.05 1050.91,-373.65 1046.01,-383.04 1052.93,-384.05"/>
<text text-anchor="middle" x="1063.54" y="-451.67" font-family="Times,serif" font-size="14.00">11434</text>
</g>
<!-- litellm -->
<g id="node15" class="node">
<title>litellm</title>
<polygon fill="none" stroke="black" points="1449.54,-575.27 1117.54,-575.27 1117.54,-571.27 1113.54,-571.27 1113.54,-567.27 1117.54,-567.27 1117.54,-545.27 1113.54,-545.27 1113.54,-541.27 1117.54,-541.27 1117.54,-537.27 1449.54,-537.27 1449.54,-575.27"/>
<polyline fill="none" stroke="black" points="1117.54,-571.27 1121.54,-571.27 1121.54,-567.27 1117.54,-567.27 "/>
<polyline fill="none" stroke="black" points="1117.54,-545.27 1121.54,-545.27 1121.54,-541.27 1117.54,-541.27 "/>
<text text-anchor="middle" x="1283.54" y="-560.07" font-family="Times,serif" font-size="14.00">litellm</text>
<text text-anchor="middle" x="1283.54" y="-545.07" font-family="Times,serif" font-size="14.00">(ghcr.io/berriai/litellm&#45;database:main&#45;latest)</text>
</g>
<!-- litellm&#45;&gt;otel&#45;collector -->
<g id="edge15" class="edge">
<title>litellm&#45;&gt;otel&#45;collector</title>
<path fill="none" stroke="black" stroke-dasharray="1,5" d="M1248.28,-537.26C1213.58,-520.27 1158.67,-495.31 1108.54,-480.87 971,-441.25 928.05,-469.64 790.54,-429.87 744.96,-416.69 695.43,-394.71 660.92,-378.05"/>
<polygon fill="black" stroke="black" points="662.12,-374.74 651.6,-373.5 659.05,-381.03 662.12,-374.74"/>
</g>
<!-- litellm&#45;&gt;ollama -->
<g id="edge16" class="edge">
<title>litellm&#45;&gt;ollama</title>
<path fill="none" stroke="black" stroke-dasharray="1,5" d="M1262.73,-537.19C1221.44,-501.32 1129.11,-421.12 1082.15,-380.33"/>
<polygon fill="black" stroke="black" points="1084.32,-377.58 1074.48,-373.67 1079.73,-382.87 1084.32,-377.58"/>
</g>
<!-- ./litellm_config.yaml -->
<g id="node16" class="node">
<title>./litellm_config.yaml</title>
<path fill="none" stroke="black" d="M1317.54,-369.21C1317.54,-371.01 1281.69,-372.48 1237.54,-372.48 1193.4,-372.48 1157.54,-371.01 1157.54,-369.21 1157.54,-369.21 1157.54,-339.75 1157.54,-339.75 1157.54,-337.95 1193.4,-336.48 1237.54,-336.48 1281.69,-336.48 1317.54,-337.95 1317.54,-339.75 1317.54,-339.75 1317.54,-369.21 1317.54,-369.21"/>
<path fill="none" stroke="black" d="M1317.54,-369.21C1317.54,-367.4 1281.69,-365.94 1237.54,-365.94 1193.4,-365.94 1157.54,-367.4 1157.54,-369.21"/>
<text text-anchor="middle" x="1237.54" y="-350.78" font-family="Times,serif" font-size="14.00">./litellm_config.yaml</text>
</g>
<!-- litellm&#45;&gt;./litellm_config.yaml -->
<g id="edge12" class="edge">
<title>litellm&#45;&gt;./litellm_config.yaml</title>
<path fill="none" stroke="black" stroke-dasharray="5,2" d="M1271.49,-527.91C1264.01,-509.8 1254.85,-485.33 1249.54,-462.87 1243.24,-436.17 1240.22,-404.91 1238.79,-383.03"/>
<polygon fill="black" stroke="black" points="1268.33,-529.41 1275.44,-537.26 1274.78,-526.69 1268.33,-529.41"/>
<polygon fill="black" stroke="black" points="1242.27,-382.59 1238.2,-372.81 1235.28,-383 1242.27,-382.59"/>
<text text-anchor="middle" x="1308.54" y="-451.67" font-family="Times,serif" font-size="14.00">/app/config.yaml</text>
</g>
<!-- litellm_db -->
<g id="node18" class="node">
<title>litellm_db</title>
<polygon fill="none" stroke="black" points="1447.54,-373.48 1335.54,-373.48 1335.54,-369.48 1331.54,-369.48 1331.54,-365.48 1335.54,-365.48 1335.54,-343.48 1331.54,-343.48 1331.54,-339.48 1335.54,-339.48 1335.54,-335.48 1447.54,-335.48 1447.54,-373.48"/>
<polyline fill="none" stroke="black" points="1335.54,-369.48 1339.54,-369.48 1339.54,-365.48 1335.54,-365.48 "/>
<polyline fill="none" stroke="black" points="1335.54,-343.48 1339.54,-343.48 1339.54,-339.48 1335.54,-339.48 "/>
<text text-anchor="middle" x="1391.54" y="-358.28" font-family="Times,serif" font-size="14.00">litellm_db</text>
<text text-anchor="middle" x="1391.54" y="-343.28" font-family="Times,serif" font-size="14.00">(postgres:16)</text>
</g>
<!-- litellm&#45;&gt;litellm_db -->
<g id="edge14" class="edge">
<title>litellm&#45;&gt;litellm_db</title>
<path fill="none" stroke="black" stroke-dasharray="1,5" d="M1305.6,-537.06C1324.89,-519.92 1352.16,-492.5 1367.54,-462.87 1380.48,-437.96 1386.47,-406.26 1389.23,-383.78"/>
<polygon fill="black" stroke="black" points="1392.74,-383.87 1390.34,-373.55 1385.78,-383.11 1392.74,-383.87"/>
</g>
<!-- openmeter -->
<g id="node19" class="node">
<title>openmeter</title>
<polygon fill="none" stroke="black" points="2094.54,-373.48 1798.54,-373.48 1798.54,-369.48 1794.54,-369.48 1794.54,-365.48 1798.54,-365.48 1798.54,-343.48 1794.54,-343.48 1794.54,-339.48 1798.54,-339.48 1798.54,-335.48 2094.54,-335.48 2094.54,-373.48"/>
<polyline fill="none" stroke="black" points="1798.54,-369.48 1802.54,-369.48 1802.54,-365.48 1798.54,-365.48 "/>
<polyline fill="none" stroke="black" points="1798.54,-343.48 1802.54,-343.48 1802.54,-339.48 1798.54,-339.48 "/>
<text text-anchor="middle" x="1946.54" y="-358.28" font-family="Times,serif" font-size="14.00">openmeter</text>
<text text-anchor="middle" x="1946.54" y="-343.28" font-family="Times,serif" font-size="14.00">(ghcr.io/openmeterio/openmeter:latest)</text>
</g>
<!-- litellm&#45;&gt;openmeter -->
<g id="edge17" class="edge">
<title>litellm&#45;&gt;openmeter</title>
<path fill="none" stroke="black" stroke-dasharray="1,5" d="M1380.82,-537.18C1483.97,-516.61 1650.81,-479.37 1789.54,-429.87 1829.58,-415.59 1873.11,-394.49 1904.16,-378.41"/>
<polygon fill="black" stroke="black" points="1906.14,-381.32 1913.38,-373.59 1902.89,-375.12 1906.14,-381.32"/>
</g>
<!-- 0.0.0.04000 -->
<g id="node17" class="node">
<title>0.0.0.04000</title>
<ellipse fill="none" stroke="black" cx="1283.54" cy="-752.2" rx="69.59" ry="69.59"/>
<text text-anchor="middle" x="1283.54" y="-748.5" font-family="Times,serif" font-size="14.00">0.0.0.0:4000</text>
</g>
<!-- 0.0.0.04000&#45;&gt;litellm -->
<g id="edge13" class="edge">
<title>0.0.0.04000&#45;&gt;litellm</title>
<path fill="none" stroke="black" d="M1283.54,-682.56C1283.54,-649.19 1283.54,-610.91 1283.54,-585.54"/>
<polygon fill="black" stroke="black" points="1287.04,-585.51 1283.54,-575.51 1280.04,-585.51 1287.04,-585.51"/>
<text text-anchor="middle" x="1302.04" y="-653.46" font-family="Times,serif" font-size="14.00">4000</text>
</g>
<!-- litellm_postgres_data -->
<g id="node20" class="node">
<title>litellm_postgres_data</title>
<path fill="none" stroke="black" d="M1466.54,-173.27C1466.54,-175.08 1428.45,-176.54 1381.54,-176.54 1334.64,-176.54 1296.54,-175.08 1296.54,-173.27 1296.54,-173.27 1296.54,-143.82 1296.54,-143.82 1296.54,-142.01 1334.64,-140.54 1381.54,-140.54 1428.45,-140.54 1466.54,-142.01 1466.54,-143.82 1466.54,-143.82 1466.54,-173.27 1466.54,-173.27"/>
<path fill="none" stroke="black" d="M1466.54,-173.27C1466.54,-171.47 1428.45,-170 1381.54,-170 1334.64,-170 1296.54,-171.47 1296.54,-173.27"/>
<text text-anchor="middle" x="1381.54" y="-154.84" font-family="Times,serif" font-size="14.00">litellm_postgres_data</text>
</g>
<!-- litellm_db&#45;&gt;litellm_postgres_data -->
<g id="edge18" class="edge">
<title>litellm_db&#45;&gt;litellm_postgres_data</title>
<path fill="none" stroke="black" stroke-dasharray="5,2" d="M1388.17,-325.46C1386.13,-307.17 1383.7,-282.75 1382.54,-261.09 1381.2,-236.02 1381.04,-207.42 1381.17,-186.97"/>
<polygon fill="black" stroke="black" points="1384.7,-325.92 1389.32,-335.46 1391.66,-325.12 1384.7,-325.92"/>
<polygon fill="black" stroke="black" points="1384.67,-186.84 1381.26,-176.81 1377.67,-186.78 1384.67,-186.84"/>
<text text-anchor="middle" x="1466.04" y="-249.89" font-family="Times,serif" font-size="14.00">/var/lib/postgresql/data</text>
</g>
<!-- ./openmeter&#45;config.yml -->
<g id="node35" class="node">
<title>./openmeter&#45;config.yml</title>
<path fill="none" stroke="black" d="M2042.04,-173.27C2042.04,-175.08 2001.48,-176.54 1951.54,-176.54 1901.61,-176.54 1861.04,-175.08 1861.04,-173.27 1861.04,-173.27 1861.04,-143.82 1861.04,-143.82 1861.04,-142.01 1901.61,-140.54 1951.54,-140.54 2001.48,-140.54 2042.04,-142.01 2042.04,-143.82 2042.04,-143.82 2042.04,-173.27 2042.04,-173.27"/>
<path fill="none" stroke="black" d="M2042.04,-173.27C2042.04,-171.47 2001.48,-170 1951.54,-170 1901.61,-170 1861.04,-171.47 1861.04,-173.27"/>
<text text-anchor="middle" x="1951.54" y="-154.84" font-family="Times,serif" font-size="14.00">./openmeter&#45;config.yml</text>
</g>
<!-- openmeter&#45;&gt;./openmeter&#45;config.yml -->
<g id="edge32" class="edge">
<title>openmeter&#45;&gt;./openmeter&#45;config.yml</title>
<path fill="none" stroke="black" stroke-dasharray="5,2" d="M1947.27,-325.14C1948.23,-288.15 1949.89,-223.83 1950.83,-187.18"/>
<polygon fill="black" stroke="black" points="1943.77,-325.15 1947.01,-335.24 1950.77,-325.33 1943.77,-325.15"/>
<polygon fill="black" stroke="black" points="1954.34,-186.85 1951.1,-176.76 1947.34,-186.67 1954.34,-186.85"/>
<text text-anchor="middle" x="2008.54" y="-249.89" font-family="Times,serif" font-size="14.00">/app/config.yaml</text>
</g>
<!-- clickhouse -->
<g id="node38" class="node">
<title>clickhouse</title>
<polygon fill="none" stroke="black" points="1843.04,-177.54 1568.04,-177.54 1568.04,-173.54 1564.04,-173.54 1564.04,-169.54 1568.04,-169.54 1568.04,-147.54 1564.04,-147.54 1564.04,-143.54 1568.04,-143.54 1568.04,-139.54 1843.04,-139.54 1843.04,-177.54"/>
<polyline fill="none" stroke="black" points="1568.04,-173.54 1572.04,-173.54 1572.04,-169.54 1568.04,-169.54 "/>
<polyline fill="none" stroke="black" points="1568.04,-147.54 1572.04,-147.54 1572.04,-143.54 1568.04,-143.54 "/>
<text text-anchor="middle" x="1705.54" y="-162.34" font-family="Times,serif" font-size="14.00">clickhouse</text>
<text text-anchor="middle" x="1705.54" y="-147.34" font-family="Times,serif" font-size="14.00">(clickhouse/clickhouse&#45;server:latest)</text>
</g>
<!-- openmeter&#45;&gt;clickhouse -->
<g id="edge35" class="edge">
<title>openmeter&#45;&gt;clickhouse</title>
<path fill="none" stroke="black" stroke-dasharray="1,5" d="M1923.87,-335.24C1880.34,-300.21 1785.03,-223.51 1736.01,-184.06"/>
<polygon fill="black" stroke="black" points="1737.97,-181.14 1727.98,-177.6 1733.58,-186.6 1737.97,-181.14"/>
</g>
<!-- kafka -->
<g id="node39" class="node">
<title>kafka</title>
<polygon fill="none" stroke="black" points="2338.04,-177.54 2115.04,-177.54 2115.04,-173.54 2111.04,-173.54 2111.04,-169.54 2115.04,-169.54 2115.04,-147.54 2111.04,-147.54 2111.04,-143.54 2115.04,-143.54 2115.04,-139.54 2338.04,-139.54 2338.04,-177.54"/>
<polyline fill="none" stroke="black" points="2115.04,-173.54 2119.04,-173.54 2119.04,-169.54 2115.04,-169.54 "/>
<polyline fill="none" stroke="black" points="2115.04,-147.54 2119.04,-147.54 2119.04,-143.54 2115.04,-143.54 "/>
<text text-anchor="middle" x="2226.54" y="-162.34" font-family="Times,serif" font-size="14.00">kafka</text>
<text text-anchor="middle" x="2226.54" y="-147.34" font-family="Times,serif" font-size="14.00">(confluentinc/cp&#45;kafka:latest)</text>
</g>
<!-- openmeter&#45;&gt;kafka -->
<g id="edge36" class="edge">
<title>openmeter&#45;&gt;kafka</title>
<path fill="none" stroke="black" stroke-dasharray="1,5" d="M1972.63,-335.41C2023.38,-300.26 2135.37,-222.69 2192.13,-183.38"/>
<polygon fill="black" stroke="black" points="2194.19,-186.21 2200.42,-177.64 2190.2,-180.46 2194.19,-186.21"/>
</g>
<!-- 0.0.0.04317 -->
<g id="node22" class="node">
<title>0.0.0.04317</title>
<ellipse fill="none" stroke="black" cx="489.54" cy="-556.27" rx="69.59" ry="69.59"/>
<text text-anchor="middle" x="489.54" y="-552.57" font-family="Times,serif" font-size="14.00">0.0.0.0:4317</text>
</g>
<!-- 0.0.0.04317&#45;&gt;otel&#45;collector -->
<g id="edge20" class="edge">
<title>0.0.0.04317&#45;&gt;otel&#45;collector</title>
<path fill="none" stroke="black" d="M526.45,-497.21C550.61,-459.21 581.03,-411.34 599.62,-382.1"/>
<polygon fill="black" stroke="black" points="602.58,-383.97 604.99,-373.65 596.68,-380.21 602.58,-383.97"/>
<text text-anchor="middle" x="576.04" y="-451.67" font-family="Times,serif" font-size="14.00">4317</text>
</g>
<!-- 0.0.0.04318 -->
<g id="node23" class="node">
<title>0.0.0.04318</title>
<ellipse fill="none" stroke="black" cx="646.54" cy="-556.27" rx="69.59" ry="69.59"/>
<text text-anchor="middle" x="646.54" y="-552.57" font-family="Times,serif" font-size="14.00">0.0.0.0:4318</text>
</g>
<!-- 0.0.0.04318&#45;&gt;otel&#45;collector -->
<g id="edge21" class="edge">
<title>0.0.0.04318&#45;&gt;otel&#45;collector</title>
<path fill="none" stroke="black" d="M636.35,-487.35C631.03,-451.96 624.82,-410.57 620.79,-383.74"/>
<polygon fill="black" stroke="black" points="624.2,-382.9 619.25,-373.53 617.28,-383.94 624.2,-382.9"/>
<text text-anchor="middle" x="651.04" y="-451.67" font-family="Times,serif" font-size="14.00">4318</text>
</g>
<!-- 0.0.0.08889 -->
<g id="node24" class="node">
<title>0.0.0.08889</title>
<ellipse fill="none" stroke="black" cx="803.54" cy="-556.27" rx="69.59" ry="69.59"/>
<text text-anchor="middle" x="803.54" y="-552.57" font-family="Times,serif" font-size="14.00">0.0.0.0:8889</text>
</g>
<!-- 0.0.0.08889&#45;&gt;otel&#45;collector -->
<g id="edge22" class="edge">
<title>0.0.0.08889&#45;&gt;otel&#45;collector</title>
<path fill="none" stroke="black" d="M756.36,-504.85C719.45,-465.42 669.67,-412.24 640.54,-381.12"/>
<polygon fill="black" stroke="black" points="642.99,-378.62 633.6,-373.71 637.88,-383.4 642.99,-378.62"/>
<text text-anchor="middle" x="735.04" y="-451.67" font-family="Times,serif" font-size="14.00">8889</text>
</g>
<!-- 0.0.0.016686 -->
<g id="node26" class="node">
<title>0.0.0.016686</title>
<ellipse fill="none" stroke="black" cx="874.54" cy="-354.48" rx="75.29" ry="75.29"/>
<text text-anchor="middle" x="874.54" y="-350.78" font-family="Times,serif" font-size="14.00">0.0.0.0:16686</text>
</g>
<!-- 0.0.0.016686&#45;&gt;jaeger -->
<g id="edge24" class="edge">
<title>0.0.0.016686&#45;&gt;jaeger</title>
<path fill="none" stroke="black" d="M864.64,-279.61C860.36,-247.68 855.6,-212.2 852.38,-188.14"/>
<polygon fill="black" stroke="black" points="855.81,-187.39 851.01,-177.95 848.87,-188.32 855.81,-187.39"/>
<text text-anchor="middle" x="884.54" y="-249.89" font-family="Times,serif" font-size="14.00">16686</text>
</g>
<!-- prometheus -->
<g id="node27" class="node">
<title>prometheus</title>
<polygon fill="none" stroke="black" points="2984.54,-373.48 2784.54,-373.48 2784.54,-369.48 2780.54,-369.48 2780.54,-365.48 2784.54,-365.48 2784.54,-343.48 2780.54,-343.48 2780.54,-339.48 2784.54,-339.48 2784.54,-335.48 2984.54,-335.48 2984.54,-373.48"/>
<polyline fill="none" stroke="black" points="2784.54,-369.48 2788.54,-369.48 2788.54,-365.48 2784.54,-365.48 "/>
<polyline fill="none" stroke="black" points="2784.54,-343.48 2788.54,-343.48 2788.54,-339.48 2784.54,-339.48 "/>
<text text-anchor="middle" x="2884.54" y="-358.28" font-family="Times,serif" font-size="14.00">prometheus</text>
<text text-anchor="middle" x="2884.54" y="-343.28" font-family="Times,serif" font-size="14.00">(prom/prometheus:latest)</text>
</g>
<!-- ./prometheus.yml -->
<g id="node28" class="node">
<title>./prometheus.yml</title>
<path fill="none" stroke="black" d="M2824.54,-173.27C2824.54,-175.08 2792.72,-176.54 2753.54,-176.54 2714.37,-176.54 2682.54,-175.08 2682.54,-173.27 2682.54,-173.27 2682.54,-143.82 2682.54,-143.82 2682.54,-142.01 2714.37,-140.54 2753.54,-140.54 2792.72,-140.54 2824.54,-142.01 2824.54,-143.82 2824.54,-143.82 2824.54,-173.27 2824.54,-173.27"/>
<path fill="none" stroke="black" d="M2824.54,-173.27C2824.54,-171.47 2792.72,-170 2753.54,-170 2714.37,-170 2682.54,-171.47 2682.54,-173.27"/>
<text text-anchor="middle" x="2753.54" y="-154.84" font-family="Times,serif" font-size="14.00">./prometheus.yml</text>
</g>
<!-- prometheus&#45;&gt;./prometheus.yml -->
<g id="edge25" class="edge">
<title>prometheus&#45;&gt;./prometheus.yml</title>
<path fill="none" stroke="black" stroke-dasharray="5,2" d="M2829.01,-330.71C2799.99,-315.6 2767.14,-292.69 2750.54,-261.09 2738.49,-238.14 2741.27,-208.08 2745.82,-186.63"/>
<polygon fill="black" stroke="black" points="2827.76,-333.99 2838.27,-335.34 2830.89,-327.73 2827.76,-333.99"/>
<polygon fill="black" stroke="black" points="2749.23,-187.4 2748.13,-176.86 2742.42,-185.78 2749.23,-187.4"/>
<text text-anchor="middle" x="2869.54" y="-249.89" font-family="Times,serif" font-size="14.00">/etc/prometheus/prometheus.yml</text>
</g>
<!-- ./prometheus&#45;rules.yml -->
<g id="node29" class="node">
<title>./prometheus&#45;rules.yml</title>
<path fill="none" stroke="black" d="M3105.54,-173.27C3105.54,-175.08 3064.76,-176.54 3014.54,-176.54 2964.33,-176.54 2923.54,-175.08 2923.54,-173.27 2923.54,-173.27 2923.54,-143.82 2923.54,-143.82 2923.54,-142.01 2964.33,-140.54 3014.54,-140.54 3064.76,-140.54 3105.54,-142.01 3105.54,-143.82 3105.54,-143.82 3105.54,-173.27 3105.54,-173.27"/>
<path fill="none" stroke="black" d="M3105.54,-173.27C3105.54,-171.47 3064.76,-170 3014.54,-170 2964.33,-170 2923.54,-171.47 2923.54,-173.27"/>
<text text-anchor="middle" x="3014.54" y="-154.84" font-family="Times,serif" font-size="14.00">./prometheus&#45;rules.yml</text>
</g>
<!-- prometheus&#45;&gt;./prometheus&#45;rules.yml -->
<g id="edge26" class="edge">
<title>prometheus&#45;&gt;./prometheus&#45;rules.yml</title>
<path fill="none" stroke="black" stroke-dasharray="5,2" d="M2923.42,-329.72C2946.97,-313.32 2975.65,-289.39 2992.54,-261.09 3006.15,-238.3 3011.38,-208.16 3013.37,-186.65"/>
<polygon fill="black" stroke="black" points="2921.32,-326.92 2915,-335.42 2925.24,-332.71 2921.32,-326.92"/>
<polygon fill="black" stroke="black" points="3016.87,-186.8 3014.13,-176.56 3009.89,-186.27 3016.87,-186.8"/>
<text text-anchor="middle" x="3138.54" y="-249.89" font-family="Times,serif" font-size="14.00">/etc/prometheus/prometheus&#45;rules.yml</text>
</g>
<!-- 0.0.0.09090 -->
<g id="node30" class="node">
<title>0.0.0.09090</title>
<ellipse fill="none" stroke="black" cx="2882.54" cy="-556.27" rx="69.59" ry="69.59"/>
<text text-anchor="middle" x="2882.54" y="-552.57" font-family="Times,serif" font-size="14.00">0.0.0.0:9090</text>
</g>
<!-- 0.0.0.09090&#45;&gt;prometheus -->
<g id="edge27" class="edge">
<title>0.0.0.09090&#45;&gt;prometheus</title>
<path fill="none" stroke="black" d="M2883.23,-486.51C2883.58,-451.39 2883.99,-410.57 2884.26,-383.94"/>
<polygon fill="black" stroke="black" points="2887.76,-383.83 2884.36,-373.8 2880.76,-383.76 2887.76,-383.83"/>
<text text-anchor="middle" x="2903.04" y="-451.67" font-family="Times,serif" font-size="14.00">9090</text>
</g>
<!-- grafana -->
<g id="node31" class="node">
<title>grafana</title>
<polygon fill="none" stroke="black" points="3156.54,-575.27 2970.54,-575.27 2970.54,-571.27 2966.54,-571.27 2966.54,-567.27 2970.54,-567.27 2970.54,-545.27 2966.54,-545.27 2966.54,-541.27 2970.54,-541.27 2970.54,-537.27 3156.54,-537.27 3156.54,-575.27"/>
<polyline fill="none" stroke="black" points="2970.54,-571.27 2974.54,-571.27 2974.54,-567.27 2970.54,-567.27 "/>
<polyline fill="none" stroke="black" points="2970.54,-545.27 2974.54,-545.27 2974.54,-541.27 2970.54,-541.27 "/>
<text text-anchor="middle" x="3063.54" y="-560.07" font-family="Times,serif" font-size="14.00">grafana</text>
<text text-anchor="middle" x="3063.54" y="-545.07" font-family="Times,serif" font-size="14.00">(grafana/grafana:latest)</text>
</g>
<!-- grafana&#45;&gt;prometheus -->
<g id="edge31" class="edge">
<title>grafana&#45;&gt;prometheus</title>
<path fill="none" stroke="black" stroke-dasharray="1,5" d="M3047.34,-537.19C3015.47,-501.62 2944.54,-422.45 2907.72,-381.35"/>
<polygon fill="black" stroke="black" points="2910.12,-378.78 2900.84,-373.67 2904.9,-383.45 2910.12,-378.78"/>
</g>
<!-- grafana_data -->
<g id="node32" class="node">
<title>grafana_data</title>
<path fill="none" stroke="black" d="M3116.54,-369.21C3116.54,-371.01 3091.89,-372.48 3061.54,-372.48 3031.2,-372.48 3006.54,-371.01 3006.54,-369.21 3006.54,-369.21 3006.54,-339.75 3006.54,-339.75 3006.54,-337.95 3031.2,-336.48 3061.54,-336.48 3091.89,-336.48 3116.54,-337.95 3116.54,-339.75 3116.54,-339.75 3116.54,-369.21 3116.54,-369.21"/>
<path fill="none" stroke="black" d="M3116.54,-369.21C3116.54,-367.4 3091.89,-365.94 3061.54,-365.94 3031.2,-365.94 3006.54,-367.4 3006.54,-369.21"/>
<text text-anchor="middle" x="3061.54" y="-350.78" font-family="Times,serif" font-size="14.00">grafana_data</text>
</g>
<!-- grafana&#45;&gt;grafana_data -->
<g id="edge28" class="edge">
<title>grafana&#45;&gt;grafana_data</title>
<path fill="none" stroke="black" stroke-dasharray="5,2" d="M3063.26,-527.06C3062.88,-488.73 3062.2,-420.65 3061.82,-382.8"/>
<polygon fill="black" stroke="black" points="3059.76,-527.22 3063.36,-537.19 3066.76,-527.15 3059.76,-527.22"/>
<polygon fill="black" stroke="black" points="3065.31,-382.49 3061.71,-372.53 3058.31,-382.56 3065.31,-382.49"/>
<text text-anchor="middle" x="3117.54" y="-451.67" font-family="Times,serif" font-size="14.00">/var/lib/grafana</text>
</g>
<!-- ./grafana/provisioning -->
<g id="node33" class="node">
<title>./grafana/provisioning</title>
<path fill="none" stroke="black" d="M3308.04,-369.21C3308.04,-371.01 3269.27,-372.48 3221.54,-372.48 3173.81,-372.48 3135.04,-371.01 3135.04,-369.21 3135.04,-369.21 3135.04,-339.75 3135.04,-339.75 3135.04,-337.95 3173.81,-336.48 3221.54,-336.48 3269.27,-336.48 3308.04,-337.95 3308.04,-339.75 3308.04,-339.75 3308.04,-369.21 3308.04,-369.21"/>
<path fill="none" stroke="black" d="M3308.04,-369.21C3308.04,-367.4 3269.27,-365.94 3221.54,-365.94 3173.81,-365.94 3135.04,-367.4 3135.04,-369.21"/>
<text text-anchor="middle" x="3221.54" y="-350.78" font-family="Times,serif" font-size="14.00">./grafana/provisioning</text>
</g>
<!-- grafana&#45;&gt;./grafana/provisioning -->
<g id="edge29" class="edge">
<title>grafana&#45;&gt;./grafana/provisioning</title>
<path fill="none" stroke="black" stroke-dasharray="5,2" d="M3101.5,-531.37C3125.61,-514.62 3156.03,-490.37 3176.54,-462.87 3194.79,-438.43 3207.16,-405.49 3214.24,-382.56"/>
<polygon fill="black" stroke="black" points="3099.24,-528.68 3092.93,-537.2 3103.17,-534.47 3099.24,-528.68"/>
<polygon fill="black" stroke="black" points="3217.65,-383.38 3217.13,-372.8 3210.94,-381.4 3217.65,-383.38"/>
<text text-anchor="middle" x="3274.04" y="-451.67" font-family="Times,serif" font-size="14.00">/etc/grafana/provisioning</text>
</g>
<!-- 0.0.0.03001 -->
<g id="node34" class="node">
<title>0.0.0.03001</title>
<ellipse fill="none" stroke="black" cx="3063.54" cy="-752.2" rx="69.59" ry="69.59"/>
<text text-anchor="middle" x="3063.54" y="-748.5" font-family="Times,serif" font-size="14.00">0.0.0.0:3001</text>
</g>
<!-- 0.0.0.03001&#45;&gt;grafana -->
<g id="edge30" class="edge">
<title>0.0.0.03001&#45;&gt;grafana</title>
<path fill="none" stroke="black" d="M3063.54,-682.56C3063.54,-649.19 3063.54,-610.91 3063.54,-585.54"/>
<polygon fill="black" stroke="black" points="3067.04,-585.51 3063.54,-575.51 3060.04,-585.51 3067.04,-585.51"/>
<text text-anchor="middle" x="3082.04" y="-653.46" font-family="Times,serif" font-size="14.00">3000</text>
</g>
<!-- 0.0.0.08888 -->
<g id="node36" class="node">
<title>0.0.0.08888</title>
<ellipse fill="none" stroke="black" cx="1867.54" cy="-556.27" rx="69.59" ry="69.59"/>
<text text-anchor="middle" x="1867.54" y="-552.57" font-family="Times,serif" font-size="14.00">0.0.0.0:8888</text>
</g>
<!-- 0.0.0.08888&#45;&gt;openmeter -->
<g id="edge33" class="edge">
<title>0.0.0.08888&#45;&gt;openmeter</title>
<path fill="none" stroke="black" d="M1892.87,-491.23C1907.26,-454.84 1924.54,-411.13 1935.53,-383.33"/>
<polygon fill="black" stroke="black" points="1938.86,-384.43 1939.28,-373.85 1932.35,-381.86 1938.86,-384.43"/>
<text text-anchor="middle" x="1928.04" y="-451.67" font-family="Times,serif" font-size="14.00">8888</text>
</g>
<!-- 0.0.0.08890 -->
<g id="node37" class="node">
<title>0.0.0.08890</title>
<ellipse fill="none" stroke="black" cx="2024.54" cy="-556.27" rx="69.59" ry="69.59"/>
<text text-anchor="middle" x="2024.54" y="-552.57" font-family="Times,serif" font-size="14.00">0.0.0.0:8890</text>
</g>
<!-- 0.0.0.08890&#45;&gt;openmeter -->
<g id="edge34" class="edge">
<title>0.0.0.08890&#45;&gt;openmeter</title>
<path fill="none" stroke="black" d="M1999.54,-491.23C1985.33,-454.84 1968.27,-411.13 1957.42,-383.33"/>
<polygon fill="black" stroke="black" points="1960.61,-381.89 1953.71,-373.85 1954.09,-384.43 1960.61,-381.89"/>
<text text-anchor="middle" x="2007.04" y="-451.67" font-family="Times,serif" font-size="14.00">8889</text>
</g>
<!-- clickhouse_data -->
<g id="node40" class="node">
<title>clickhouse_data</title>
<path fill="none" stroke="black" d="M1464.04,-33.73C1464.04,-35.53 1435.13,-37 1399.54,-37 1363.95,-37 1335.04,-35.53 1335.04,-33.73 1335.04,-33.73 1335.04,-4.27 1335.04,-4.27 1335.04,-2.47 1363.95,-1 1399.54,-1 1435.13,-1 1464.04,-2.47 1464.04,-4.27 1464.04,-4.27 1464.04,-33.73 1464.04,-33.73"/>
<path fill="none" stroke="black" d="M1464.04,-33.73C1464.04,-31.92 1435.13,-30.45 1399.54,-30.45 1363.95,-30.45 1335.04,-31.92 1335.04,-33.73"/>
<text text-anchor="middle" x="1399.54" y="-15.3" font-family="Times,serif" font-size="14.00">clickhouse_data</text>
</g>
<!-- clickhouse&#45;&gt;clickhouse_data -->
<g id="edge37" class="edge">
<title>clickhouse&#45;&gt;clickhouse_data</title>
<path fill="none" stroke="black" stroke-dasharray="5,2" d="M1634.43,-136.52C1555.74,-113.06 1438.85,-77.51 1430.54,-71 1422.31,-64.55 1415.75,-55.26 1410.83,-46.37"/>
<polygon fill="black" stroke="black" points="1633.72,-139.96 1644.3,-139.46 1635.72,-133.25 1633.72,-139.96"/>
<polygon fill="black" stroke="black" points="1413.92,-44.73 1406.28,-37.38 1407.67,-47.89 1413.92,-44.73"/>
<text text-anchor="middle" x="1495.54" y="-59.8" font-family="Times,serif" font-size="14.00">/var/lib/clickhouse</text>
</g>
<!-- ./clickhouse/config.xml -->
<g id="node41" class="node">
<title>./clickhouse/config.xml</title>
<path fill="none" stroke="black" d="M1660.54,-33.73C1660.54,-35.53 1620.65,-37 1571.54,-37 1522.44,-37 1482.54,-35.53 1482.54,-33.73 1482.54,-33.73 1482.54,-4.27 1482.54,-4.27 1482.54,-2.47 1522.44,-1 1571.54,-1 1620.65,-1 1660.54,-2.47 1660.54,-4.27 1660.54,-4.27 1660.54,-33.73 1660.54,-33.73"/>
<path fill="none" stroke="black" d="M1660.54,-33.73C1660.54,-31.92 1620.65,-30.45 1571.54,-30.45 1522.44,-30.45 1482.54,-31.92 1482.54,-33.73"/>
<text text-anchor="middle" x="1571.54" y="-15.3" font-family="Times,serif" font-size="14.00">./clickhouse/config.xml</text>
</g>
<!-- clickhouse&#45;&gt;./clickhouse/config.xml -->
<g id="edge38" class="edge">
<title>clickhouse&#45;&gt;./clickhouse/config.xml</title>
<path fill="none" stroke="black" stroke-dasharray="5,2" d="M1653.56,-139.5C1622.88,-125.85 1586.6,-103.77 1568.54,-71 1564.61,-63.87 1563.89,-55.3 1564.57,-47.23"/>
<polygon fill="black" stroke="black" points="1568.07,-47.5 1566.14,-37.09 1561.15,-46.44 1568.07,-47.5"/>
<text text-anchor="middle" x="1685.54" y="-59.8" font-family="Times,serif" font-size="14.00">/etc/clickhouse&#45;server/config.xml</text>
</g>
<!-- ./clickhouse/users.xml -->
<g id="node42" class="node">
<title>./clickhouse/users.xml</title>
<path fill="none" stroke="black" d="M1915.54,-33.73C1915.54,-35.53 1876.55,-37 1828.54,-37 1780.54,-37 1741.54,-35.53 1741.54,-33.73 1741.54,-33.73 1741.54,-4.27 1741.54,-4.27 1741.54,-2.47 1780.54,-1 1828.54,-1 1876.55,-1 1915.54,-2.47 1915.54,-4.27 1915.54,-4.27 1915.54,-33.73 1915.54,-33.73"/>
<path fill="none" stroke="black" d="M1915.54,-33.73C1915.54,-31.92 1876.55,-30.45 1828.54,-30.45 1780.54,-30.45 1741.54,-31.92 1741.54,-33.73"/>
<text text-anchor="middle" x="1828.54" y="-15.3" font-family="Times,serif" font-size="14.00">./clickhouse/users.xml</text>
</g>
<!-- clickhouse&#45;&gt;./clickhouse/users.xml -->
<g id="edge39" class="edge">
<title>clickhouse&#45;&gt;./clickhouse/users.xml</title>
<path fill="none" stroke="black" stroke-dasharray="5,2" d="M1733.03,-139.34C1755.27,-123.48 1786.14,-98.7 1806.54,-71 1811.91,-63.71 1816.3,-54.92 1819.7,-46.69"/>
<polygon fill="black" stroke="black" points="1823.07,-47.68 1823.37,-37.09 1816.53,-45.18 1823.07,-47.68"/>
<text text-anchor="middle" x="1930.54" y="-59.8" font-family="Times,serif" font-size="14.00">/etc/clickhouse&#45;server/users.xml</text>
</g>
<!-- clickhouse_logs -->
<g id="node43" class="node">
<title>clickhouse_logs</title>
<path fill="none" stroke="black" d="M2145.04,-33.73C2145.04,-35.53 2116.58,-37 2081.54,-37 2046.51,-37 2018.04,-35.53 2018.04,-33.73 2018.04,-33.73 2018.04,-4.27 2018.04,-4.27 2018.04,-2.47 2046.51,-1 2081.54,-1 2116.58,-1 2145.04,-2.47 2145.04,-4.27 2145.04,-4.27 2145.04,-33.73 2145.04,-33.73"/>
<path fill="none" stroke="black" d="M2145.04,-33.73C2145.04,-31.92 2116.58,-30.45 2081.54,-30.45 2046.51,-30.45 2018.04,-31.92 2018.04,-33.73"/>
<text text-anchor="middle" x="2081.54" y="-15.3" font-family="Times,serif" font-size="14.00">clickhouse_logs</text>
</g>
<!-- clickhouse&#45;&gt;clickhouse_logs -->
<g id="edge40" class="edge">
<title>clickhouse&#45;&gt;clickhouse_logs</title>
<path fill="none" stroke="black" stroke-dasharray="5,2" d="M1744.81,-134.5C1773.41,-118.89 1813.62,-99.28 1851.54,-89 1894.19,-77.44 2011.89,-94.11 2049.54,-71 2058.9,-65.26 2065.96,-55.65 2071.04,-46.31"/>
<polygon fill="black" stroke="black" points="1743,-131.5 1735.95,-139.42 1746.39,-137.63 1743,-131.5"/>
<polygon fill="black" stroke="black" points="2074.24,-47.73 2075.47,-37.21 2067.95,-44.67 2074.24,-47.73"/>
<text text-anchor="middle" x="2157.54" y="-59.8" font-family="Times,serif" font-size="14.00">/var/log/clickhouse&#45;server</text>
</g>
<!-- zookeeper -->
<g id="node46" class="node">
<title>zookeeper</title>
<polygon fill="none" stroke="black" points="2466.04,-38 2209.04,-38 2209.04,-34 2205.04,-34 2205.04,-30 2209.04,-30 2209.04,-8 2205.04,-8 2205.04,-4 2209.04,-4 2209.04,0 2466.04,0 2466.04,-38"/>
<polyline fill="none" stroke="black" points="2209.04,-34 2213.04,-34 2213.04,-30 2209.04,-30 "/>
<polyline fill="none" stroke="black" points="2209.04,-8 2213.04,-8 2213.04,-4 2209.04,-4 "/>
<text text-anchor="middle" x="2337.54" y="-22.8" font-family="Times,serif" font-size="14.00">zookeeper</text>
<text text-anchor="middle" x="2337.54" y="-7.8" font-family="Times,serif" font-size="14.00">(confluentinc/cp&#45;zookeeper:latest)</text>
</g>
<!-- kafka&#45;&gt;zookeeper -->
<g id="edge47" class="edge">
<title>kafka&#45;&gt;zookeeper</title>
<path fill="none" stroke="black" stroke-dasharray="1,5" d="M2241.28,-139.28C2260.52,-115.44 2294.33,-73.55 2316.32,-46.29"/>
<polygon fill="black" stroke="black" points="2319.19,-48.32 2322.74,-38.34 2313.74,-43.92 2319.19,-48.32"/>
</g>
<!-- 0.0.0.08123 -->
<g id="node44" class="node">
<title>0.0.0.08123</title>
<ellipse fill="none" stroke="black" cx="1553.54" cy="-354.48" rx="69.59" ry="69.59"/>
<text text-anchor="middle" x="1553.54" y="-350.78" font-family="Times,serif" font-size="14.00">0.0.0.0:8123</text>
</g>
<!-- 0.0.0.08123&#45;&gt;clickhouse -->
<g id="edge41" class="edge">
<title>0.0.0.08123&#45;&gt;clickhouse</title>
<path fill="none" stroke="black" d="M1596.09,-299.2C1625.18,-262.08 1662.45,-214.52 1685.14,-185.58"/>
<polygon fill="black" stroke="black" points="1687.99,-187.61 1691.41,-177.58 1682.48,-183.29 1687.99,-187.61"/>
<text text-anchor="middle" x="1653.04" y="-249.89" font-family="Times,serif" font-size="14.00">8123</text>
</g>
<!-- 0.0.0.09000 -->
<g id="node45" class="node">
<title>0.0.0.09000</title>
<ellipse fill="none" stroke="black" cx="1710.54" cy="-354.48" rx="69.59" ry="69.59"/>
<text text-anchor="middle" x="1710.54" y="-350.78" font-family="Times,serif" font-size="14.00">0.0.0.0:9000</text>
</g>
<!-- 0.0.0.09000&#45;&gt;clickhouse -->
<g id="edge42" class="edge">
<title>0.0.0.09000&#45;&gt;clickhouse</title>
<path fill="none" stroke="black" d="M1708.77,-284.83C1707.91,-251.46 1706.93,-213.19 1706.27,-187.81"/>
<polygon fill="black" stroke="black" points="1709.77,-187.69 1706.01,-177.78 1702.77,-187.87 1709.77,-187.69"/>
<text text-anchor="middle" x="1727.04" y="-249.89" font-family="Times,serif" font-size="14.00">9000</text>
</g>
<!-- 0.0.0.02181 -->
<g id="node47" class="node">
<title>0.0.0.02181</title>
<ellipse fill="none" stroke="black" cx="2425.54" cy="-158.54" rx="69.59" ry="69.59"/>
<text text-anchor="middle" x="2425.54" y="-154.84" font-family="Times,serif" font-size="14.00">0.0.0.0:2181</text>
</g>
<!-- 0.0.0.02181&#45;&gt;zookeeper -->
<g id="edge43" class="edge">
<title>0.0.0.02181&#45;&gt;zookeeper</title>
<path fill="none" stroke="black" d="M2388.48,-99.61C2376.73,-81.25 2364.31,-61.83 2354.67,-46.77"/>
<polygon fill="black" stroke="black" points="2357.4,-44.54 2349.06,-38 2351.5,-48.31 2357.4,-44.54"/>
<text text-anchor="middle" x="2387.04" y="-59.8" font-family="Times,serif" font-size="14.00">2181</text>
</g>
<!-- 0.0.0.09092 -->
<g id="node48" class="node">
<title>0.0.0.09092</title>
<ellipse fill="none" stroke="black" cx="2339.54" cy="-354.48" rx="69.59" ry="69.59"/>
<text text-anchor="middle" x="2339.54" y="-350.78" font-family="Times,serif" font-size="14.00">0.0.0.0:9092</text>
</g>
<!-- 0.0.0.09092&#45;&gt;kafka -->
<g id="edge44" class="edge">
<title>0.0.0.09092&#45;&gt;kafka</title>
<path fill="none" stroke="black" d="M2304.87,-293.98C2284.01,-258.16 2258.44,-214.29 2242.32,-186.62"/>
<polygon fill="black" stroke="black" points="2245.29,-184.77 2237.24,-177.89 2239.25,-188.3 2245.29,-184.77"/>
<text text-anchor="middle" x="2302.04" y="-249.89" font-family="Times,serif" font-size="14.00">9092</text>
</g>
<!-- 0.0.0.029093 -->
<g id="node49" class="node">
<title>0.0.0.029093</title>
<ellipse fill="none" stroke="black" cx="2502.54" cy="-354.48" rx="75.29" ry="75.29"/>
<text text-anchor="middle" x="2502.54" y="-350.78" font-family="Times,serif" font-size="14.00">0.0.0.0:29093</text>
</g>
<!-- 0.0.0.029093&#45;&gt;kafka -->
<g id="edge45" class="edge">
<title>0.0.0.029093&#45;&gt;kafka</title>
<path fill="none" stroke="black" d="M2447.62,-302.51C2438.14,-294.4 2428.23,-286.31 2418.54,-279.09 2369.05,-242.17 2307.91,-205.5 2268.12,-182.7"/>
<polygon fill="black" stroke="black" points="2269.64,-179.55 2259.22,-177.64 2266.18,-185.63 2269.64,-179.55"/>
<text text-anchor="middle" x="2411.54" y="-249.89" font-family="Times,serif" font-size="14.00">29093</text>
</g>
<!-- 0.0.0.09093 -->
<g id="node50" class="node">
<title>0.0.0.09093</title>
<ellipse fill="none" stroke="black" cx="2182.54" cy="-354.48" rx="69.59" ry="69.59"/>
<text text-anchor="middle" x="2182.54" y="-350.78" font-family="Times,serif" font-size="14.00">0.0.0.0:9093</text>
</g>
<!-- 0.0.0.09093&#45;&gt;kafka -->
<g id="edge46" class="edge">
<title>0.0.0.09093&#45;&gt;kafka</title>
<path fill="none" stroke="black" d="M2197.75,-286.47C2205.43,-252.6 2214.34,-213.32 2220.19,-187.53"/>
<polygon fill="black" stroke="black" points="2223.63,-188.22 2222.43,-177.69 2216.8,-186.67 2223.63,-188.22"/>
<text text-anchor="middle" x="2225.04" y="-249.89" font-family="Times,serif" font-size="14.00">9093</text>
</g>
</g>
</svg>
