<?xml version="1.0" encoding="UTF-8" standalone="no"?>
<!DOCTYPE svg PUBLIC "-//W3C//DTD SVG 1.1//EN"
 "http://www.w3.org/Graphics/SVG/1.1/DTD/svg11.dtd">
<!-- Generated by graphviz version 2.43.0 (0)
 -->
<!-- Title: %3 Pages: 1 -->
<svg width="3241pt" height="894pt"
 viewBox="0.00 0.00 3240.54 893.75" xmlns="http://www.w3.org/2000/svg" xmlns:xlink="http://www.w3.org/1999/xlink">
<g id="graph0" class="graph" transform="scale(1 1) rotate(0) translate(36 857.75)">
<title>%3</title>
<polygon fill="white" stroke="transparent" points="-36,36 -36,-857.75 3204.54,-857.75 3204.54,36 -36,36"/>
<!-- postgres -->
<g id="node1" class="node">
<title>postgres</title>
<polygon fill="none" stroke="black" points="201.54,-373.48 3.54,-373.48 3.54,-369.48 -0.46,-369.48 -0.46,-365.48 3.54,-365.48 3.54,-343.48 -0.46,-343.48 -0.46,-339.48 3.54,-339.48 3.54,-335.48 201.54,-335.48 201.54,-373.48"/>
<polyline fill="none" stroke="black" points="3.54,-369.48 7.54,-369.48 7.54,-365.48 3.54,-365.48 "/>
<polyline fill="none" stroke="black" points="3.54,-343.48 7.54,-343.48 7.54,-339.48 3.54,-339.48 "/>
<text text-anchor="middle" x="102.54" y="-358.28" font-family="Times,serif" font-size="14.00">postgres</text>
<text text-anchor="middle" x="102.54" y="-343.28" font-family="Times,serif" font-size="14.00">(pgvector/pgvector:pg16)</text>
</g>
<!-- postgres_data -->
<g id="node2" class="node">
<title>postgres_data</title>
<path fill="none" stroke="black" d="M161.04,-173.27C161.04,-175.08 134.82,-176.54 102.54,-176.54 70.26,-176.54 44.04,-175.08 44.04,-173.27 44.04,-173.27 44.04,-143.82 44.04,-143.82 44.04,-142.01 70.26,-140.54 102.54,-140.54 134.82,-140.54 161.04,-142.01 161.04,-143.82 161.04,-143.82 161.04,-173.27 161.04,-173.27"/>
<path fill="none" stroke="black" d="M161.04,-173.27C161.04,-171.47 134.82,-170 102.54,-170 70.26,-170 44.04,-171.47 44.04,-173.27"/>
<text text-anchor="middle" x="102.54" y="-154.84" font-family="Times,serif" font-size="14.00">postgres_data</text>
</g>
<!-- postgres&#45;&gt;postgres_data -->
<g id="edge1" class="edge">
<title>postgres&#45;&gt;postgres_data</title>
<path fill="none" stroke="black" stroke-dasharray="5,2" d="M102.54,-325.14C102.54,-288.15 102.54,-223.83 102.54,-187.18"/>
<polygon fill="black" stroke="black" points="99.04,-325.24 102.54,-335.24 106.04,-325.24 99.04,-325.24"/>
<polygon fill="black" stroke="black" points="106.04,-186.76 102.54,-176.76 99.04,-186.76 106.04,-186.76"/>
<text text-anchor="middle" x="186.04" y="-249.89" font-family="Times,serif" font-size="14.00">/var/lib/postgresql/data</text>
</g>
<!-- 0.0.0.05432 -->
<g id="node3" class="node">
<title>0.0.0.05432</title>
<ellipse fill="none" stroke="black" cx="69.54" cy="-556.27" rx="69.59" ry="69.59"/>
<text text-anchor="middle" x="69.54" y="-552.57" font-family="Times,serif" font-size="14.00">0.0.0.0:5432</text>
</g>
<!-- 0.0.0.05432&#45;&gt;postgres -->
<g id="edge2" class="edge">
<title>0.0.0.05432&#45;&gt;postgres</title>
<path fill="none" stroke="black" d="M80.76,-487.35C86.61,-451.96 93.44,-410.57 97.88,-383.74"/>
<polygon fill="black" stroke="black" points="101.39,-383.97 99.56,-373.53 94.48,-382.83 101.39,-383.97"/>
<text text-anchor="middle" x="106.04" y="-451.67" font-family="Times,serif" font-size="14.00">5432</text>
</g>
<!-- backend -->
<g id="node4" class="node">
<title>backend</title>
<polygon fill="none" stroke="black" points="402.04,-575.27 157.04,-575.27 157.04,-571.27 153.04,-571.27 153.04,-567.27 157.04,-567.27 157.04,-545.27 153.04,-545.27 153.04,-541.27 157.04,-541.27 157.04,-537.27 402.04,-537.27 402.04,-575.27"/>
<polyline fill="none" stroke="black" points="157.04,-571.27 161.04,-571.27 161.04,-567.27 157.04,-567.27 "/>
<polyline fill="none" stroke="black" points="157.04,-545.27 161.04,-545.27 161.04,-541.27 157.04,-541.27 "/>
<text text-anchor="middle" x="279.54" y="-560.07" font-family="Times,serif" font-size="14.00">backend</text>
<text text-anchor="middle" x="279.54" y="-545.07" font-family="Times,serif" font-size="14.00">(build from &#39;.&#39; using &#39;Dockerfile&#39;)</text>
</g>
<!-- backend&#45;&gt;postgres -->
<g id="edge5" class="edge">
<title>backend&#45;&gt;postgres</title>
<path fill="none" stroke="black" stroke-dasharray="1,5" d="M263.52,-537.19C232.01,-501.62 161.87,-422.45 125.47,-381.35"/>
<polygon fill="black" stroke="black" points="127.91,-378.83 118.65,-373.67 122.67,-383.47 127.91,-378.83"/>
</g>
<!-- ./app -->
<g id="node5" class="node">
<title>./app</title>
<path fill="none" stroke="black" d="M306.54,-369.21C306.54,-371.01 294.44,-372.48 279.54,-372.48 264.65,-372.48 252.54,-371.01 252.54,-369.21 252.54,-369.21 252.54,-339.75 252.54,-339.75 252.54,-337.95 264.65,-336.48 279.54,-336.48 294.44,-336.48 306.54,-337.95 306.54,-339.75 306.54,-339.75 306.54,-369.21 306.54,-369.21"/>
<path fill="none" stroke="black" d="M306.54,-369.21C306.54,-367.4 294.44,-365.94 279.54,-365.94 264.65,-365.94 252.54,-367.4 252.54,-369.21"/>
<text text-anchor="middle" x="279.54" y="-350.78" font-family="Times,serif" font-size="14.00">./app</text>
</g>
<!-- backend&#45;&gt;./app -->
<g id="edge3" class="edge">
<title>backend&#45;&gt;./app</title>
<path fill="none" stroke="black" stroke-dasharray="5,2" d="M279.54,-527.06C279.54,-488.73 279.54,-420.65 279.54,-382.8"/>
<polygon fill="black" stroke="black" points="276.04,-527.19 279.54,-537.19 283.04,-527.19 276.04,-527.19"/>
<polygon fill="black" stroke="black" points="283.04,-382.53 279.54,-372.53 276.04,-382.53 283.04,-382.53"/>
<text text-anchor="middle" x="310.54" y="-451.67" font-family="Times,serif" font-size="14.00">/app/app</text>
</g>
<!-- otel&#45;collector -->
<g id="node7" class="node">
<title>otel&#45;collector</title>
<polygon fill="none" stroke="black" points="811.04,-373.48 482.04,-373.48 482.04,-369.48 478.04,-369.48 478.04,-365.48 482.04,-365.48 482.04,-343.48 478.04,-343.48 478.04,-339.48 482.04,-339.48 482.04,-335.48 811.04,-335.48 811.04,-373.48"/>
<polyline fill="none" stroke="black" points="482.04,-369.48 486.04,-369.48 486.04,-365.48 482.04,-365.48 "/>
<polyline fill="none" stroke="black" points="482.04,-343.48 486.04,-343.48 486.04,-339.48 482.04,-339.48 "/>
<text text-anchor="middle" x="646.54" y="-358.28" font-family="Times,serif" font-size="14.00">otel&#45;collector</text>
<text text-anchor="middle" x="646.54" y="-343.28" font-family="Times,serif" font-size="14.00">(otel/opentelemetry&#45;collector&#45;contrib:latest)</text>
</g>
<!-- backend&#45;&gt;otel&#45;collector -->
<g id="edge6" class="edge">
<title>backend&#45;&gt;otel&#45;collector</title>
<path fill="none" stroke="black" stroke-dasharray="1,5" d="M310.9,-537.13C337.36,-521.91 376.28,-499.7 410.54,-480.87 477.07,-444.32 554.94,-403.28 602.5,-378.41"/>
<polygon fill="black" stroke="black" points="604.35,-381.39 611.59,-373.66 601.11,-375.19 604.35,-381.39"/>
</g>
<!-- 0.0.0.08800 -->
<g id="node6" class="node">
<title>0.0.0.08800</title>
<ellipse fill="none" stroke="black" cx="279.54" cy="-752.2" rx="69.59" ry="69.59"/>
<text text-anchor="middle" x="279.54" y="-748.5" font-family="Times,serif" font-size="14.00">0.0.0.0:8800</text>
</g>
<!-- 0.0.0.08800&#45;&gt;backend -->
<g id="edge4" class="edge">
<title>0.0.0.08800&#45;&gt;backend</title>
<path fill="none" stroke="black" d="M279.54,-682.56C279.54,-649.19 279.54,-610.91 279.54,-585.54"/>
<polygon fill="black" stroke="black" points="283.04,-585.51 279.54,-575.51 276.04,-585.51 283.04,-585.51"/>
<text text-anchor="middle" x="298.04" y="-653.46" font-family="Times,serif" font-size="14.00">8800</text>
</g>
<!-- ./otel&#45;collector&#45;config.yaml -->
<g id="node21" class="node">
<title>./otel&#45;collector&#45;config.yaml</title>
<path fill="none" stroke="black" d="M749.04,-173.27C749.04,-175.08 703.1,-176.54 646.54,-176.54 589.99,-176.54 544.04,-175.08 544.04,-173.27 544.04,-173.27 544.04,-143.82 544.04,-143.82 544.04,-142.01 589.99,-140.54 646.54,-140.54 703.1,-140.54 749.04,-142.01 749.04,-143.82 749.04,-143.82 749.04,-173.27 749.04,-173.27"/>
<path fill="none" stroke="black" d="M749.04,-173.27C749.04,-171.47 703.1,-170 646.54,-170 589.99,-170 544.04,-171.47 544.04,-173.27"/>
<text text-anchor="middle" x="646.54" y="-154.84" font-family="Times,serif" font-size="14.00">./otel&#45;collector&#45;config.yaml</text>
</g>
<!-- otel&#45;collector&#45;&gt;./otel&#45;collector&#45;config.yaml -->
<g id="edge19" class="edge">
<title>otel&#45;collector&#45;&gt;./otel&#45;collector&#45;config.yaml</title>
<path fill="none" stroke="black" stroke-dasharray="5,2" d="M646.54,-325.14C646.54,-288.15 646.54,-223.83 646.54,-187.18"/>
<polygon fill="black" stroke="black" points="643.04,-325.24 646.54,-335.24 650.04,-325.24 643.04,-325.24"/>
<polygon fill="black" stroke="black" points="650.04,-186.76 646.54,-176.76 643.04,-186.76 650.04,-186.76"/>
<text text-anchor="middle" x="752.04" y="-249.89" font-family="Times,serif" font-size="14.00">/etc/otel&#45;collector&#45;config.yaml</text>
</g>
<!-- frontend -->
<g id="node8" class="node">
<title>frontend</title>
<polygon fill="none" stroke="black" points="2564.04,-575.27 2253.04,-575.27 2253.04,-571.27 2249.04,-571.27 2249.04,-567.27 2253.04,-567.27 2253.04,-545.27 2249.04,-545.27 2249.04,-541.27 2253.04,-541.27 2253.04,-537.27 2564.04,-537.27 2564.04,-575.27"/>
<polyline fill="none" stroke="black" points="2253.04,-571.27 2257.04,-571.27 2257.04,-567.27 2253.04,-567.27 "/>
<polyline fill="none" stroke="black" points="2253.04,-545.27 2257.04,-545.27 2257.04,-541.27 2253.04,-541.27 "/>
<text text-anchor="middle" x="2408.54" y="-560.07" font-family="Times,serif" font-size="14.00">frontend</text>
<text text-anchor="middle" x="2408.54" y="-545.07" font-family="Times,serif" font-size="14.00">(build from &#39;./frontend&#39; using &#39;Dockerfile&#39;)</text>
</g>
<!-- ./frontend -->
<g id="node9" class="node">
<title>./frontend</title>
<path fill="none" stroke="black" d="M2452.04,-369.21C2452.04,-371.01 2432.55,-372.48 2408.54,-372.48 2384.54,-372.48 2365.04,-371.01 2365.04,-369.21 2365.04,-369.21 2365.04,-339.75 2365.04,-339.75 2365.04,-337.95 2384.54,-336.48 2408.54,-336.48 2432.55,-336.48 2452.04,-337.95 2452.04,-339.75 2452.04,-339.75 2452.04,-369.21 2452.04,-369.21"/>
<path fill="none" stroke="black" d="M2452.04,-369.21C2452.04,-367.4 2432.55,-365.94 2408.54,-365.94 2384.54,-365.94 2365.04,-367.4 2365.04,-369.21"/>
<text text-anchor="middle" x="2408.54" y="-350.78" font-family="Times,serif" font-size="14.00">./frontend</text>
</g>
<!-- frontend&#45;&gt;./frontend -->
<g id="edge7" class="edge">
<title>frontend&#45;&gt;./frontend</title>
<path fill="none" stroke="black" stroke-dasharray="5,2" d="M2408.54,-527.06C2408.54,-488.73 2408.54,-420.65 2408.54,-382.8"/>
<polygon fill="black" stroke="black" points="2405.04,-527.19 2408.54,-537.19 2412.04,-527.19 2405.04,-527.19"/>
<polygon fill="black" stroke="black" points="2412.04,-382.53 2408.54,-372.53 2405.04,-382.53 2412.04,-382.53"/>
<text text-anchor="middle" x="2424.04" y="-451.67" font-family="Times,serif" font-size="14.00">/app</text>
</g>
<!-- 0.0.0.03000 -->
<g id="node10" class="node">
<title>0.0.0.03000</title>
<ellipse fill="none" stroke="black" cx="2408.54" cy="-752.2" rx="69.59" ry="69.59"/>
<text text-anchor="middle" x="2408.54" y="-748.5" font-family="Times,serif" font-size="14.00">0.0.0.0:3000</text>
</g>
<!-- 0.0.0.03000&#45;&gt;frontend -->
<g id="edge8" class="edge">
<title>0.0.0.03000&#45;&gt;frontend</title>
<path fill="none" stroke="black" d="M2408.54,-682.56C2408.54,-649.19 2408.54,-610.91 2408.54,-585.54"/>
<polygon fill="black" stroke="black" points="2412.04,-585.51 2408.54,-575.51 2405.04,-585.51 2412.04,-585.51"/>
<text text-anchor="middle" x="2427.04" y="-653.46" font-family="Times,serif" font-size="14.00">3000</text>
</g>
<!-- ollama -->
<g id="node11" class="node">
<title>ollama</title>
<polygon fill="none" stroke="black" points="1052.04,-373.48 881.04,-373.48 881.04,-369.48 877.04,-369.48 877.04,-365.48 881.04,-365.48 881.04,-343.48 877.04,-343.48 877.04,-339.48 881.04,-339.48 881.04,-335.48 1052.04,-335.48 1052.04,-373.48"/>
<polyline fill="none" stroke="black" points="881.04,-369.48 885.04,-369.48 885.04,-365.48 881.04,-365.48 "/>
<polyline fill="none" stroke="black" points="881.04,-343.48 885.04,-343.48 885.04,-339.48 881.04,-339.48 "/>
<text text-anchor="middle" x="966.54" y="-358.28" font-family="Times,serif" font-size="14.00">ollama</text>
<text text-anchor="middle" x="966.54" y="-343.28" font-family="Times,serif" font-size="14.00">(ollama/ollama:latest)</text>
</g>
<!-- ollama_data -->
<g id="node12" class="node">
<title>ollama_data</title>
<path fill="none" stroke="black" d="M1151.54,-173.27C1151.54,-175.08 1128.68,-176.54 1100.54,-176.54 1072.4,-176.54 1049.54,-175.08 1049.54,-173.27 1049.54,-173.27 1049.54,-143.82 1049.54,-143.82 1049.54,-142.01 1072.4,-140.54 1100.54,-140.54 1128.68,-140.54 1151.54,-142.01 1151.54,-143.82 1151.54,-143.82 1151.54,-173.27 1151.54,-173.27"/>
<path fill="none" stroke="black" d="M1151.54,-173.27C1151.54,-171.47 1128.68,-170 1100.54,-170 1072.4,-170 1049.54,-171.47 1049.54,-173.27"/>
<text text-anchor="middle" x="1100.54" y="-154.84" font-family="Times,serif" font-size="14.00">ollama_data</text>
</g>
<!-- ollama&#45;&gt;ollama_data -->
<g id="edge9" class="edge">
<title>ollama&#45;&gt;ollama_data</title>
<path fill="none" stroke="black" stroke-dasharray="5,2" d="M998.07,-329.21C1029.29,-304.89 1073.2,-269.86 1078.54,-261.09 1092.35,-238.42 1097.56,-208.27 1099.48,-186.72"/>
<polygon fill="black" stroke="black" points="995.79,-326.54 990.04,-335.44 1000.08,-332.07 995.79,-326.54"/>
<polygon fill="black" stroke="black" points="1102.98,-186.83 1100.21,-176.61 1096,-186.33 1102.98,-186.83"/>
<text text-anchor="middle" x="1131.04" y="-249.89" font-family="Times,serif" font-size="14.00">/root/.ollama</text>
</g>
<!-- ./ollama&#45;init.sh -->
<g id="node13" class="node">
<title>./ollama&#45;init.sh</title>
<path fill="none" stroke="black" d="M944.54,-173.27C944.54,-175.08 917.2,-176.54 883.54,-176.54 849.89,-176.54 822.54,-175.08 822.54,-173.27 822.54,-173.27 822.54,-143.82 822.54,-143.82 822.54,-142.01 849.89,-140.54 883.54,-140.54 917.2,-140.54 944.54,-142.01 944.54,-143.82 944.54,-143.82 944.54,-173.27 944.54,-173.27"/>
<path fill="none" stroke="black" d="M944.54,-173.27C944.54,-171.47 917.2,-170 883.54,-170 849.89,-170 822.54,-171.47 822.54,-173.27"/>
<text text-anchor="middle" x="883.54" y="-154.84" font-family="Times,serif" font-size="14.00">./ollama&#45;init.sh</text>
</g>
<!-- ollama&#45;&gt;./ollama&#45;init.sh -->
<g id="edge10" class="edge">
<title>ollama&#45;&gt;./ollama&#45;init.sh</title>
<path fill="none" stroke="black" stroke-dasharray="5,2" d="M935.05,-328.42C916.53,-311.6 894.8,-287.7 884.54,-261.09 875.37,-237.27 876.25,-207.92 878.75,-186.91"/>
<polygon fill="black" stroke="black" points="932.92,-331.21 942.74,-335.19 937.54,-325.96 932.92,-331.21"/>
<polygon fill="black" stroke="black" points="882.25,-187.14 880.16,-176.76 875.32,-186.18 882.25,-187.14"/>
<text text-anchor="middle" x="981.54" y="-249.89" font-family="Times,serif" font-size="14.00">/usr/local/bin/ollama&#45;init.sh</text>
</g>
<!-- 0.0.0.011434 -->
<g id="node14" class="node">
<title>0.0.0.011434</title>
<ellipse fill="none" stroke="black" cx="966.54" cy="-556.27" rx="75.29" ry="75.29"/>
<text text-anchor="middle" x="966.54" y="-552.57" font-family="Times,serif" font-size="14.00">0.0.0.0:11434</text>
</g>
<!-- 0.0.0.011434&#45;&gt;ollama -->
<g id="edge11" class="edge">
<title>0.0.0.011434&#45;&gt;ollama</title>
<path fill="none" stroke="black" d="M966.54,-480.59C966.54,-446.99 966.54,-409.32 966.54,-384.18"/>
<polygon fill="black" stroke="black" points="970.04,-383.89 966.54,-373.89 963.04,-383.89 970.04,-383.89"/>
<text text-anchor="middle" x="989.54" y="-451.67" font-family="Times,serif" font-size="14.00">11434</text>
</g>
<!-- litellm -->
<g id="node15" class="node">
<title>litellm</title>
<polygon fill="none" stroke="black" points="1391.54,-575.27 1059.54,-575.27 1059.54,-571.27 1055.54,-571.27 1055.54,-567.27 1059.54,-567.27 1059.54,-545.27 1055.54,-545.27 1055.54,-541.27 1059.54,-541.27 1059.54,-537.27 1391.54,-537.27 1391.54,-575.27"/>
<polyline fill="none" stroke="black" points="1059.54,-571.27 1063.54,-571.27 1063.54,-567.27 1059.54,-567.27 "/>
<polyline fill="none" stroke="black" points="1059.54,-545.27 1063.54,-545.27 1063.54,-541.27 1059.54,-541.27 "/>
<text text-anchor="middle" x="1225.54" y="-560.07" font-family="Times,serif" font-size="14.00">litellm</text>
<text text-anchor="middle" x="1225.54" y="-545.07" font-family="Times,serif" font-size="14.00">(ghcr.io/berriai/litellm&#45;database:main&#45;latest)</text>
</g>
<!-- litellm&#45;&gt;otel&#45;collector -->
<g id="edge15" class="edge">
<title>litellm&#45;&gt;otel&#45;collector</title>
<path fill="none" stroke="black" stroke-dasharray="1,5" d="M1189.14,-537.25C1154.29,-520.62 1099.87,-496.23 1050.54,-480.87 1012.43,-469.01 1001.07,-473.32 962.54,-462.87 870.44,-437.91 766.06,-400.62 703.32,-377.19"/>
<polygon fill="black" stroke="black" points="704.21,-373.79 693.62,-373.56 701.75,-380.35 704.21,-373.79"/>
</g>
<!-- litellm&#45;&gt;ollama -->
<g id="edge16" class="edge">
<title>litellm&#45;&gt;ollama</title>
<path fill="none" stroke="black" stroke-dasharray="1,5" d="M1201.58,-537.08C1169.57,-512.76 1111.15,-468.26 1061.54,-429.87 1040.14,-413.31 1016.14,-394.51 997.62,-379.96"/>
<polygon fill="black" stroke="black" points="999.55,-377.02 989.52,-373.59 995.22,-382.53 999.55,-377.02"/>
</g>
<!-- ./litellm_config.yaml -->
<g id="node16" class="node">
<title>./litellm_config.yaml</title>
<path fill="none" stroke="black" d="M1230.54,-369.21C1230.54,-371.01 1194.69,-372.48 1150.54,-372.48 1106.4,-372.48 1070.54,-371.01 1070.54,-369.21 1070.54,-369.21 1070.54,-339.75 1070.54,-339.75 1070.54,-337.95 1106.4,-336.48 1150.54,-336.48 1194.69,-336.48 1230.54,-337.95 1230.54,-339.75 1230.54,-339.75 1230.54,-369.21 1230.54,-369.21"/>
<path fill="none" stroke="black" d="M1230.54,-369.21C1230.54,-367.4 1194.69,-365.94 1150.54,-365.94 1106.4,-365.94 1070.54,-367.4 1070.54,-369.21"/>
<text text-anchor="middle" x="1150.54" y="-350.78" font-family="Times,serif" font-size="14.00">./litellm_config.yaml</text>
</g>
<!-- litellm&#45;&gt;./litellm_config.yaml -->
<g id="edge12" class="edge">
<title>litellm&#45;&gt;./litellm_config.yaml</title>
<path fill="none" stroke="black" stroke-dasharray="5,2" d="M1201.99,-529.05C1187.73,-511.59 1170.61,-487.41 1161.54,-462.87 1151.94,-436.89 1149.76,-405.11 1149.63,-382.89"/>
<polygon fill="black" stroke="black" points="1199.6,-531.65 1208.71,-537.06 1204.96,-527.15 1199.6,-531.65"/>
<polygon fill="black" stroke="black" points="1153.13,-382.84 1149.71,-372.81 1146.13,-382.79 1153.13,-382.84"/>
<text text-anchor="middle" x="1220.54" y="-451.67" font-family="Times,serif" font-size="14.00">/app/config.yaml</text>
</g>
<!-- litellm_db -->
<g id="node18" class="node">
<title>litellm_db</title>
<polygon fill="none" stroke="black" points="1360.54,-373.48 1248.54,-373.48 1248.54,-369.48 1244.54,-369.48 1244.54,-365.48 1248.54,-365.48 1248.54,-343.48 1244.54,-343.48 1244.54,-339.48 1248.54,-339.48 1248.54,-335.48 1360.54,-335.48 1360.54,-373.48"/>
<polyline fill="none" stroke="black" points="1248.54,-369.48 1252.54,-369.48 1252.54,-365.48 1248.54,-365.48 "/>
<polyline fill="none" stroke="black" points="1248.54,-343.48 1252.54,-343.48 1252.54,-339.48 1248.54,-339.48 "/>
<text text-anchor="middle" x="1304.54" y="-358.28" font-family="Times,serif" font-size="14.00">litellm_db</text>
<text text-anchor="middle" x="1304.54" y="-343.28" font-family="Times,serif" font-size="14.00">(postgres:16)</text>
</g>
<!-- litellm&#45;&gt;litellm_db -->
<g id="edge14" class="edge">
<title>litellm&#45;&gt;litellm_db</title>
<path fill="none" stroke="black" stroke-dasharray="1,5" d="M1238.45,-537.01C1250.66,-518.95 1268.69,-490.15 1279.54,-462.87 1289.83,-437.04 1296.49,-405.96 1300.33,-383.89"/>
<polygon fill="black" stroke="black" points="1303.81,-384.28 1301.99,-373.85 1296.9,-383.14 1303.81,-384.28"/>
</g>
<!-- openmeter -->
<g id="node19" class="node">
<title>openmeter</title>
<polygon fill="none" stroke="black" points="2000.54,-373.48 1704.54,-373.48 1704.54,-369.48 1700.54,-369.48 1700.54,-365.48 1704.54,-365.48 1704.54,-343.48 1700.54,-343.48 1700.54,-339.48 1704.54,-339.48 1704.54,-335.48 2000.54,-335.48 2000.54,-373.48"/>
<polyline fill="none" stroke="black" points="1704.54,-369.48 1708.54,-369.48 1708.54,-365.48 1704.54,-365.48 "/>
<polyline fill="none" stroke="black" points="1704.54,-343.48 1708.54,-343.48 1708.54,-339.48 1704.54,-339.48 "/>
<text text-anchor="middle" x="1852.54" y="-358.28" font-family="Times,serif" font-size="14.00">openmeter</text>
<text text-anchor="middle" x="1852.54" y="-343.28" font-family="Times,serif" font-size="14.00">(ghcr.io/openmeterio/openmeter:latest)</text>
</g>
<!-- litellm&#45;&gt;openmeter -->
<g id="edge17" class="edge">
<title>litellm&#45;&gt;openmeter</title>
<path fill="none" stroke="black" stroke-dasharray="1,5" d="M1311.9,-537.19C1407.29,-516.08 1564.72,-477.87 1695.54,-429.87 1735.32,-415.28 1778.71,-394.31 1809.78,-378.34"/>
<polygon fill="black" stroke="black" points="1811.74,-381.27 1819.01,-373.56 1808.52,-375.06 1811.74,-381.27"/>
</g>
<!-- 0.0.0.04000 -->
<g id="node17" class="node">
<title>0.0.0.04000</title>
<ellipse fill="none" stroke="black" cx="1225.54" cy="-752.2" rx="69.59" ry="69.59"/>
<text text-anchor="middle" x="1225.54" y="-748.5" font-family="Times,serif" font-size="14.00">0.0.0.0:4000</text>
</g>
<!-- 0.0.0.04000&#45;&gt;litellm -->
<g id="edge13" class="edge">
<title>0.0.0.04000&#45;&gt;litellm</title>
<path fill="none" stroke="black" d="M1225.54,-682.56C1225.54,-649.19 1225.54,-610.91 1225.54,-585.54"/>
<polygon fill="black" stroke="black" points="1229.04,-585.51 1225.54,-575.51 1222.04,-585.51 1229.04,-585.51"/>
<text text-anchor="middle" x="1244.04" y="-653.46" font-family="Times,serif" font-size="14.00">4000</text>
</g>
<!-- litellm_postgres_data -->
<g id="node20" class="node">
<title>litellm_postgres_data</title>
<path fill="none" stroke="black" d="M1377.54,-173.27C1377.54,-175.08 1339.45,-176.54 1292.54,-176.54 1245.64,-176.54 1207.54,-175.08 1207.54,-173.27 1207.54,-173.27 1207.54,-143.82 1207.54,-143.82 1207.54,-142.01 1245.64,-140.54 1292.54,-140.54 1339.45,-140.54 1377.54,-142.01 1377.54,-143.82 1377.54,-143.82 1377.54,-173.27 1377.54,-173.27"/>
<path fill="none" stroke="black" d="M1377.54,-173.27C1377.54,-171.47 1339.45,-170 1292.54,-170 1245.64,-170 1207.54,-171.47 1207.54,-173.27"/>
<text text-anchor="middle" x="1292.54" y="-154.84" font-family="Times,serif" font-size="14.00">litellm_postgres_data</text>
</g>
<!-- litellm_db&#45;&gt;litellm_postgres_data -->
<g id="edge18" class="edge">
<title>litellm_db&#45;&gt;litellm_postgres_data</title>
<path fill="none" stroke="black" stroke-dasharray="5,2" d="M1300.41,-325.49C1297.91,-307.2 1294.94,-282.78 1293.54,-261.09 1291.93,-236.03 1291.81,-207.43 1292.01,-186.98"/>
<polygon fill="black" stroke="black" points="1296.95,-326.06 1301.81,-335.48 1303.89,-325.09 1296.95,-326.06"/>
<polygon fill="black" stroke="black" points="1295.51,-186.86 1292.14,-176.81 1288.51,-186.77 1295.51,-186.86"/>
<text text-anchor="middle" x="1377.04" y="-249.89" font-family="Times,serif" font-size="14.00">/var/lib/postgresql/data</text>
</g>
<!-- clickhouse -->
<g id="node35" class="node">
<title>clickhouse</title>
<polygon fill="none" stroke="black" points="1754.04,-177.54 1479.04,-177.54 1479.04,-173.54 1475.04,-173.54 1475.04,-169.54 1479.04,-169.54 1479.04,-147.54 1475.04,-147.54 1475.04,-143.54 1479.04,-143.54 1479.04,-139.54 1754.04,-139.54 1754.04,-177.54"/>
<polyline fill="none" stroke="black" points="1479.04,-173.54 1483.04,-173.54 1483.04,-169.54 1479.04,-169.54 "/>
<polyline fill="none" stroke="black" points="1479.04,-147.54 1483.04,-147.54 1483.04,-143.54 1479.04,-143.54 "/>
<text text-anchor="middle" x="1616.54" y="-162.34" font-family="Times,serif" font-size="14.00">clickhouse</text>
<text text-anchor="middle" x="1616.54" y="-147.34" font-family="Times,serif" font-size="14.00">(clickhouse/clickhouse&#45;server:latest)</text>
</g>
<!-- openmeter&#45;&gt;clickhouse -->
<g id="edge32" class="edge">
<title>openmeter&#45;&gt;clickhouse</title>
<path fill="none" stroke="black" stroke-dasharray="1,5" d="M1830.34,-335.24C1787.71,-300.21 1694.38,-223.51 1646.37,-184.06"/>
<polygon fill="black" stroke="black" points="1648.46,-181.24 1638.52,-177.6 1644.02,-186.65 1648.46,-181.24"/>
</g>
<!-- kafka -->
<g id="node36" class="node">
<title>kafka</title>
<polygon fill="none" stroke="black" points="2202.54,-177.54 1984.54,-177.54 1984.54,-173.54 1980.54,-173.54 1980.54,-169.54 1984.54,-169.54 1984.54,-147.54 1980.54,-147.54 1980.54,-143.54 1984.54,-143.54 1984.54,-139.54 2202.54,-139.54 2202.54,-177.54"/>
<polyline fill="none" stroke="black" points="1984.54,-173.54 1988.54,-173.54 1988.54,-169.54 1984.54,-169.54 "/>
<polyline fill="none" stroke="black" points="1984.54,-147.54 1988.54,-147.54 1988.54,-143.54 1984.54,-143.54 "/>
<text text-anchor="middle" x="2093.54" y="-162.34" font-family="Times,serif" font-size="14.00">kafka</text>
<text text-anchor="middle" x="2093.54" y="-147.34" font-family="Times,serif" font-size="14.00">(confluentinc/cp&#45;kafka:7.7.1)</text>
</g>
<!-- openmeter&#45;&gt;kafka -->
<g id="edge33" class="edge">
<title>openmeter&#45;&gt;kafka</title>
<path fill="none" stroke="black" stroke-dasharray="1,5" d="M1875.22,-335.24C1918.75,-300.21 2014.06,-223.51 2063.08,-184.06"/>
<polygon fill="black" stroke="black" points="2065.51,-186.6 2071.11,-177.6 2061.12,-181.14 2065.51,-186.6"/>
</g>
<!-- 0.0.0.04317 -->
<g id="node22" class="node">
<title>0.0.0.04317</title>
<ellipse fill="none" stroke="black" cx="489.54" cy="-556.27" rx="69.59" ry="69.59"/>
<text text-anchor="middle" x="489.54" y="-552.57" font-family="Times,serif" font-size="14.00">0.0.0.0:4317</text>
</g>
<!-- 0.0.0.04317&#45;&gt;otel&#45;collector -->
<g id="edge20" class="edge">
<title>0.0.0.04317&#45;&gt;otel&#45;collector</title>
<path fill="none" stroke="black" d="M532.03,-501.2C562.58,-462.33 602.41,-411.64 626.15,-381.43"/>
<polygon fill="black" stroke="black" points="628.97,-383.51 632.39,-373.49 623.46,-379.19 628.97,-383.51"/>
<text text-anchor="middle" x="592.04" y="-451.67" font-family="Times,serif" font-size="14.00">4317</text>
</g>
<!-- 0.0.0.04318 -->
<g id="node23" class="node">
<title>0.0.0.04318</title>
<ellipse fill="none" stroke="black" cx="646.54" cy="-556.27" rx="69.59" ry="69.59"/>
<text text-anchor="middle" x="646.54" y="-552.57" font-family="Times,serif" font-size="14.00">0.0.0.0:4318</text>
</g>
<!-- 0.0.0.04318&#45;&gt;otel&#45;collector -->
<g id="edge21" class="edge">
<title>0.0.0.04318&#45;&gt;otel&#45;collector</title>
<path fill="none" stroke="black" d="M646.54,-486.51C646.54,-451.39 646.54,-410.57 646.54,-383.94"/>
<polygon fill="black" stroke="black" points="650.04,-383.8 646.54,-373.8 643.04,-383.8 650.04,-383.8"/>
<text text-anchor="middle" x="665.04" y="-451.67" font-family="Times,serif" font-size="14.00">4318</text>
</g>
<!-- 0.0.0.08889 -->
<g id="node24" class="node">
<title>0.0.0.08889</title>
<ellipse fill="none" stroke="black" cx="803.54" cy="-556.27" rx="69.59" ry="69.59"/>
<text text-anchor="middle" x="803.54" y="-552.57" font-family="Times,serif" font-size="14.00">0.0.0.0:8889</text>
</g>
<!-- 0.0.0.08889&#45;&gt;otel&#45;collector -->
<g id="edge22" class="edge">
<title>0.0.0.08889&#45;&gt;otel&#45;collector</title>
<path fill="none" stroke="black" d="M761.06,-501.2C730.51,-462.33 690.67,-411.64 666.94,-381.43"/>
<polygon fill="black" stroke="black" points="669.62,-379.19 660.69,-373.49 664.12,-383.51 669.62,-379.19"/>
<text text-anchor="middle" x="749.04" y="-451.67" font-family="Times,serif" font-size="14.00">8889</text>
</g>
<!-- prometheus -->
<g id="node25" class="node">
<title>prometheus</title>
<polygon fill="none" stroke="black" points="2789.54,-373.48 2589.54,-373.48 2589.54,-369.48 2585.54,-369.48 2585.54,-365.48 2589.54,-365.48 2589.54,-343.48 2585.54,-343.48 2585.54,-339.48 2589.54,-339.48 2589.54,-335.48 2789.54,-335.48 2789.54,-373.48"/>
<polyline fill="none" stroke="black" points="2589.54,-369.48 2593.54,-369.48 2593.54,-365.48 2589.54,-365.48 "/>
<polyline fill="none" stroke="black" points="2589.54,-343.48 2593.54,-343.48 2593.54,-339.48 2589.54,-339.48 "/>
<text text-anchor="middle" x="2689.54" y="-358.28" font-family="Times,serif" font-size="14.00">prometheus</text>
<text text-anchor="middle" x="2689.54" y="-343.28" font-family="Times,serif" font-size="14.00">(prom/prometheus:latest)</text>
</g>
<!-- ./prometheus.yml -->
<g id="node26" class="node">
<title>./prometheus.yml</title>
<path fill="none" stroke="black" d="M2520.54,-173.27C2520.54,-175.08 2488.72,-176.54 2449.54,-176.54 2410.37,-176.54 2378.54,-175.08 2378.54,-173.27 2378.54,-173.27 2378.54,-143.82 2378.54,-143.82 2378.54,-142.01 2410.37,-140.54 2449.54,-140.54 2488.72,-140.54 2520.54,-142.01 2520.54,-143.82 2520.54,-143.82 2520.54,-173.27 2520.54,-173.27"/>
<path fill="none" stroke="black" d="M2520.54,-173.27C2520.54,-171.47 2488.72,-170 2449.54,-170 2410.37,-170 2378.54,-171.47 2378.54,-173.27"/>
<text text-anchor="middle" x="2449.54" y="-154.84" font-family="Times,serif" font-size="14.00">./prometheus.yml</text>
</g>
<!-- prometheus&#45;&gt;./prometheus.yml -->
<g id="edge23" class="edge">
<title>prometheus&#45;&gt;./prometheus.yml</title>
<path fill="none" stroke="black" stroke-dasharray="5,2" d="M2579.66,-335.45C2535.06,-322.36 2487.36,-299.84 2458.54,-261.09 2442.84,-239.97 2442.34,-209.13 2444.68,-186.99"/>
<polygon fill="black" stroke="black" points="2578.84,-338.85 2589.42,-338.18 2580.73,-332.11 2578.84,-338.85"/>
<polygon fill="black" stroke="black" points="2448.18,-187.27 2446.01,-176.9 2441.24,-186.36 2448.18,-187.27"/>
<text text-anchor="middle" x="2577.54" y="-249.89" font-family="Times,serif" font-size="14.00">/etc/prometheus/prometheus.yml</text>
</g>
<!-- ./prometheus&#45;rules.yml -->
<g id="node27" class="node">
<title>./prometheus&#45;rules.yml</title>
<path fill="none" stroke="black" d="M2801.54,-173.27C2801.54,-175.08 2760.76,-176.54 2710.54,-176.54 2660.33,-176.54 2619.54,-175.08 2619.54,-173.27 2619.54,-173.27 2619.54,-143.82 2619.54,-143.82 2619.54,-142.01 2660.33,-140.54 2710.54,-140.54 2760.76,-140.54 2801.54,-142.01 2801.54,-143.82 2801.54,-143.82 2801.54,-173.27 2801.54,-173.27"/>
<path fill="none" stroke="black" d="M2801.54,-173.27C2801.54,-171.47 2760.76,-170 2710.54,-170 2660.33,-170 2619.54,-171.47 2619.54,-173.27"/>
<text text-anchor="middle" x="2710.54" y="-154.84" font-family="Times,serif" font-size="14.00">./prometheus&#45;rules.yml</text>
</g>
<!-- prometheus&#45;&gt;./prometheus&#45;rules.yml -->
<g id="edge24" class="edge">
<title>prometheus&#45;&gt;./prometheus&#45;rules.yml</title>
<path fill="none" stroke="black" stroke-dasharray="5,2" d="M2692.61,-325.14C2696.63,-287.99 2703.64,-223.27 2707.6,-186.71"/>
<polygon fill="black" stroke="black" points="2689.12,-324.92 2691.52,-335.24 2696.08,-325.67 2689.12,-324.92"/>
<polygon fill="black" stroke="black" points="2711.08,-187.08 2708.68,-176.76 2704.12,-186.33 2711.08,-187.08"/>
<text text-anchor="middle" x="2840.54" y="-249.89" font-family="Times,serif" font-size="14.00">/etc/prometheus/prometheus&#45;rules.yml</text>
</g>
<!-- 0.0.0.09090 -->
<g id="node28" class="node">
<title>0.0.0.09090</title>
<ellipse fill="none" stroke="black" cx="2687.54" cy="-556.27" rx="69.59" ry="69.59"/>
<text text-anchor="middle" x="2687.54" y="-552.57" font-family="Times,serif" font-size="14.00">0.0.0.0:9090</text>
</g>
<!-- 0.0.0.09090&#45;&gt;prometheus -->
<g id="edge25" class="edge">
<title>0.0.0.09090&#45;&gt;prometheus</title>
<path fill="none" stroke="black" d="M2688.23,-486.51C2688.58,-451.39 2688.99,-410.57 2689.26,-383.94"/>
<polygon fill="black" stroke="black" points="2692.76,-383.83 2689.36,-373.8 2685.76,-383.76 2692.76,-383.83"/>
<text text-anchor="middle" x="2708.04" y="-451.67" font-family="Times,serif" font-size="14.00">9090</text>
</g>
<!-- grafana -->
<g id="node29" class="node">
<title>grafana</title>
<polygon fill="none" stroke="black" points="2961.54,-575.27 2775.54,-575.27 2775.54,-571.27 2771.54,-571.27 2771.54,-567.27 2775.54,-567.27 2775.54,-545.27 2771.54,-545.27 2771.54,-541.27 2775.54,-541.27 2775.54,-537.27 2961.54,-537.27 2961.54,-575.27"/>
<polyline fill="none" stroke="black" points="2775.54,-571.27 2779.54,-571.27 2779.54,-567.27 2775.54,-567.27 "/>
<polyline fill="none" stroke="black" points="2775.54,-545.27 2779.54,-545.27 2779.54,-541.27 2775.54,-541.27 "/>
<text text-anchor="middle" x="2868.54" y="-560.07" font-family="Times,serif" font-size="14.00">grafana</text>
<text text-anchor="middle" x="2868.54" y="-545.07" font-family="Times,serif" font-size="14.00">(grafana/grafana:latest)</text>
</g>
<!-- grafana&#45;&gt;prometheus -->
<g id="edge29" class="edge">
<title>grafana&#45;&gt;prometheus</title>
<path fill="none" stroke="black" stroke-dasharray="1,5" d="M2852.34,-537.19C2820.47,-501.62 2749.54,-422.45 2712.72,-381.35"/>
<polygon fill="black" stroke="black" points="2715.12,-378.78 2705.84,-373.67 2709.9,-383.45 2715.12,-378.78"/>
</g>
<!-- grafana_data -->
<g id="node30" class="node">
<title>grafana_data</title>
<path fill="none" stroke="black" d="M2919.54,-369.21C2919.54,-371.01 2894.89,-372.48 2864.54,-372.48 2834.2,-372.48 2809.54,-371.01 2809.54,-369.21 2809.54,-369.21 2809.54,-339.75 2809.54,-339.75 2809.54,-337.95 2834.2,-336.48 2864.54,-336.48 2894.89,-336.48 2919.54,-337.95 2919.54,-339.75 2919.54,-339.75 2919.54,-369.21 2919.54,-369.21"/>
<path fill="none" stroke="black" d="M2919.54,-369.21C2919.54,-367.4 2894.89,-365.94 2864.54,-365.94 2834.2,-365.94 2809.54,-367.4 2809.54,-369.21"/>
<text text-anchor="middle" x="2864.54" y="-350.78" font-family="Times,serif" font-size="14.00">grafana_data</text>
</g>
<!-- grafana&#45;&gt;grafana_data -->
<g id="edge26" class="edge">
<title>grafana&#45;&gt;grafana_data</title>
<path fill="none" stroke="black" stroke-dasharray="5,2" d="M2867.98,-527.06C2867.21,-488.73 2865.85,-420.65 2865.09,-382.8"/>
<polygon fill="black" stroke="black" points="2864.48,-527.26 2868.18,-537.19 2871.48,-527.12 2864.48,-527.26"/>
<polygon fill="black" stroke="black" points="2868.58,-382.45 2864.89,-372.53 2861.59,-382.59 2868.58,-382.45"/>
<text text-anchor="middle" x="2922.54" y="-451.67" font-family="Times,serif" font-size="14.00">/var/lib/grafana</text>
</g>
<!-- ./grafana/provisioning -->
<g id="node31" class="node">
<title>./grafana/provisioning</title>
<path fill="none" stroke="black" d="M3111.04,-369.21C3111.04,-371.01 3072.27,-372.48 3024.54,-372.48 2976.81,-372.48 2938.04,-371.01 2938.04,-369.21 2938.04,-369.21 2938.04,-339.75 2938.04,-339.75 2938.04,-337.95 2976.81,-336.48 3024.54,-336.48 3072.27,-336.48 3111.04,-337.95 3111.04,-339.75 3111.04,-339.75 3111.04,-369.21 3111.04,-369.21"/>
<path fill="none" stroke="black" d="M3111.04,-369.21C3111.04,-367.4 3072.27,-365.94 3024.54,-365.94 2976.81,-365.94 2938.04,-367.4 2938.04,-369.21"/>
<text text-anchor="middle" x="3024.54" y="-350.78" font-family="Times,serif" font-size="14.00">./grafana/provisioning</text>
</g>
<!-- grafana&#45;&gt;./grafana/provisioning -->
<g id="edge27" class="edge">
<title>grafana&#45;&gt;./grafana/provisioning</title>
<path fill="none" stroke="black" stroke-dasharray="5,2" d="M2906.89,-531.31C2931.02,-514.61 2961.31,-490.44 2981.54,-462.87 2999.47,-438.44 3011.21,-405.5 3017.82,-382.57"/>
<polygon fill="black" stroke="black" points="2904.62,-528.62 2898.3,-537.12 2908.55,-534.42 2904.62,-528.62"/>
<polygon fill="black" stroke="black" points="3021.23,-383.38 3020.5,-372.81 3014.48,-381.52 3021.23,-383.38"/>
<text text-anchor="middle" x="3079.04" y="-451.67" font-family="Times,serif" font-size="14.00">/etc/grafana/provisioning</text>
</g>
<!-- 0.0.0.03001 -->
<g id="node32" class="node">
<title>0.0.0.03001</title>
<ellipse fill="none" stroke="black" cx="2868.54" cy="-752.2" rx="69.59" ry="69.59"/>
<text text-anchor="middle" x="2868.54" y="-748.5" font-family="Times,serif" font-size="14.00">0.0.0.0:3001</text>
</g>
<!-- 0.0.0.03001&#45;&gt;grafana -->
<g id="edge28" class="edge">
<title>0.0.0.03001&#45;&gt;grafana</title>
<path fill="none" stroke="black" d="M2868.54,-682.56C2868.54,-649.19 2868.54,-610.91 2868.54,-585.54"/>
<polygon fill="black" stroke="black" points="2872.04,-585.51 2868.54,-575.51 2865.04,-585.51 2872.04,-585.51"/>
<text text-anchor="middle" x="2887.04" y="-653.46" font-family="Times,serif" font-size="14.00">3000</text>
</g>
<!-- 0.0.0.08888 -->
<g id="node33" class="node">
<title>0.0.0.08888</title>
<ellipse fill="none" stroke="black" cx="1774.54" cy="-556.27" rx="69.59" ry="69.59"/>
<text text-anchor="middle" x="1774.54" y="-552.57" font-family="Times,serif" font-size="14.00">0.0.0.0:8888</text>
</g>
<!-- 0.0.0.08888&#45;&gt;openmeter -->
<g id="edge30" class="edge">
<title>0.0.0.08888&#45;&gt;openmeter</title>
<path fill="none" stroke="black" d="M1799.55,-491.23C1813.75,-454.84 1830.82,-411.13 1841.67,-383.33"/>
<polygon fill="black" stroke="black" points="1845,-384.43 1845.37,-373.85 1838.48,-381.89 1845,-384.43"/>
<text text-anchor="middle" x="1835.04" y="-451.67" font-family="Times,serif" font-size="14.00">8888</text>
</g>
<!-- 0.0.0.08890 -->
<g id="node34" class="node">
<title>0.0.0.08890</title>
<ellipse fill="none" stroke="black" cx="1931.54" cy="-556.27" rx="69.59" ry="69.59"/>
<text text-anchor="middle" x="1931.54" y="-552.57" font-family="Times,serif" font-size="14.00">0.0.0.0:8890</text>
</g>
<!-- 0.0.0.08890&#45;&gt;openmeter -->
<g id="edge31" class="edge">
<title>0.0.0.08890&#45;&gt;openmeter</title>
<path fill="none" stroke="black" d="M1906.22,-491.23C1891.83,-454.84 1874.55,-411.13 1863.55,-383.33"/>
<polygon fill="black" stroke="black" points="1866.74,-381.86 1859.81,-373.85 1860.23,-384.43 1866.74,-381.86"/>
<text text-anchor="middle" x="1913.04" y="-451.67" font-family="Times,serif" font-size="14.00">8889</text>
</g>
<!-- clickhouse_data -->
<g id="node37" class="node">
<title>clickhouse_data</title>
<path fill="none" stroke="black" d="M1709.04,-33.73C1709.04,-35.53 1680.13,-37 1644.54,-37 1608.95,-37 1580.04,-35.53 1580.04,-33.73 1580.04,-33.73 1580.04,-4.27 1580.04,-4.27 1580.04,-2.47 1608.95,-1 1644.54,-1 1680.13,-1 1709.04,-2.47 1709.04,-4.27 1709.04,-4.27 1709.04,-33.73 1709.04,-33.73"/>
<path fill="none" stroke="black" d="M1709.04,-33.73C1709.04,-31.92 1680.13,-30.45 1644.54,-30.45 1608.95,-30.45 1580.04,-31.92 1580.04,-33.73"/>
<text text-anchor="middle" x="1644.54" y="-15.3" font-family="Times,serif" font-size="14.00">clickhouse_data</text>
</g>
<!-- clickhouse&#45;&gt;clickhouse_data -->
<g id="edge34" class="edge">
<title>clickhouse&#45;&gt;clickhouse_data</title>
<path fill="none" stroke="black" stroke-dasharray="5,2" d="M1622.28,-129.38C1627.18,-105.31 1634.18,-70.91 1639.02,-47.14"/>
<polygon fill="black" stroke="black" points="1618.83,-128.78 1620.26,-139.28 1625.69,-130.18 1618.83,-128.78"/>
<polygon fill="black" stroke="black" points="1642.51,-47.54 1641.07,-37.04 1635.65,-46.14 1642.51,-47.54"/>
<text text-anchor="middle" x="1702.54" y="-59.8" font-family="Times,serif" font-size="14.00">/var/lib/clickhouse</text>
</g>
<!-- ./clickhouse/config.xml -->
<g id="node38" class="node">
<title>./clickhouse/config.xml</title>
<path fill="none" stroke="black" d="M1905.54,-33.73C1905.54,-35.53 1865.65,-37 1816.54,-37 1767.44,-37 1727.54,-35.53 1727.54,-33.73 1727.54,-33.73 1727.54,-4.27 1727.54,-4.27 1727.54,-2.47 1767.44,-1 1816.54,-1 1865.65,-1 1905.54,-2.47 1905.54,-4.27 1905.54,-4.27 1905.54,-33.73 1905.54,-33.73"/>
<path fill="none" stroke="black" d="M1905.54,-33.73C1905.54,-31.92 1865.65,-30.45 1816.54,-30.45 1767.44,-30.45 1727.54,-31.92 1727.54,-33.73"/>
<text text-anchor="middle" x="1816.54" y="-15.3" font-family="Times,serif" font-size="14.00">./clickhouse/config.xml</text>
</g>
<!-- clickhouse&#45;&gt;./clickhouse/config.xml -->
<g id="edge35" class="edge">
<title>clickhouse&#45;&gt;./clickhouse/config.xml</title>
<path fill="none" stroke="black" stroke-dasharray="5,2" d="M1657.4,-139.46C1690.09,-123.92 1736.15,-99.53 1771.54,-71 1780.83,-63.51 1789.8,-53.99 1797.26,-45.2"/>
<polygon fill="black" stroke="black" points="1800,-47.37 1803.64,-37.42 1794.59,-42.93 1800,-47.37"/>
<text text-anchor="middle" x="1904.54" y="-59.8" font-family="Times,serif" font-size="14.00">/etc/clickhouse&#45;server/config.xml</text>
</g>
<!-- ./clickhouse/users.xml -->
<g id="node39" class="node">
<title>./clickhouse/users.xml</title>
<path fill="none" stroke="black" d="M1271.54,-33.73C1271.54,-35.53 1232.55,-37 1184.54,-37 1136.54,-37 1097.54,-35.53 1097.54,-33.73 1097.54,-33.73 1097.54,-4.27 1097.54,-4.27 1097.54,-2.47 1136.54,-1 1184.54,-1 1232.55,-1 1271.54,-2.47 1271.54,-4.27 1271.54,-4.27 1271.54,-33.73 1271.54,-33.73"/>
<path fill="none" stroke="black" d="M1271.54,-33.73C1271.54,-31.92 1232.55,-30.45 1184.54,-30.45 1136.54,-30.45 1097.54,-31.92 1097.54,-33.73"/>
<text text-anchor="middle" x="1184.54" y="-15.3" font-family="Times,serif" font-size="14.00">./clickhouse/users.xml</text>
</g>
<!-- clickhouse&#45;&gt;./clickhouse/users.xml -->
<g id="edge36" class="edge">
<title>clickhouse&#45;&gt;./clickhouse/users.xml</title>
<path fill="none" stroke="black" stroke-dasharray="5,2" d="M1566.08,-139.49C1519.94,-123.71 1449.49,-101.43 1386.54,-89 1347.32,-81.26 1240,-94.35 1207.54,-71 1199.44,-65.17 1194.13,-55.79 1190.69,-46.66"/>
<polygon fill="black" stroke="black" points="1193.99,-45.51 1187.63,-37.03 1187.32,-47.62 1193.99,-45.51"/>
<text text-anchor="middle" x="1322.54" y="-59.8" font-family="Times,serif" font-size="14.00">/etc/clickhouse&#45;server/users.xml</text>
</g>
<!-- clickhouse_logs -->
<g id="node40" class="node">
<title>clickhouse_logs</title>
<path fill="none" stroke="black" d="M1501.04,-33.73C1501.04,-35.53 1472.58,-37 1437.54,-37 1402.51,-37 1374.04,-35.53 1374.04,-33.73 1374.04,-33.73 1374.04,-4.27 1374.04,-4.27 1374.04,-2.47 1402.51,-1 1437.54,-1 1472.58,-1 1501.04,-2.47 1501.04,-4.27 1501.04,-4.27 1501.04,-33.73 1501.04,-33.73"/>
<path fill="none" stroke="black" d="M1501.04,-33.73C1501.04,-31.92 1472.58,-30.45 1437.54,-30.45 1402.51,-30.45 1374.04,-31.92 1374.04,-33.73"/>
<text text-anchor="middle" x="1437.54" y="-15.3" font-family="Times,serif" font-size="14.00">clickhouse_logs</text>
</g>
<!-- clickhouse&#45;&gt;clickhouse_logs -->
<g id="edge37" class="edge">
<title>clickhouse&#45;&gt;clickhouse_logs</title>
<path fill="none" stroke="black" stroke-dasharray="5,2" d="M1541.31,-135.8C1507.75,-122.37 1470.66,-101.69 1447.54,-71 1442.43,-64.21 1439.72,-55.51 1438.35,-47.22"/>
<polygon fill="black" stroke="black" points="1540.07,-139.07 1550.66,-139.39 1542.58,-132.54 1540.07,-139.07"/>
<polygon fill="black" stroke="black" points="1441.81,-46.68 1437.24,-37.13 1434.85,-47.45 1441.81,-46.68"/>
<text text-anchor="middle" x="1539.54" y="-59.8" font-family="Times,serif" font-size="14.00">/var/log/clickhouse&#45;server</text>
</g>
<!-- zookeeper -->
<g id="node43" class="node">
<title>zookeeper</title>
<polygon fill="none" stroke="black" points="2361.04,-38 2104.04,-38 2104.04,-34 2100.04,-34 2100.04,-30 2104.04,-30 2104.04,-8 2100.04,-8 2100.04,-4 2104.04,-4 2104.04,0 2361.04,0 2361.04,-38"/>
<polyline fill="none" stroke="black" points="2104.04,-34 2108.04,-34 2108.04,-30 2104.04,-30 "/>
<polyline fill="none" stroke="black" points="2104.04,-8 2108.04,-8 2108.04,-4 2104.04,-4 "/>
<text text-anchor="middle" x="2232.54" y="-22.8" font-family="Times,serif" font-size="14.00">zookeeper</text>
<text text-anchor="middle" x="2232.54" y="-7.8" font-family="Times,serif" font-size="14.00">(confluentinc/cp&#45;zookeeper:latest)</text>
</g>
<!-- kafka&#45;&gt;zookeeper -->
<g id="edge43" class="edge">
<title>kafka&#45;&gt;zookeeper</title>
<path fill="none" stroke="black" stroke-dasharray="1,5" d="M2112,-139.28C2136.3,-115.23 2179.16,-72.83 2206.68,-45.59"/>
<polygon fill="black" stroke="black" points="2209.36,-47.86 2214.01,-38.34 2204.44,-42.89 2209.36,-47.86"/>
</g>
<!-- 0.0.0.08123 -->
<g id="node41" class="node">
<title>0.0.0.08123</title>
<ellipse fill="none" stroke="black" cx="1459.54" cy="-354.48" rx="69.59" ry="69.59"/>
<text text-anchor="middle" x="1459.54" y="-350.78" font-family="Times,serif" font-size="14.00">0.0.0.0:8123</text>
</g>
<!-- 0.0.0.08123&#45;&gt;clickhouse -->
<g id="edge38" class="edge">
<title>0.0.0.08123&#45;&gt;clickhouse</title>
<path fill="none" stroke="black" d="M1502.86,-299.97C1532.93,-262.83 1571.68,-214.96 1595.29,-185.79"/>
<polygon fill="black" stroke="black" points="1598.25,-187.71 1601.82,-177.73 1592.81,-183.3 1598.25,-187.71"/>
<text text-anchor="middle" x="1562.04" y="-249.89" font-family="Times,serif" font-size="14.00">8123</text>
</g>
<!-- 0.0.0.09000 -->
<g id="node42" class="node">
<title>0.0.0.09000</title>
<ellipse fill="none" stroke="black" cx="1616.54" cy="-354.48" rx="69.59" ry="69.59"/>
<text text-anchor="middle" x="1616.54" y="-350.78" font-family="Times,serif" font-size="14.00">0.0.0.0:9000</text>
</g>
<!-- 0.0.0.09000&#45;&gt;clickhouse -->
<g id="edge39" class="edge">
<title>0.0.0.09000&#45;&gt;clickhouse</title>
<path fill="none" stroke="black" d="M1616.54,-284.83C1616.54,-251.46 1616.54,-213.19 1616.54,-187.81"/>
<polygon fill="black" stroke="black" points="1620.04,-187.78 1616.54,-177.78 1613.04,-187.78 1620.04,-187.78"/>
<text text-anchor="middle" x="1635.04" y="-249.89" font-family="Times,serif" font-size="14.00">9000</text>
</g>
<!-- 0.0.0.02181 -->
<g id="node44" class="node">
<title>0.0.0.02181</title>
<ellipse fill="none" stroke="black" cx="2290.54" cy="-158.54" rx="69.59" ry="69.59"/>
<text text-anchor="middle" x="2290.54" y="-154.84" font-family="Times,serif" font-size="14.00">0.0.0.0:2181</text>
</g>
<!-- 0.0.0.02181&#45;&gt;zookeeper -->
<g id="edge40" class="edge">
<title>0.0.0.02181&#45;&gt;zookeeper</title>
<path fill="none" stroke="black" d="M2263.75,-94.01C2256.89,-77.74 2249.87,-61.08 2244.22,-47.7"/>
<polygon fill="black" stroke="black" points="2247.31,-46.02 2240.2,-38.16 2240.86,-48.74 2247.31,-46.02"/>
<text text-anchor="middle" x="2272.04" y="-59.8" font-family="Times,serif" font-size="14.00">2181</text>
</g>
<!-- 0.0.0.09092 -->
<g id="node45" class="node">
<title>0.0.0.09092</title>
<ellipse fill="none" stroke="black" cx="2256.54" cy="-354.48" rx="69.59" ry="69.59"/>
<text text-anchor="middle" x="2256.54" y="-350.78" font-family="Times,serif" font-size="14.00">0.0.0.0:9092</text>
</g>
<!-- 0.0.0.09092&#45;&gt;kafka -->
<g id="edge41" class="edge">
<title>0.0.0.09092&#45;&gt;kafka</title>
<path fill="none" stroke="black" d="M2212.22,-300.74C2180.85,-263.42 2140.14,-214.98 2115.47,-185.63"/>
<polygon fill="black" stroke="black" points="2118.07,-183.29 2108.96,-177.88 2112.71,-187.79 2118.07,-183.29"/>
<text text-anchor="middle" x="2194.04" y="-249.89" font-family="Times,serif" font-size="14.00">9092</text>
</g>
<!-- 0.0.0.029092 -->
<g id="node46" class="node">
<title>0.0.0.029092</title>
<ellipse fill="none" stroke="black" cx="2093.54" cy="-354.48" rx="75.29" ry="75.29"/>
<text text-anchor="middle" x="2093.54" y="-350.78" font-family="Times,serif" font-size="14.00">0.0.0.0:29092</text>
</g>
<!-- 0.0.0.029092&#45;&gt;kafka -->
<g id="edge42" class="edge">
<title>0.0.0.029092&#45;&gt;kafka</title>
<path fill="none" stroke="black" d="M2093.54,-279.05C2093.54,-247.19 2093.54,-211.89 2093.54,-187.97"/>
<polygon fill="black" stroke="black" points="2097.04,-187.83 2093.54,-177.83 2090.04,-187.83 2097.04,-187.83"/>
<text text-anchor="middle" x="2116.54" y="-249.89" font-family="Times,serif" font-size="14.00">29092</text>
</g>
</g>
</svg>
