<?xml version="1.0" encoding="UTF-8"?>
<svg id="Ebene_2" data-name="Ebene 2" xmlns="http://www.w3.org/2000/svg" viewBox="0 0 1860.79 317.1">
  <defs>
    <style>
      .cls-1 {
        fill: #010101;
      }

      .cls-2 {
        fill: none;
        stroke: #7d7c7c;
        stroke-miterlimit: 10;
        stroke-width: 4px;
      }
    </style>
  </defs>
  <g id="Layer_1" data-name="Layer 1">
    <g>
      <g>
        <g>
          <path d="M1159.44,139.02c-2.5-2.5-5.47-4.49-8.81-5.92-3.34-1.43-6.96-2.15-10.79-2.15h-.01c-3.83,0-7.46.73-10.8,2.16-3.35,1.44-6.32,3.43-8.81,5.93-2.5,2.5-4.49,5.46-5.93,8.81-1.41,3.3-2.14,6.91-2.15,10.71,0,3.79.73,7.39,2.15,10.7,1.44,3.35,3.43,6.32,5.92,8.81,2.49,2.5,5.46,4.49,8.81,5.93,3.34,1.43,6.97,2.16,10.8,2.16h0c3.82,0,7.46-.72,10.79-2.15,3.35-1.43,6.31-3.43,8.81-5.92,2.5-2.5,4.49-5.46,5.93-8.81,1.42-3.31,2.14-6.92,2.15-10.73,0-3.8-.73-7.41-2.15-10.72-1.44-3.34-3.43-6.31-5.93-8.81Z"/>
          <path d="M1163.16,0c-87.55,0-158.55,71-158.55,158.55s71,158.55,158.55,158.55,158.55-71,158.55-158.55S1250.71,0,1163.16,0ZM1186.55,158.62v37.2c.01,2.65-.91,4.93-2.74,6.76-1.83,1.83-4.1,2.76-6.76,2.76h0c-2.66,0-4.93-.93-6.75-2.75-1.73-1.72-2.65-3.85-2.75-6.33-3.46,2.59-7.24,4.66-11.28,6.16-.82.31-1.65.58-2.48.84-.7.21-1.29.38-1.87.54-.38.1-.77.2-1.16.29l-.8.19c-.48.11-.97.2-1.45.29l-.63.11c-.5.09-1,.16-1.5.23l-.74.09c-.46.06-.92.11-1.39.15-.28.03-.57.05-.86.07l-.54.04c-.26.02-.51.04-.77.05-.74.03-1.48.05-2.22.05h-.62c-6.16-.09-12.05-1.31-17.51-3.64-5.65-2.41-10.67-5.78-14.91-10.02-3.72-3.72-6.78-8.04-9.1-12.84l-.11-.24c-.31-.65-.56-1.2-.8-1.76l-.27-.68c-2.26-5.51-3.4-11.4-3.41-17.51v-.2c0-6.11,1.15-12,3.4-17.5l.3-.73c.26-.61.49-1.11.73-1.61l.17-.36c2.31-4.79,5.37-9.11,9.09-12.83,4.25-4.24,9.27-7.62,14.91-10.03,5.46-2.33,11.35-3.55,17.51-3.63h.66s.06,0,.06,0c.78,0,1.45.02,2.12.05.26.01.51.03.77.05l.54.04c.29.02.57.04.86.07.46.04.92.1,1.39.15l.74.09c.5.07,1,.15,1.5.23l.63.11c.49.09.98.19,1.46.29l.87.2c.37.09.74.18,1.1.28.58.15,1.16.32,1.74.5.95.29,1.78.57,2.6.87,4.03,1.49,7.81,3.56,11.27,6.16.1-2.48,1.02-4.6,2.75-6.33,1.82-1.82,4.1-2.75,6.75-2.75h0c2.65,0,4.93.93,6.76,2.76,1.83,1.83,2.75,4.11,2.75,6.76v37.29s-.01.06-.01.06ZM1220.87,202.57c-1.83,1.83-4.1,2.76-6.75,2.76h0c-2.66,0-4.93-.93-6.75-2.75-1.83-1.83-2.76-4.1-2.76-6.75l-.02-74.4c0-2.66.93-4.93,2.75-6.76,1.83-1.83,4.1-2.76,6.76-2.76h0c2.65,0,4.92.93,6.75,2.75,1.83,1.83,2.76,4.1,2.76,6.76l.02,74.4c0,2.66-.93,4.93-2.75,6.76Z"/>
        </g>
        <path d="M1601.87,186c3.11-5.73,18.15-35.13,26.98-51.92h-24.46v-11.45h40.76v8.83c-1.84,3.88-19.41,38.92-26.2,51.63h26.49v11.45h-43.67l.1-8.54ZM1461.45,194.54h14.65v-49.4c0-7.47,1.46-12.32,8.25-12.32,4.76,0,7.08,1.94,7.08,9.12v52.6h14.85v-49.49c0-7.38,1.55-12.13,8.35-12.13,5.43,0,6.89,3.3,6.89,8.64v52.99h14.85v-55.41c0-13.97-7.57-17.66-16.5-17.66s-13.1,3.78-15.92,7.96c-1.94-5.63-6.5-7.96-13.3-7.96s-12.03,2.81-14.65,7.57c-.19-2.33-.19-4.27-.68-6.4h-13.97c.19,3.4.19,6.99.19,20.86l-.1,51.05ZM1771.36,179.79c-4.08,0-7.38,3.3-7.38,7.38s3.3,7.38,7.38,7.38,7.38-3.3,7.38-7.38c.1-4.08-3.2-7.38-7.38-7.38M1723.37,161.74v10.97c0,6.31,1.46,12.32,8.73,12.32s8.35-5.34,8.35-11.16v-.39h14.36v.39c0,7.86-1.94,21.84-22.42,21.84s-23.48-10.77-23.48-25.33v-24.84c0-10.19,4.08-23.87,23.48-23.87,17.27,0,22.71,10.38,22.71,23.87v16.21h-31.73ZM1723.47,151.74h17.47v-8.15c0-6.6-1.46-11.45-8.54-11.45-6.6,0-8.93,4.17-8.93,11.65v7.96ZM1666.7,161.74v10.97c0,6.31,1.46,12.32,8.73,12.32s8.44-5.34,8.44-11.16v-.39h14.36v.39c0,7.86-1.94,21.84-22.32,21.84s-23.48-10.77-23.48-25.33v-24.84c0-10.19,4.08-23.87,23.48-23.87,17.27,0,22.71,10.38,22.71,23.87v16.21h-31.93ZM1666.89,151.74h17.47v-8.15c0-6.6-1.46-11.45-8.54-11.45-6.6,0-8.93,4.17-8.93,11.65v7.96ZM1592.85,194.54h-13.49c-.29-1.55-.97-4.46-.97-5.43-2.81,4.76-7.76,6.6-13.97,6.6-12.52,0-17.47-9.61-17.47-20.67v-1.36c0-17.08,13.2-22.22,28.34-22.22h2.62v-10.09c0-6.02-.97-9.51-6.79-9.51s-7.08,3.69-7.08,8.64v1.36h-14.46v-1.16c0-10.19,4.66-19.12,22.03-19.12,15.62,0,20.86,7.67,20.86,18.83l.1,40.47c0,4.66,0,11.16.29,13.68ZM1578.19,161.15h-3.49c-8.35,0-13.78,2.91-13.78,12.42v1.07c0,5.73,2.33,9.9,8.05,9.9,6.6,0,9.22-4.08,9.22-14.27v-9.12ZM1446.89,194.54h-13.49c-.29-1.55-.97-4.46-.97-5.43-2.81,4.76-7.76,6.6-13.97,6.6-12.52,0-17.47-9.61-17.47-20.67v-1.36c0-17.08,13.2-22.22,28.34-22.22h2.62v-10.09c0-6.02-.97-9.51-6.79-9.51s-7.08,3.69-7.08,8.64v1.36h-14.46v-1.16c0-10.19,4.66-19.12,22.03-19.12,15.62,0,20.86,7.67,20.86,18.83l.1,40.47c0,4.66,0,11.16.29,13.68ZM1432.33,161.15h-3.49c-8.44,0-13.78,2.91-13.78,12.42v1.07c0,5.73,2.33,9.9,8.05,9.9,6.6,0,9.22-4.08,9.22-14.27v-9.12ZM1845.94,194.54h14.65v-71.91h-14.65v71.91ZM1845.94,112.05h14.85v-14.94h-14.85v14.94ZM1833.52,194.54h-13.49c-.29-1.55-.97-4.46-.97-5.43-2.81,4.76-7.76,6.6-13.97,6.6-12.52,0-17.47-9.61-17.47-20.67v-1.36c0-17.08,13.2-22.22,28.34-22.22h2.62v-10.09c0-6.02-.97-9.51-6.79-9.51s-7.08,3.69-7.08,8.64v1.36h-14.46v-1.16c0-10.19,4.66-19.12,22.03-19.12,15.62,0,20.86,7.67,20.86,18.83l.1,40.47c0,4.66,0,11.16.29,13.68ZM1818.96,161.15h-3.49c-8.44,0-13.78,2.91-13.78,12.42v1.07c0,5.73,2.33,9.9,8.05,9.9,6.6,0,9.22-4.08,9.22-14.27v-9.12Z"/>
      </g>
      <line class="cls-2" x1="927.72" y1="50.06" x2="927.72" y2="266.48"/>
      <g>
        <path class="cls-1" d="M442,180.87l-.1-40.47c0-11.16-5.24-18.83-20.86-18.83-17.37,0-22.03,8.93-22.03,19.12v1.16h14.46v-1.36c0-4.95,1.26-8.64,7.08-8.64s6.79,3.49,6.79,9.51v10.09h-2.62c-15.14,0-28.34,5.14-28.34,22.22v1.36c0,11.06,4.95,20.67,17.47,20.67,6.21,0,11.16-1.84,13.97-6.6,0,.97.68,3.88.97,5.43h13.49c-.29-2.52-.29-9.02-.29-13.68v.02ZM427.73,161.15v9.12c0,10.19-2.62,14.27-9.22,14.27-5.72,0-8.05-4.17-8.05-9.9v-1.07c0-9.51,5.34-12.42,13.78-12.42h3.49Z"/>
        <rect class="cls-1" x="783.01" y="97.1" width="14.85" height="14.94"/>
        <rect class="cls-1" x="783.01" y="122.63" width="14.65" height="71.91"/>
        <path class="cls-1" d="M832.9,121.45c-14.37,0-24.07,7.19-24.07,22.13v29.21c0,15.24,8.54,22.81,23.48,22.81s23.87-7.47,23.87-22.9v-28.63h.01c0-14.57-8.54-22.52-23.29-22.62ZM841.33,173.09c0,7.66-2.81,11.35-8.73,11.35-6.6,0-9.03-4.46-9.03-11.16v-29.88c0-6.89,2.81-10.77,8.83-10.87,6.79,0,8.93,4.66,8.93,10.77v29.79Z"/>
        <path class="cls-1" d="M765.73,179.78c-4.08,0-7.38,3.3-7.38,7.38s3.3,7.38,7.38,7.38,7.38-3.3,7.38-7.38c.1-4.08-3.2-7.38-7.38-7.38Z"/>
        <path class="cls-1" d="M587.96,180.87l-.1-40.47c0-11.16-5.24-18.83-20.86-18.83-17.37,0-22.03,8.93-22.03,19.12v1.16h14.46v-1.36c0-4.95,1.26-8.64,7.08-8.64s6.79,3.49,6.79,9.51v10.09h-2.62c-15.14,0-28.34,5.14-28.34,22.22v1.36c0,11.06,4.95,20.67,17.47,20.67,6.21,0,11.16-1.84,13.97-6.6,0,.97.68,3.88.97,5.43h13.49c-.29-2.52-.29-9.02-.29-13.68v.02ZM573.58,161.15v9.12c0,10.19-2.62,14.27-9.22,14.27-5.72,0-8.05-4.17-8.05-9.9v-1.07c0-9.51,5.43-12.42,13.78-12.42h3.49,0Z"/>
        <path class="cls-1" d="M727.78,121.66c-19.4,0-23.48,13.68-23.48,23.87v24.84c0,14.56,3,25.33,23.48,25.33s22.42-13.98,22.42-21.84v-.39h-14.36v.39c0,5.82-1.08,11.16-8.35,11.16s-8.73-6.01-8.73-12.32v-10.96h31.73v-16.21c0-13.49-5.44-23.87-22.71-23.87ZM736.33,151.74h0s-17.47.01-17.47.01v-7.96c0-7.48,2.33-11.65,8.93-11.65,7.08,0,8.54,4.85,8.54,11.45v8.15Z"/>
        <path class="cls-1" d="M640.54,131.46v-8.83h-40.76v11.45h24.46c-8.83,16.79-23.87,46.19-26.98,51.92h0l-.1,8.54h43.67v-11.45h-26.49c6.79-12.71,24.36-47.75,26.2-51.63Z"/>
        <path class="cls-1" d="M515.27,121.46c-8.64,0-13.11,3.79-15.92,7.96-1.95-5.63-6.22-7.96-13.3-7.96s-12.03,2.81-14.65,7.57c-.19-2.32-.19-4.27-.68-6.4h-13.97c.19,3.39.19,6.98.19,20.86v-.02s-.09,51.05-.09,51.05h14.65v-49.4c0-7.47,1.46-12.32,8.25-12.32,4.75,0,7.08,1.94,7.08,9.12v52.6h14.85v-49.49c0-7.37,1.56-12.13,8.35-12.13,5.43,0,6.89,3.3,6.89,8.64v52.99h14.85v-55.41c0-13.97-7.86-17.66-16.5-17.66Z"/>
        <path class="cls-1" d="M671.3,121.66c-19.4,0-23.48,13.68-23.48,23.87v24.84c0,14.56,3.1,25.33,23.48,25.33s22.32-13.98,22.32-21.84v-.39h-14.36v.39c0,5.82-1.17,11.16-8.44,11.16s-8.73-6.01-8.73-12.32v-10.96h31.92v-16.21c0-13.49-5.44-23.87-22.71-23.87ZM679.75,151.74h0s-17.47.01-17.47.01v-7.96c0-7.48,2.33-11.65,8.93-11.65,7.08,0,8.54,4.85,8.54,11.45v8.15Z"/>
        <path class="cls-1" d="M158.55,0h0C71,0,0,71,0,158.55s71,158.55,158.55,158.55,158.55-71,158.55-158.55S246.1,0,158.55,0ZM103.59,193.1c0,5.15-4.18,9.33-9.33,9.33s-9.33-4.18-9.33-9.33v-69.11c0-5.15,4.18-9.33,9.33-9.33s9.33,4.18,9.33,9.33v69.11ZM176.85,90.1l-37.47,139.74c-.58,2.26-2.7,3.86-5.03,3.86h-3.35c-3.43,0-5.98-3.28-5.03-6.56l37.47-139.74c.58-2.26,2.7-3.86,5.03-3.86h3.35c3.43-.07,5.9,3.21,5.03,6.56ZM247.63,176.34c0,24.86-16.4,28.36-26.02,28.36h-2.11c-9.55,0-26.02-3.5-26.02-28.36v-35.43c0-24.86,16.4-28.36,26.02-28.36h2.11c9.55,0,26.02,3.5,26.02,28.36v35.43Z"/>
        <path class="cls-1" d="M220.59,130.7c-5.03,0-8.31,4.52-8.31,9.11v37.47c0,4.59,3.28,9.11,8.31,9.11s8.31-4.3,8.31-9.11v-37.47c0-4.74-3.28-9.11-8.31-9.11Z"/>
      </g>
    </g>
  </g>
</svg>